<svg version="1.1" id="activity" xmlns="http://www.w3.org/2000/svg" xmlns:xlink="http://www.w3.org/1999/xlink" x="0px" y="0px"
	 viewBox="0 0 20 20" enable-background="new 0 0 20 20" xml:space="preserve">
<g stroke="none" id="XMLID_1_">
	<path id="XMLID_7_" d="M13.7,7c-1.5,0-3.1-0.3-4.3-1.1C7.3,4.3,2.9,5.4,1.3,5.9C0.8,6.1,0.3,5.9,0.1,5.3c-0.2-0.5,0.1-1.1,0.6-1.3
		C0.9,4,7.1,1.7,10.6,4.2c2.1,1.5,6.6,0.4,8.1-0.1c0.5-0.2,1.1,0.1,1.3,0.6c0.2,0.5-0.1,1.1-0.6,1.3C19.2,6,16.5,7,13.7,7z"/>
</g>
<g stroke="none" id="XMLID_2_">
	<path id="XMLID_6_" d="M13.7,12c-1.5,0-3.1-0.3-4.3-1.1c-2.1-1.5-6.6-0.4-8.1,0.1c-0.5,0.2-1.1-0.1-1.3-0.6
		c-0.2-0.5,0.1-1.1,0.6-1.3C0.9,9,7.1,6.7,10.6,9.2c2.1,1.5,6.6,0.4,8.1-0.1c0.5-0.2,1.1,0.1,1.3,0.6c0.2,0.5-0.1,1.1-0.6,1.3
		C19.2,11,16.5,12,13.7,12z"/>
</g>
<g stroke="none" id="XMLID_3_">
	<path id="XMLID_5_" d="M13.7,17c-1.5,0-3.1-0.3-4.3-1.1c-2.2-1.5-6.6-0.4-8.1,0.1c-0.5,0.2-1.1-0.1-1.3-0.6
		c-0.2-0.5,0.1-1.1,0.6-1.3c0.3-0.1,6.5-2.3,9.9,0.1c2.1,1.5,6.6,0.4,8.1-0.1c0.5-0.2,1.1,0.1,1.3,0.6c0.2,0.5-0.1,1.1-0.6,1.3
		C19.2,16,16.5,17,13.7,17z"/>
</g>
</svg>
