<svg version="1.1" id="admin" xmlns="http://www.w3.org/2000/svg" xmlns:xlink="http://www.w3.org/1999/xlink" x="0px" y="0px"
	 viewBox="-1 3 16 16" enable-background="new -1 3 16 16" xml:space="preserve">
<path stroke="none" id="XMLID_9_" d="M7,8c-1.7,0-3,1.3-3,3s1.3,3,3,3s3-1.3,3-3S8.7,8,7,8z M7,12c-0.6,0-1-0.4-1-1s0.4-1,1-1s1,0.4,1,1
	S7.6,12,7,12z"/>
<path stroke="none" d="M14,10h-1.1c-0.1-0.7-0.3-1.3-0.6-1.8c-0.1-0.2-0.2-0.5-0.4-0.7l0.8-0.8c0.4-0.4,0.4-1,0-1.4c-0.4-0.4-1-0.4-1.4,0l-0.8,0.8
	c-0.6-0.4-1.3-0.7-2-0.9C8.3,5.2,8.2,5.1,8,5.1V4c0-0.5-0.5-1-1-1S6,3.5,6,4v1.1C5.3,5.2,4.7,5.4,4.2,5.7C3.9,5.8,3.7,6,3.5,6.1
	L2.8,5.3C2.4,5,1.7,5,1.3,5.3c-0.4,0.3-0.4,1,0,1.4l0.8,0.8c-0.4,0.6-0.7,1.3-0.9,2c0,0.2-0.1,0.3-0.1,0.5H0c-0.5,0-1,0.5-1,1
	s0.5,1,1,1h1.1c0.1,0.7,0.3,1.3,0.6,1.8c0.1,0.2,0.2,0.5,0.4,0.7l-0.8,0.8c-0.4,0.4-0.4,1,0,1.4c0.4,0.4,1,0.4,1.4,0l2.2-2.3
	C3.8,13.7,3,12.4,3,11c0-2.2,1.8-4,4-4c2.2,0,4,1.8,4,4c0,2.2-1.8,4-4,4c-0.3,0-0.7-0.1-1-0.1v2.1v0.6V18c0,0.5,0.5,1,1,1s1-0.5,1-1
	v-1.1c0.7-0.1,1.3-0.3,1.8-0.6c0.2-0.1,0.5-0.2,0.7-0.4l0.8,0.8c0.4,0.4,1,0.4,1.4,0c0.4-0.4,0.4-1,0-1.4l-0.8-0.8
	c0.4-0.6,0.7-1.3,0.9-2c0-0.2,0.1-0.3,0.1-0.5H14c0.5,0,1-0.5,1-1S14.5,10,14,10z"/>
</svg>
