<svg version="1.1" id="agile" xmlns="http://www.w3.org/2000/svg" xmlns:xlink="http://www.w3.org/1999/xlink" x="0px" y="0px"
	 viewBox="0 0 24 24" style="enable-background:new 0 0 24 24;" xml:space="preserve">
<path d="M12,1C5.9,1,1,5.9,1,12s4.9,11,11,11s11-4.9,11-11S18.1,1,12,1z M12,18c-0.9-0.8-1.6-2-1.6-3.3c0-2.4,2-4.4,4.4-4.4
	c1.3,0,2.5,0.6,3.3,1.6c-0.5-0.2-1.1-0.3-1.7-0.3c-2.6,0-4.7,2.1-4.7,4.7C11.7,16.9,11.8,17.4,12,18z M16.5,19.1
	c-1.2,0-2.2-0.8-2.6-1.9c0,0,0-0.1,0-0.1c0-0.1-0.1-0.2-0.1-0.3c0-0.1,0-0.2,0-0.4c0,0,0-0.1,0-0.1c0-1.5,1.2-2.8,2.8-2.8
	s2.8,1.2,2.8,2.8S18,19.1,16.5,19.1z M14.8,8.3c-3.5,0-6.4,2.8-6.4,6.4c0,1.8,0.8,3.4,2,4.6c-2.1-1.1-3.6-3.3-3.6-5.9
	c0-3.7,3-6.6,6.6-6.6c2.5,0,4.8,1.4,5.9,3.6C18.2,9.1,16.6,8.3,14.8,8.3z M13.5,4.7c-4.8,0-8.6,3.9-8.6,8.6c0,2.7,1.3,5.2,3.2,6.7
	C5.1,18.6,3,15.6,3,12c0-5,4-9,9-9c3.2,0,6.1,1.7,7.6,4.3C18.1,5.7,15.9,4.7,13.5,4.7z"/>
</svg>
