<svg xmlns="http://www.w3.org/2000/svg" xmlns:xlink="http://www.w3.org/1999/xlink" version="1.1" x="0px" y="0px" viewBox="0 0 36 30" xml:space="preserve" class="red-bubble">
	<g class="red-bubble-bg">
		<path stroke="none" d="M35.1 14.6l-5.3-3.5V4.7c0-2-1.7-3.7-3.7-3.7H5C3 1 1.3 2.7 1.3 4.7v21.1c0 2 1.7 3.7 3.7 3.7h21.1 c2 0 3.7-1.7 3.7-3.7v-6.5l5.3-3.5C35.4 15.5 35.4 15 35.1 14.6z"/>
	</g>
	<g class="exclamation">
		<path stroke="none" d="M17.2 16.9h-2.5l-0.4-7.2h3.3L17.2 16.9z M14.4 20.7c0-0.5 0.1-0.8 0.4-1.1s0.7-0.4 1.2-0.4 c0.5 0 0.9 0.1 1.2 0.4s0.4 0.6 0.4 1.1c0 0.5-0.1 0.8-0.4 1.1c-0.3 0.3-0.7 0.4-1.2 0.4c-0.5 0-0.9-0.1-1.2-0.4 C14.5 21.5 14.4 21.1 14.4 20.7z"/>
	</g>
</svg>