<svg version="1.1" id="alert" xmlns="http://www.w3.org/2000/svg" xmlns:xlink="http://www.w3.org/1999/xlink" x="0px" y="0px"
	 viewBox="0 0 24 24" style="enable-background:new 0 0 24 24;" xml:space="preserve">
<g>
	<path d="M12,0.8C5.8,0.8,0.8,5.8,0.8,12s5,11.2,11.2,11.2s11.2-5,11.2-11.2S18.2,0.8,12,0.8z M12,19.7
		c-4.2,0-7.7-3.4-7.7-7.7S7.8,4.3,12,4.3s7.7,3.4,7.7,7.7S16.2,19.7,12,19.7z"/>
	<path d="M11.5,14H12c0.5,0,1-0.4,1-1l0.2-5.9c0-0.3-0.1-0.5-0.3-0.7s-0.4-0.3-0.7-0.3h-0.8c-0.3,0-0.5,0.1-0.7,0.3
		s-0.3,0.5-0.3,0.7l0.1,5.9C10.5,13.5,11,14,11.5,14z"/>
	<path d="M11.8,15.1c-0.8,0-1.5,0.7-1.5,1.5s0.7,1.5,1.5,1.5s1.5-0.7,1.5-1.5C13.3,15.8,12.6,15.1,11.8,15.1z"/>
</g>
</svg>
