<svg version="1.1" id="analytics" xmlns="http://www.w3.org/2000/svg" xmlns:xlink="http://www.w3.org/1999/xlink" x="0px" y="0px"
	 viewBox="0 0 24 24" style="enable-background:new 0 0 24 24;" xml:space="preserve">
<g>
	<path d="M20.4,21.4c-2,0-3.6-1.6-3.6-3.6c0-0.8,0.3-1.7,0.9-2.3l-4.4-6.1c-0.2,0.1-0.3,0.1-0.5,0.2v4.8c1.6,0.4,2.7,1.8,2.7,3.5
		c0,2-1.6,3.6-3.6,3.6c-2,0-3.6-1.6-3.6-3.6c0-1.7,1.1-3.1,2.7-3.5V9.6c-0.2,0-0.4-0.1-0.5-0.2l-4.4,6.1c0.6,0.6,0.9,1.5,0.9,2.3
		c0,2-1.6,3.6-3.6,3.6S0,19.8,0,17.9s1.6-3.6,3.6-3.6c0.4,0,0.9,0.1,1.3,0.3l4.4-6.1C8.7,7.8,8.4,7,8.4,6.1c0-2,1.6-3.6,3.6-3.6
		c2,0,3.6,1.6,3.6,3.6c0,0.8-0.3,1.6-0.8,2.3l4.4,6.1c0.4-0.2,0.9-0.3,1.3-0.3c2,0,3.6,1.6,3.6,3.6S22.4,21.4,20.4,21.4z M20.4,16
		c-1,0-1.9,0.8-1.9,1.9s0.8,1.9,1.9,1.9c1,0,1.9-0.8,1.9-1.9S21.5,16,20.4,16z M3.6,16c-1,0-1.9,0.8-1.9,1.9s0.8,1.9,1.9,1.9
		s1.9-0.8,1.9-1.9S4.6,16,3.6,16z M12,16c-1,0-1.9,0.8-1.9,1.9s0.8,1.9,1.9,1.9s1.9-0.8,1.9-1.9S13,16,12,16z M12,4.3
		c-1,0-1.9,0.8-1.9,1.9S11,8,12,8s1.9-0.8,1.9-1.9S13,4.3,12,4.3z"/>
</g>
</svg>
