<svg version="1.1" id="artifact" xmlns="http://www.w3.org/2000/svg" xmlns:xlink="http://www.w3.org/1999/xlink" x="0px" y="0px"
	 viewBox="0 0 24 24" style="enable-background:new 0 0 24 24;" xml:space="preserve">
<g>
	<path d="M20.3,1H3.8C2.2,1,1,2.2,1,3.8v16.5C1,21.8,2.2,23,3.8,23h16.5c1.5,0,2.8-1.2,2.8-2.8V3.8C23,2.2,21.8,1,20.3,1z
		 M21.2,20.3c0,0.5-0.4,0.9-0.9,0.9H3.8c-0.5,0-0.9-0.4-0.9-0.9V3.8c0-0.5,0.4-0.9,0.9-0.9h16.5c0.5,0,0.9,0.4,0.9,0.9V20.3z"/>
	<path d="M15.8,9.5l1.4-1.4l-1.3-1.3l-1.4,1.4c-0.5-0.3-1-0.6-1.6-0.7V5.6h-1.8v1.9C10.5,7.6,10,7.9,9.5,8.2L8.1,6.8L6.8,8.1
		l1.4,1.4c-0.3,0.5-0.6,1-0.7,1.6H5.6v1.8h1.9c0.1,0.6,0.4,1.1,0.7,1.6l-1.4,1.4l1.3,1.3l1.4-1.4c0.5,0.3,1,0.6,1.6,0.7v1.9h1.8
		v-1.9c0.6-0.1,1.1-0.4,1.6-0.7l1.4,1.4l1.3-1.3l-1.4-1.4c0.3-0.5,0.6-1,0.7-1.6h1.9v-1.8h-1.9C16.4,10.5,16.1,10,15.8,9.5z
		 M12,14.8c-1.5,0-2.8-1.2-2.8-2.8c0-1.5,1.2-2.8,2.8-2.8c1.5,0,2.8,1.2,2.8,2.8C14.8,13.5,13.5,14.8,12,14.8z"/>
</g>
</svg>
