<?xml version="1.0" encoding="utf-8"?>
<!-- Generator: Adobe Illustrator 22.0.1, SVG Export Plug-In . SVG Version: 6.00 Build 0)  -->
<svg version="1.1" id="compass" xmlns="http://www.w3.org/2000/svg" xmlns:xlink="http://www.w3.org/1999/xlink" x="0px" y="0px"
	 viewBox="0 0 24 24" style="enable-background:new 0 0 24 24;" xml:space="preserve">
<path d="M10.4,10.4c0.2-0.3,0.1-0.6-0.1-0.8c-0.3-0.2-0.6-0.1-0.8,0.1c-0.2,0.3-0.5,0.5-0.8,0.7L8,8.1C8.4,7.6,8.7,7,8.7,6.4
	c0-1.1-0.7-2.1-1.8-2.5V2.5C6.9,2,6.5,1.6,6,1.6S5,2,5,2.5v1.4C4,4.4,3.4,5.3,3.4,6.5C3.4,7,3.6,7.5,3.9,8l-0.7,2.3
	C2.9,10,2.7,9.8,2.5,9.5S2,9.2,1.7,9.4s-0.3,0.5-0.1,0.8c0.3,0.5,0.7,0.9,1.2,1.2l-1.2,3.9c-0.1,0.4,0.1,0.9,0.5,0.9
	c0.1,0.1,0.1,0.1,0.2,0.1c0.1,0,0.3,0,0.3-0.1c0.2-0.1,0.3-0.3,0.4-0.5l1.1-3.6c0.5,0.1,0.9,0.3,1.3,0.3v0.9c0,0.3,0.2,0.5,0.5,0.5
	c0.3,0,0.5-0.2,0.5-0.5v-0.9c0.4,0,0.8-0.1,1.2-0.2l1.1,3.5c0.1,0.3,0.4,0.5,0.7,0.5c0.1,0,0.1,0,0.2-0.1l0,0
	c0.2-0.1,0.3-0.2,0.5-0.4c0.1-0.2,0.1-0.4,0.1-0.6l-1-3.7C9.6,11.3,10.1,10.9,10.4,10.4z M6.5,11.3v-0.8C6.5,10.2,6.3,10,6,10
	c-0.3,0-0.5,0.2-0.5,0.5v0.8c-0.3-0.1-0.7-0.1-1-0.3l0.7-2.1C5.5,9,5.8,9,6.1,9C6.4,9,6.6,9,6.8,9l0.7,2.2
	C7.1,11.2,6.8,11.3,6.5,11.3z M6,8C5.2,8,4.5,7.3,4.5,6.5S5.2,4.9,6,4.9s1.5,0.7,1.5,1.5S6.9,8,6,8z"/>
<g id="XMLID_1320_">
	<path d="M22.3,22.2H7.7v-2.1c0-0.5,0.4-1.3,3.3-2.3c1.9-0.6,1.9-1.1,1.9-1.8c0-0.1,0-0.1-0.1-0.2c-0.2-0.2-0.5-0.6-0.6-1.3
		c-0.4-0.3-0.6-0.6-0.7-1.3c0-0.4,0.1-0.6,0.2-0.8c0-0.4-0.1-0.8-0.1-1.1c-0.1-0.5,0.1-1.4,0.8-2c0.1-0.3,0.4-0.4,0.6-0.5l0.2-0.3
		c0-0.1,0.1-0.3,0.2-0.3c0.1-0.1,0.3-0.1,0.5,0C13.9,8,13.9,7.9,14,7.9c0.1-0.1,0.3,0,0.4,0.1C14.5,8,14.6,8,14.6,8
		c0.1-0.1,0.2-0.1,0.4-0.1s0.3,0.1,0.5,0.1h0.1c0.5,0.1,1,0.3,1.4,0.5c0.1,0.1,0.2,0.1,0.3,0.2c0.2,0.1,0.4,0.3,0.5,0.4
		c0.6,0.7,0.8,1.5,0.8,2.1c0,0.3-0.1,0.7-0.1,1c0.1,0.2,0.2,0.4,0.2,0.8c-0.1,0.8-0.3,1.2-0.7,1.4c-0.2,0.8-0.4,1.1-0.6,1.3
		C17,15.8,17,15.8,17,15.9c0,0.6,0.1,1.1,1.9,1.8c2.9,1.1,3.3,1.8,3.3,2.3L22.3,22.2L22.3,22.2z M8.9,20.9h12.3v-0.8
		c-0.1-0.1-0.6-0.6-2.6-1.3c-1.8-0.6-2.7-1.3-2.7-2.9c0-0.6,0.3-0.8,0.4-1c0.1-0.2,0.3-0.3,0.4-0.8c0.1-0.5,0.4-0.7,0.6-0.8
		c0,0,0.1-0.1,0.1-0.4v-0.1l-0.3-0.1l0.1-0.4l0,0c0,0,0.1-0.6,0.2-1.2c0-0.2,0-0.7-0.4-1.1c-0.4-0.4-1-0.6-1.8-0.6
		c-0.8,0-1.4,0.2-1.8,0.6c-0.4,0.4-0.4,1-0.4,1.1c0.1,0.5,0.2,1.1,0.2,1.2l0.1,0.4l-0.3,0.2c0,0,0,0.1,0,0.1c0,0.3,0.1,0.4,0.1,0.4
		c0.1,0.1,0.5,0.3,0.6,0.8c0.1,0.5,0.3,0.7,0.4,0.8c0.2,0.2,0.4,0.4,0.4,1c0,1.6-1,2.3-2.7,2.9c-1.9,0.7-2.4,1.1-2.6,1.3L8.9,20.9z
		 M17.3,12.8L17.3,12.8L17.3,12.8z"/>
</g>
</svg>
