
<svg version="1.1" id="attachments-icon" xmlns="http://www.w3.org/2000/svg" xmlns:xlink="http://www.w3.org/1999/xlink" x="0px" y="0px"
	 viewBox="0 0 20 20" style="enable-background:new 0 0 20 20;" xml:space="preserve">
<g id="XMLID_3_">
	<path stroke="none" id="XMLID_2_" d="M1.8,18.2c-2.3-2.4-2.3-5.2,0-7.5l8.4-8.5C11.6,0.8,13.1,0,14.6,0c1.3,0,2.5,0.6,3.7,1.7
		c2.3,2.4,2.3,5.2,0,7.5l-2.8,2.8c-1.1,1.2-2.4,2.5-4,2.5c-0.8,0-1.6-0.4-2.3-1.1c-0.7-0.7-1.1-1.5-1-2.3c0-1.5,1.2-2.7,2.4-3.8
		c0.2-0.2,0.4-0.4,0.6-0.6l0.2-0.2c0.4-0.4,1.1-0.4,1.5,0c0.4,0.4,0.4,1.1,0,1.5l-0.2,0.2c-0.2,0.2-0.4,0.4-0.6,0.6
		c-0.8,0.8-1.8,1.7-1.8,2.3c0,0.1,0,0.3,0.4,0.8c0.4,0.5,0.7,0.4,0.8,0.4c0.7,0,1.6-1,2.5-1.9l2.8-2.8c1.5-1.5,1.5-3,0-4.5
		c-0.8-0.8-1.5-1.1-2.2-1.1c-0.9,0-1.8,0.5-2.9,1.6l-8.4,8.5c-1.5,1.5-1.5,3,0,4.5c1.5,1.5,3.1,1.6,4.5,0.1l1.2-1.2
		c0.4-0.4,1.1-0.4,1.5,0s0.4,1.1,0,1.5l-1.2,1.2C7,20.6,4.1,20.6,1.8,18.2z"/>
</g>
</svg>
