<svg version="1.1" id="Layer_1" xmlns="http://www.w3.org/2000/svg" xmlns:xlink="http://www.w3.org/1999/xlink" x="0px" y="0px"
	 viewBox="0 0 64 57.8" style="enable-background:new 0 0 64 57.8;" xml:space="preserve">
<path stroke="none" d="M63,46.1L38.5,3.8C37.2,1.4,34.7,0,32,0c-2.7,0-5.2,1.4-6.5,3.8L1,46.1c-1.3,2.3-1.3,5.4,0,7.7
	c1.3,2.3,3.8,3.9,6.5,3.9h48.9c2.7,0,5.2-1.6,6.5-3.9C64.3,51.5,64.3,48.5,63,46.1z M34.6,35.2c0,1.4-1.1,2.5-2.5,2.5h-1
	c-1.4,0-2.5-1.1-2.5-2.5v-18c0-1.4,1.1-2.5,2.5-2.5h1c1.4,0,2.5,1.1,2.5,2.5V35.2z M32.2,49.3c-2.4,0-4.4-2-4.4-4.4
	c0-2.4,2-4.4,4.4-4.4c2.4,0,4.4,2,4.4,4.4C36.6,47.3,34.6,49.3,32.2,49.3z"/>
</svg>
