<svg version="1.1" id="avatar" xmlns="http://www.w3.org/2000/svg" xmlns:xlink="http://www.w3.org/1999/xlink" x="0px" y="0px"
	 viewBox="0 0 24 24" style="enable-background:new 0 0 24 24;" xml:space="preserve">
<g id="XMLID_1320_">
	<path d="M23.5,23.2h-23v-3.3c0-0.8,0.6-2,5.2-3.6c2.9-1,3-1.7,3-2.8c0-0.1,0-0.1-0.2-0.3c-0.3-0.3-0.8-0.9-1-2.1
		c-0.7-0.4-1-1-1.1-2.1c0-0.6,0.2-1,0.3-1.3C6.7,7.1,6.6,6.5,6.6,6C6.5,5.2,6.8,3.8,7.8,2.8C8,2.4,8.4,2.2,8.7,2L9,1.6
		c0-0.2,0.2-0.4,0.3-0.5c0.2-0.2,0.5-0.2,0.8,0c0.1-0.1,0.2-0.2,0.4-0.3c0.2-0.1,0.5,0,0.6,0.1C11.2,1,11.3,1,11.3,1
		c0.1-0.1,0.3-0.2,0.6-0.2c0.3,0,0.5,0.1,0.8,0.1l0.1,0c0.8,0.2,1.5,0.5,2.2,0.8c0.2,0.1,0.3,0.2,0.4,0.3c0.3,0.2,0.6,0.5,0.8,0.7
		c1,1.1,1.2,2.4,1.2,3.3c0,0.5-0.1,1.1-0.2,1.6c0.2,0.3,0.3,0.7,0.3,1.2c-0.1,1.2-0.4,1.9-1.1,2.2c-0.3,1.2-0.7,1.8-1,2.1
		c-0.2,0.2-0.2,0.2-0.2,0.3c0,1,0.1,1.7,3,2.8c4.6,1.7,5.2,2.8,5.2,3.6V23.2z M2.4,21.3h19.2V20c-0.2-0.2-1-0.9-4-2
		c-2.8-1-4.3-2-4.3-4.6c0-0.9,0.4-1.3,0.6-1.6c0.2-0.3,0.4-0.5,0.6-1.3c0.1-0.8,0.7-1.1,0.9-1.2c0,0,0.1-0.1,0.1-0.6
		c0,0,0-0.1,0-0.1L15,8.4l0.2-0.7l0,0c0,0,0.2-1,0.3-1.9c0-0.3,0-1.1-0.7-1.8c-0.6-0.7-1.6-1-2.8-1c-1.3,0-2.2,0.3-2.8,1
		C8.5,4.7,8.5,5.6,8.5,5.8c0.1,0.8,0.3,1.8,0.3,1.9l0.1,0.7L8.4,8.7c0,0,0,0.1,0,0.2c0,0.5,0.1,0.6,0.1,0.6c0.2,0.1,0.8,0.4,0.9,1.2
		c0.2,0.8,0.4,1.1,0.6,1.3c0.3,0.3,0.6,0.7,0.6,1.6c0,2.5-1.5,3.6-4.3,4.6c-3,1.1-3.8,1.8-4,2L2.4,21.3z M15.6,8.6L15.6,8.6
		L15.6,8.6z M10,2.3"/>
</g>
</svg>
