<svg version="1.1" id="blocking-issues" xmlns="http://www.w3.org/2000/svg" xmlns:xlink="http://www.w3.org/1999/xlink" x="0px"
	 y="0px" viewBox="0 0 20 20" style="enable-background:new 0 0 20 20;" xml:space="preserve">
<g>
	<g>
		<path stroke="none" d="M14.5,20H5.5c-2.2,0-4-1.3-4.9-2.8c-0.9-1.5-0.7-3.7,0.4-5.6l4.5-8C6.6,1.7,8.2,0.5,10,0.5s3.4,1.1,4.5,3l4.5,7.8
			c1.1,1.9,1.2,4.3,0.4,5.8C18.5,18.7,16.8,20,14.5,20z M8,5.1L3.6,13c-0.5,0.9-0.6,1.7-0.3,2.2C3.6,15.7,4.5,16,5.5,16h9.1
			c1,0,1.8-0.3,2-0.8c0.3-0.5,0.1-1.3-0.4-2.2l-4.5-7.9c-0.5-0.9-1.3-1.4-1.8-1.4C9.3,3.8,9,4.3,8,5.1L8,5.1z"/>
	</g>
	<path stroke="none" d="M10,6.8L10,6.8c-0.5,0-0.8,0.4-0.8,0.8v2.4c0,0.5,0.4,0.8,0.8,0.8h0c0.5,0,0.8-0.4,0.8-0.8V7.6C10.8,7.2,10.5,6.8,10,6.8z"
		/>
	<circle stroke="none" cx="10" cy="13.4" r="1.3"/>
</g>
</svg>
