<svg version="1.1" id="blog" xmlns="http://www.w3.org/2000/svg" xmlns:xlink="http://www.w3.org/1999/xlink" x="0px" y="0px"
	 viewBox="0 0 28 28" style="enable-background:new 0 0 28 28;" xml:space="preserve">
<g>
	<g id="XMLID_5_">
		<path stroke="none" id="XMLID_9_" d="M8.4,28C3.8,28,0,24.2,0,19.6c0-4.6,3.8-8.4,8.4-8.4s8.4,3.8,8.4,8.4C16.8,24.2,13,28,8.4,28z M8.4,13.1
			c-3.6,0-6.5,2.9-6.5,6.5s2.9,6.5,6.5,6.5c3.6,0,6.5-2.9,6.5-6.5S12,13.1,8.4,13.1z"/>
	</g>
	<g id="XMLID_4_">
		<path stroke="none" id="XMLID_8_" d="M20.5,19.6h-1.9c0-5.7-4.6-10.3-10.3-10.3V7.5C15.1,7.5,20.5,12.9,20.5,19.6z"/>
	</g>
	<g id="XMLID_3_">
		<path stroke="none" id="XMLID_7_" d="M24.3,19.6h-1.9c0-7.7-6.3-14-14-14V3.7C17.1,3.7,24.3,10.9,24.3,19.6z"/>
	</g>
	<g id="XMLID_2_">
		<path stroke="none" id="XMLID_6_" d="M28,19.6h-1.9c0-9.8-8-17.7-17.7-17.7V0C19.2,0,28,8.8,28,19.6z"/>
	</g>
</g>
</svg>
