<?xml version="1.0" encoding="utf-8"?>
<!-- Generator: Adobe Illustrator 23.0.1, SVG Export Plug-In . SVG Version: 6.00 Build 0)  -->
<svg version="1.1" id="Layer_1" xmlns="http://www.w3.org/2000/svg" xmlns:xlink="http://www.w3.org/1999/xlink" x="0px" y="0px"
	 viewBox="0 0 24 24" style="enable-background:new 0 0 24 24;" xml:space="preserve">
<g>
	<path d="M21.3,18V4.9c0-0.6-0.2-1.1-0.7-1.5c-0.4-0.4-1-0.7-1.5-0.7H6L21.3,18z"/>
	<path d="M24,22.5L1.5,0L0,1.5l2.1,2.1C1.8,4,1.6,4.4,1.6,4.9v15.2c0,0.6,0.2,1.1,0.7,1.5c0.4,0.4,1,0.7,1.5,0.7h15.2
		c0.5,0,0.9-0.2,1.3-0.5l2.1,2.1L24,22.5z M3.8,19.1l3.8-4.9l2.8,3.3l2.4-3.1l4.8,4.8H3.8z"/>
</g>
</svg>
