<svg version="1.1" id="bucket" xmlns="http://www.w3.org/2000/svg" xmlns:xlink="http://www.w3.org/1999/xlink" x="0px" y="0px"
	 viewBox="0 0 24 24" style="enable-background:new 0 0 24 24;" xml:space="preserve">
<g>
	<polygon points="8.6,8.6 11.9,11.9 15.2,8.6 14.2,7.6 12.6,9.2 12.6,1 11.1,1 11.1,9.1 9.6,7.6 	"/>
	<path d="M19.7,9.3c0-0.1,0-0.3,0-0.4c0-0.2,0-0.3,0-0.5V8.2h0c-0.3-3.5-2.9-6.4-6.4-7v1.4C16,3.3,18,5.6,18.2,8.4v1.2
		c-0.4,3.1-3,5.6-6.2,5.6c-3.3,0-6-2.6-6.3-5.9V8.6c0.1-2.8,2.1-5.2,4.7-5.8V1.3C7.2,2,4.6,4.8,4.3,8.2h0v7.5h0
		c0.2,4,3.6,7.3,7.7,7.3c4.2,0,7.7-3.4,7.7-7.7h0V9.3z M12,21.6c-3.3,0-6-2.6-6.3-5.9v-2.4c1.4,2,3.7,3.2,6.3,3.2
		c2.6,0,4.8-1.3,6.2-3.2v2.2h0C18.1,18.9,15.4,21.6,12,21.6z"/>
</g>
</svg>
