<svg version="1.1" id="bulb" xmlns="http://www.w3.org/2000/svg" xmlns:xlink="http://www.w3.org/1999/xlink" x="0px" y="0px"
	 viewBox="0 0 24 24" style="enable-background:new 0 0 24 24;" xml:space="preserve">
<g id="XMLID_61_">
	<g id="XMLID_32_">
		<path d="M15.7,24H8.3v-6.1c0-1.3-0.8-2.3-1.3-2.7l-0.9-0.7l0.1,0c-1.7-1.6-2.6-3.8-2.6-6.1C3.6,3.8,7.4,0,12,0
			c4.6,0,8.4,3.8,8.4,8.4c0,2.5-1.1,4.8-2.9,6.4l0,0L17,15.2c-0.5,0.3-1.4,1.3-1.4,2.8V24z M10.1,22.2h3.8v-1.4h-3.8V22.2z
			 M12.9,19.1h1v-1.1c0-2,1.1-3.5,2.1-4.2l0.3,0.4L16,13.7c1.7-1.3,2.7-3.2,2.7-5.3c0-3.7-3-6.7-6.7-6.7c-3.7,0-6.7,3-6.7,6.7
			c0,2.1,1,4,2.6,5.3l0.1,0.1c0.9,0.7,2,2.2,2,4.1v1.1h1v-8.8C10.4,10,9.9,9.2,9.9,8.4c0-1.1,0.9-2.1,2.1-2.1c1.1,0,2.1,0.9,2.1,2.1
			c0,0.8-0.5,1.5-1.2,1.9V19.1z M12,8.1c-0.2,0-0.3,0.1-0.3,0.3s0.1,0.3,0.3,0.3s0.3-0.1,0.3-0.3S12.2,8.1,12,8.1z"/>
	</g>
</g>
</svg>
