<svg id="bundle" xmlns="http://www.w3.org/2000/svg" viewBox="0 0 16 16">
	<polygon stroke="none" points="13 6.06 14.98 4.75 8.03 0.5 5.98 1.77 13 6.05 13 6.06"/><polygon points="1 4.78 7.84 8.96 10 7.58 3.38 3.33 1 4.78"/><polygon points="15 6.92 15 5.85 13 7.13 13 8.21 15 6.92"/><polygon points="7.81 10.14 1 5.85 1 6.92 7.81 11.21 10 9.75 10 8.68 7.81 10.14"/><polygon points="15 11.21 15 10.14 13 11.43 13 12.5 15 11.21"/><polygon points="7.81 14.43 1 10.14 1 11.21 7.81 15.5 10 14.04 10 12.97 7.81 14.43"/><polygon points="15 9.07 15 7.99 13 9.28 13 10.35 15 9.07"/><polygon points="7.81 12.29 1 7.99 1 9.07 7.81 13.36 10 11.89 10 10.82 7.81 12.29"/>
</svg>