<svg version="1.1" id="capacity-planning" xmlns="http://www.w3.org/2000/svg" xmlns:xlink="http://www.w3.org/1999/xlink" x="0px" y="0px"
	 viewBox="0 0 20 20" style="enable-background:new 0 0 20 20;" xml:space="preserve">
<g id="XMLID_1_">
	<path stroke="none" id="XMLID_3_" d="M16.7,20H3.3C1.5,20,0,18.5,0,16.7V3.3C0,1.5,1.5,0,3.3,0h13.3C18.5,0,20,1.5,20,3.3v13.3
		C20,18.5,18.5,20,16.7,20z M16.7,16.7v1.7V16.7L16.7,16.7L16.7,16.7z M3.3,3.3v13.3h13.3l0-13.3H3.3z"/>
</g>
<path stroke="none" id="XMLID_2_" d="M6,8.5L6,8.5c-0.6,0-1,0.4-1,1v4.1c0,0.5,0.4,1,1,1H6c0.5,0,1-0.4,1-1V9.5C7,8.9,6.6,8.5,6,8.5z"/>
<path stroke="none" id="XMLID_7_" d="M10.1,5.5H9.9C9.4,5.5,9,5.9,9,6.4v7.2c0,0.5,0.4,0.9,0.9,0.9h0.2c0.5,0,0.9-0.4,0.9-0.9V6.4
	C11,5.9,10.6,5.5,10.1,5.5z"/>
<path stroke="none" id="XMLID_8_" d="M14.2,10.5h-0.4c-0.4,0-0.8,0.4-0.8,0.8v2.4c0,0.4,0.4,0.8,0.8,0.8h0.4c0.4,0,0.8-0.4,0.8-0.8v-2.4
	C15,10.9,14.6,10.5,14.2,10.5z"/>
</svg>
