<svg version="1.1" xmlns="http://www.w3.org/2000/svg" xmlns:xlink="http://www.w3.org/1999/xlink" x="0px" y="0px"
	 viewBox="0 0 24 24" style="enable-background:new 0 0 24 24;" xml:space="preserve">
<g>
	<path d="M21.8,10.9H24v2.1h-2.2c-0.2,2.3-1.2,4.2-2.8,5.9s-3.6,2.6-5.9,2.8V24h-2.1v-2.2c-2.3-0.2-4.2-1.2-5.9-2.8
		s-2.6-3.6-2.8-5.9H0v-2.1h2.2c0.2-2.3,1.2-4.2,2.8-5.9s3.6-2.6,5.9-2.8V0h2.1v2.2c2.3,0.2,4.2,1.2,5.9,2.8S21.5,8.6,21.8,10.9z
		 M6.6,17.4c1.5,1.5,3.3,2.2,5.4,2.2c2.1,0,3.9-0.7,5.4-2.2s2.2-3.3,2.2-5.4s-0.7-3.9-2.2-5.4S14.1,4.4,12,4.4
		c-2.1,0-3.9,0.7-5.4,2.2S4.4,9.9,4.4,12S5.1,15.9,6.6,17.4z M8.9,8.9c0.9-0.9,1.9-1.3,3.1-1.3s2.2,0.4,3.1,1.3
		c0.9,0.9,1.3,1.9,1.3,3.1c0,1.2-0.4,2.2-1.3,3.1s-1.9,1.3-3.1,1.3s-2.2-0.4-3.1-1.3c-0.9-0.9-1.3-1.9-1.3-3.1
		C7.7,10.8,8.1,9.8,8.9,8.9z"/>
</g>
</svg>
