<svg version="1.1" id="changelog" xmlns="http://www.w3.org/2000/svg" xmlns:xlink="http://www.w3.org/1999/xlink" x="0px" y="0px"
	 viewBox="0 0 24 24" style="enable-background:new 0 0 24 24;" xml:space="preserve">
<g>
	<path d="M3.5,9.4h13v1.9h1.9V2.9h-3.7V1h-1.9v1.9H7.2V1H5.3v1.9H1.6v17.6H10v-1.9H3.5V9.4z M5.3,4.7v1.9h1.9V4.7h5.6v1.9h1.9V4.7
		h1.9v2.8h-13V4.7H5.3z"/>
	<polygon points="17.6,17.4 18.8,18.6 11.8,18.6 11.8,20.5 18.8,20.5 17.6,21.7 19,23 22.4,19.6 19,16.1 	"/>
	<polygon points="15.2,16.1 14,14.9 21.1,14.9 21.1,13.1 14,13.1 15.2,11.9 13.9,10.6 10.5,14 13.9,17.4 	"/>
</g>
</svg>
