<svg version="1.1" id="checked" xmlns="http://www.w3.org/2000/svg" xmlns:xlink="http://www.w3.org/1999/xlink" x="0px" y="0px"
	 viewBox="0 0 20 20" style="enable-background:new 0 0 20 20;" xml:space="preserve">
<g id="XMLID_1_">
	<path stroke="none" id="XMLID_3_" d="M10,20C4.5,20,0,15.5,0,10C0,4.5,4.5,0,10,0c5.5,0,10,4.5,10,10C20,15.5,15.5,20,10,20z M10,2.8
		C6,2.8,2.8,6,2.8,10c0,4,3.2,7.2,7.2,7.2c4,0,7.2-3.2,7.2-7.2C17.2,6,14,2.8,10,2.8z"/>
</g>
<path stroke="none" id="XMLID_8_" d="M14.6,6.9c-0.4-0.4-1.1-0.4-1.5,0l-4.4,4.4L7.5,9.9C7.1,9.5,6.4,9.5,6,9.9c-0.4,0.4-0.4,1.1,0,1.5L8,13.5
	c0.4,0.4,1.1,0.4,1.5,0l5.1-5.1C15,8,15,7.3,14.6,6.9z"/>
</svg>
