<svg version="1.1" id="chevron" xmlns="http://www.w3.org/2000/svg" xmlns:xlink="http://www.w3.org/1999/xlink" x="0px"
	 y="0px" viewBox="-790 635.9 6 10" style="enable-background:new -790 635.9 6 10;" xml:space="preserve">

<g transform="matrix(1,0,0,1.0297627,0,-18.962544)">
    <path stroke="none" d="m -789.20056,645.28951 c -0.29219,-0.29219 -0.28836,-0.78835 0.011,-1.08895 L -786.4,641.4 c 0.1996,-0.20039 0.3,-0.4 0.3,-0.6 0,-0.2 -0.15633,-0.43149 -0.32153,-0.61105 L -789.2,637.4 c -0.24476,-0.23371 -0.3,-0.8 0,-1.1 0.3,-0.3 0.8,-0.3 1.1,0 l 2.9,2.9 c 0.5,0.4 0.7,1 0.7,1.7 0,0.7 -0.3,1.1 -0.7,1.6 l -2.86685,2.78951 c -0.33515,0.33515 -0.8423,0.29141 -1.13371,0 z" />
</g>
</svg>
