<svg version="1.1" id="closed-project" xmlns="http://www.w3.org/2000/svg" xmlns:xlink="http://www.w3.org/1999/xlink" x="0px"
		 y="0px" viewBox="0 0 24 24" style="enable-background:new 0 0 24 24;" xml:space="preserve">
	<style type="text/css">
	.st0{fill:#D61E00;}
	.st1{fill:#426F95;}
</style>
	<g>
	<path class="st0" d="M2.1,22.7c-0.3,0-0.5-0.1-0.7-0.3C1,22,1,21.4,1.4,21L21,1.4c0.4-0.4,1-0.4,1.4,0s0.4,1,0,1.4L2.8,22.4
		C2.6,22.6,2.3,22.7,2.1,22.7z"/>
</g>
	<g>
	<path class="st1" d="M18.9,2c-0.8,0-2.8,0-4.6,0C11.9,2,11.2,5.6,9,5.6s-4.3,0-4.3,0C3.2,5.6,2,6.9,2,8.4v10.6L18.9,2z"/>
	<path class="st1" d="M4.6,22c0,0,0.1,0,0.1,0h14.5c1.5,0,2.7-1.3,2.7-2.7V4.7c0,0,0-0.1,0-0.1L4.6,22z"/>
</g>
	</svg>