<svg version="1.1" id="cloud" xmlns="http://www.w3.org/2000/svg" xmlns:xlink="http://www.w3.org/1999/xlink" x="0px" y="0px"
	 viewBox="0 0 24 24" style="enable-background:new 0 0 24 24;" xml:space="preserve">
<g id="XMLID_106_">
	<path d="M5.7,19.1C3.1,19.1,1,17,1,14.5c0-1.9,1.2-3.6,2.9-4.3c0.4-1.4,1.7-2.5,3.2-2.5c0.3,0,0.7,0.1,1,0.2c1-1.8,3-3,5.1-3
		c3.2,0,5.8,2.5,5.9,5.6c2.2,0.2,3.8,2.1,3.8,4.3c0,2.4-1.9,4.3-4.3,4.3L5.7,19.1z M7.1,9.3c-0.8,0-1.5,0.6-1.6,1.4l-0.1,0.7
		l-0.7,0.2c-1.2,0.4-2.1,1.6-2.1,2.9c0,1.7,1.4,3,3,3h13c1.5,0,2.7-1.2,2.7-2.7c0-1.5-1.2-2.7-2.7-2.7l-1.2,0l0-1.3
		c0-2.4-1.9-4.3-4.3-4.3c-1.6,0-3.1,1-3.8,2.4L8.9,10L7.8,9.5C7.6,9.4,7.3,9.3,7.1,9.3z"/>
</g>
</svg>
