<svg version="1.1" id="columns" xmlns="http://www.w3.org/2000/svg" xmlns:xlink="http://www.w3.org/1999/xlink" x="0px" y="0px"
	 viewBox="0 0 24 24" style="enable-background:new 0 0 24 24;" xml:space="preserve">
<path d="M1,8.7v11.4v1.4c0,1,0.8,1.9,1.9,1.9h1.4h3V8.7H1z"/>
<g>
	<rect x="8.8" y="8.7" width="6.3" height="14.6"/>
</g>
<path d="M23,8.7v11.4v1.4c0,1-0.8,1.9-1.9,1.9h-1.4h-3V8.7H23z"/>
<path d="M23,6.9V4.6V3.2c0-1-0.8-1.9-1.9-1.9h-1.4h-3v5.6H23z"/>
<g>
	<rect x="8.9" y="1.3" width="6.3" height="5.6"/>
</g>
<path d="M1,6.9V4.6V3.2c0-1,0.8-1.9,1.9-1.9h1.4h3v5.6H1z"/>
</svg>
