<svg version="1.1" id="support" xmlns="http://www.w3.org/2000/svg" xmlns:xlink="http://www.w3.org/1999/xlink" x="0px" y="0px"
	 viewBox="0 0 24 24" style="enable-background:new 0 0 24 24;" xml:space="preserve">
<path d="M18,3c-1.7,0-3,1.3-3,3c0,0.5,0.2,1,0.4,1.5L12,10.8L8.6,7.5C8.8,7,9,6.5,9,6c0-1.7-1.3-3-3-3S3,4.3,3,6s1.3,3,3,3
	c0.4,0,0.8-0.1,1.1-0.2l3.9,3.8l-0.1,3.4l0.4,0C10,16.4,9,17.6,9,19c0,1.7,1.3,3,3,3s3-1.3,3-3c0-1.4-1-2.6-2.2-2.9l0.2,0l0.1-3.5
	l3.9-3.9C17.2,8.9,17.6,9,18,9c1.7,0,3-1.3,3-3S19.7,3,18,3z M12,20c-0.6,0-1-0.4-1-1s0.4-1,1-1s1,0.4,1,1S12.6,20,12,20z M6,7
	C5.4,7,5,6.6,5,6s0.4-1,1-1s1,0.4,1,1S6.6,7,6,7z M18,7c-0.6,0-1-0.4-1-1s0.4-1,1-1s1,0.4,1,1S18.6,7,18,7z"/>
</svg>
