
<svg version="1.1" id="compass" xmlns="http://www.w3.org/2000/svg" xmlns:xlink="http://www.w3.org/1999/xlink" x="0px" y="0px"
	 viewBox="0 0 24 24" style="enable-background:new 0 0 24 24;" xml:space="preserve">
<path d="M18.6,14.2c0.3-0.4,0.2-0.9-0.1-1.2c-0.4-0.3-0.9-0.2-1.2,0.1c-0.3,0.4-0.7,0.8-1.2,1.1L15,10.7c0.6-0.7,1-1.6,1-2.6
	c0-1.7-1.1-3.2-2.7-3.8v-2c0-0.8-0.6-1.4-1.4-1.4c-0.8,0-1.4,0.6-1.4,1.4v2.1C9,5.1,8,6.5,8,8.2C8,9,8.3,9.8,8.8,10.5l-1.1,3.4
	c-0.4-0.3-0.7-0.7-1-1.1c-0.3-0.4-0.8-0.5-1.2-0.2c-0.4,0.3-0.5,0.8-0.2,1.2c0.5,0.7,1.1,1.3,1.8,1.8l-1.8,5.9
	c-0.2,0.6,0.2,1.3,0.8,1.4C6.2,23,6.3,23,6.4,23c0.2,0,0.4,0,0.5-0.1c0.3-0.1,0.5-0.4,0.6-0.7l1.7-5.4c0.7,0.2,1.3,0.4,2,0.5v1.4
	c0,0.4,0.3,0.7,0.7,0.7c0.4,0,0.7-0.3,0.7-0.7v-1.3c0.6,0,1.2-0.2,1.8-0.3l1.6,5.3c0.2,0.5,0.6,0.8,1.1,0.8c0.1,0,0.2,0,0.3-0.1l0,0
	c0.3-0.1,0.5-0.3,0.7-0.6c0.1-0.3,0.2-0.6,0.1-0.9L16.7,16C17.4,15.5,18.1,14.9,18.6,14.2z M12.7,15.5v-1.2c0-0.4-0.3-0.7-0.7-0.7
	c-0.4,0-0.7,0.3-0.7,0.7v1.2c-0.5-0.1-1-0.2-1.5-0.4l1-3.2c0.4,0.1,0.8,0.2,1.3,0.2c0.4,0,0.7-0.1,1-0.1l1,3.3
	C13.6,15.4,13.2,15.5,12.7,15.5z M12,10.5c-1.3,0-2.3-1-2.3-2.3s1-2.3,2.3-2.3c1.3,0,2.3,1,2.3,2.3S13.3,10.5,12,10.5z"/>
</svg>
