<svg version="1.1" id="configuration" xmlns="http://www.w3.org/2000/svg" xmlns:xlink="http://www.w3.org/1999/xlink" x="0px" y="0px"
	 viewBox="0 0 24 24" style="enable-background:new 0 0 24 24;" xml:space="preserve">
<g>
	<path d="M23,11H11.9c-0.4-1.7-2-3-3.9-3s-3.4,1.3-3.9,3H1v2h3.1c0.4,1.7,2,3,3.9,3s3.4-1.3,3.9-3H23V11z M8,14c-1.1,0-2-0.9-2-2
		c0-1.1,0.9-2,2-2s2,0.9,2,2C10,13.1,9.1,14,8,14z"/>
	<path d="M23,4h-1.1c-0.4-1.7-2-3-3.9-3s-3.4,1.3-3.9,3H1v2h13.1c0.4,1.7,2,3,3.9,3s3.4-1.3,3.9-3H23V4z M18,7c-1.1,0-2-0.9-2-2
		c0-1.1,0.9-2,2-2s2,0.9,2,2C20,6.1,19.1,7,18,7z"/>
	<path d="M18,15c-1.9,0-3.4,1.3-3.9,3H1v2h13.1c0.4,1.7,2,3,3.9,3s3.4-1.3,3.9-3H23v-2h-1.1C21.4,16.3,19.9,15,18,15z M18,21
		c-1.1,0-2-0.9-2-2c0-1.1,0.9-2,2-2s2,0.9,2,2C20,20.1,19.1,21,18,21z"/>
</g>
</svg>
