<svg version="1.1" id="construction" xmlns="http://www.w3.org/2000/svg" xmlns:xlink="http://www.w3.org/1999/xlink" x="0px" y="0px"
	 viewBox="0 0 24 24" style="enable-background:new 0 0 24 24;" xml:space="preserve">
<path d="M23,3.8C23,2.2,21.8,1,20.3,1s-2.8,1.2-2.8,2.8c0,1.2,0.8,2.2,1.8,2.6v0.2H4.7V6.3C5.7,6,6.5,4.9,6.5,3.8
	C6.5,2.2,5.3,1,3.8,1S1,2.2,1,3.8C1,4.9,1.8,6,2.8,6.3v0.2H1v8.3h1.8V23h1.8v-8.3h14.7V23h1.8v-8.3H23V6.5h-1.8V6.3
	C22.2,6,23,4.9,23,3.8z M20.3,2.8c0.5,0,0.9,0.4,0.9,0.9s-0.4,0.9-0.9,0.9c-0.5,0-0.9-0.4-0.9-0.9S19.7,2.8,20.3,2.8z M15.1,8.3H19
	l-4.6,4.6h-3.8L15.1,8.3z M8,12.9H4.1l4.6-4.6h3.8L8,12.9z M3.8,2.8c0.5,0,0.9,0.4,0.9,0.9S4.3,4.7,3.8,4.7c-0.5,0-0.9-0.4-0.9-0.9
	S3.2,2.8,3.8,2.8z M6.1,8.3l-3.3,3.3V8.3H6.1z M17,12.9l4.2-4.2v4.2H17z"/>
</svg>
