<?xml version="1.0" encoding="utf-8"?>
<!-- Generator: Adobe Illustrator 22.1.0, SVG Export Plug-In . SVG Version: 6.00 Build 0)  -->
<svg version="1.1" id="unfollow" xmlns="http://www.w3.org/2000/svg" xmlns:xlink="http://www.w3.org/1999/xlink" x="0px" y="0px"
	 viewBox="0 0 16 16" style="enable-background:new 0 0 16 16;" xml:space="preserve">
<g>
	<path d="M1.6,3.2v11.2h11.2V16H1.6c-0.4,0-0.8-0.2-1.1-0.5C0.2,15.2,0,14.8,0,14.4V3.2H1.6z M14.4,0c0.4,0,0.8,0.2,1.1,0.5
		C15.8,0.8,16,1.2,16,1.6v9.6c0,0.4-0.2,0.8-0.5,1.1c-0.3,0.3-0.7,0.5-1.1,0.5H4.8c-0.4,0-0.8-0.2-1.1-0.5c-0.3-0.3-0.5-0.7-0.5-1.1
		V1.6c0-0.4,0.2-0.8,0.5-1.1C4,0.2,4.4,0,4.8,0H14.4z M13.6,4V2.4h-8V4H13.6z M13.6,7.2V5.6h-8v1.6H13.6z M10.4,10.4V8.8H5.6v1.6
		H10.4z"/>
</g>
</svg>
