<svg version="1.1" id="custom-page" xmlns="http://www.w3.org/2000/svg" xmlns:xlink="http://www.w3.org/1999/xlink" x="0px"
	 y="0px" viewBox="0 0 16 16" style="enable-background:new 0 0 16 16;" xml:space="preserve">
<path d="M14.4,10.3l1.1-1.1l-1-1.1l-1.2,1.1C13,9.1,12.8,9,12.5,8.9V7.3H11v1.6c-0.3,0.1-0.5,0.2-0.8,0.3l-1-1.1L8,9.2l1.1,1.1
	c-0.1,0.2-0.2,0.5-0.3,0.8H7.2v1.5h1.6c0.1,0.3,0.2,0.5,0.3,0.8L8,14.5l1.1,1.1l1.1-1.1c0.2,0.1,0.5,0.2,0.8,0.3v1.6h1.5v-1.6
	c0.3-0.1,0.5-0.2,0.8-0.3l1.1,1.1l1.1-1.1l-1.1-1.1c0.1-0.2,0.2-0.5,0.3-0.8h1.5v-1.5h-1.6C14.5,10.8,14.5,10.5,14.4,10.3z
	 M11.8,13.3c-0.8,0-1.5-0.7-1.5-1.5c0-0.8,0.7-1.5,1.5-1.5s1.5,0.7,1.5,1.5C13.3,12.6,12.6,13.3,11.8,13.3z"/>
<rect x="2.8" y="2.9" width="2" height="2"/>
<rect x="2.8" y="5.8" width="2" height="2"/>
<rect x="2.8" y="8.6" width="2" height="2"/>
<path d="M6.4,11.6c0-1.4,0.5-2.6,1.4-3.6V1.8H14v4.9c0.8,0.4,1.5,0.9,2,1.6V0.1H7.8h-2H0v14h5.8H7C6.6,13.3,6.4,12.5,6.4,11.6z
	 M5.8,12.3H2V1.8h3.8V12.3z"/>
</svg>
