<svg version="1.1" id="daag-icon" xmlns="http://www.w3.org/2000/svg" xmlns:xlink="http://www.w3.org/1999/xlink" x="0px" y="0px"
	 viewBox="0 0 96 96" style="enable-background:new 0 0 96 96;" xml:space="preserve">
<style type="text/css">
	.semi-transparent{opacity:0.5;}
</style>
<path stroke="none" d="M2,3v90h90V3H2z M87,87H8V9h79V87z"/>
<rect stroke="none"  x="10.7" y="12" width="16" height="16"/>
<rect stroke="none"  x="30" y="12" width="16" height="16"/>
<rect stroke="none" x="49.3" y="12" width="16" height="16"/>
<rect stroke="none"  x="68.7" y="12" width="16" height="16"/>
<rect stroke="none" x="10.7" y="32" width="16" height="16"/>
<rect stroke="none"  x="30" y="32" width="16" height="16"/>
<rect stroke="none"  x="49.3" y="32" width="16" height="16"/>
<rect stroke="none"  x="68.7" y="32" width="16" height="16"/>
<rect stroke="none"  x="10.7" y="52" width="16" height="16"/>
<polygon stroke="none"  points="30,68 30,52 46,52 "/>
<polygon stroke="none"  class="semi-transparent" points="47,51 47,67 31,67 "/>
</svg>
