<svg version="1.1" id="dash-path" xmlns="http://www.w3.org/2000/svg" xmlns:xlink="http://www.w3.org/1999/xlink" x="0px" y="0px"
	 viewBox="0 0 418 415" style="enable-background:new 0 0 418 415;" xml:space="preserve">
<g>
	<path stroke="none" d="M210,407h0.3c-4,0-8.1-0.2-12-0.4l0.1-2c3.9,0.2,7.9,0.4,11.9,0.4H210V407z M222.5,406.5l-0.1-2c4-0.2,8-0.6,12-1.1l0.2,2
		C230.6,405.9,226.6,406.2,222.5,406.5z M186.2,405.4c-4-0.5-8-1.1-12-1.8l0.4-2c3.9,0.7,7.9,1.3,11.9,1.8L186.2,405.4z
		 M246.6,403.6l-0.4-2c3.9-0.7,7.9-1.6,11.8-2.5l0.5,1.9C254.6,402,250.6,402.8,246.6,403.6z M162.3,401.1c-3.9-1-7.8-2-11.7-3.2
		l0.6-1.9c3.8,1.2,7.7,2.3,11.6,3.2L162.3,401.1z M270.2,397.8l-0.6-1.9c3.8-1.2,7.6-2.5,11.4-3.9l0.7,1.9
		C277.9,395.2,274,396.6,270.2,397.8z M139.1,393.9c-3.8-1.4-7.5-3-11.2-4.7l0.8-1.8c3.6,1.6,7.4,3.2,11.1,4.6L139.1,393.9z
		 M292.9,389.2l-0.8-1.8c3.6-1.6,7.3-3.4,10.8-5.3l0.9,1.8C300.2,385.7,296.5,387.5,292.9,389.2z M117,383.9
		c-3.6-1.9-7.1-3.9-10.6-6l1-1.7c3.4,2.1,6.9,4.1,10.5,5.9L117,383.9z M314.3,377.9l-1-1.7c3.4-2.1,6.8-4.3,10.1-6.5l1.1,1.6
		C321.2,373.6,317.8,375.8,314.3,377.9z M96.2,371.3c-3.3-2.3-6.6-4.7-9.8-7.2l1.2-1.6c3.1,2.5,6.4,4.9,9.7,7.1L96.2,371.3z
		 M334.3,364.1l-1.2-1.6c3.1-2.5,6.2-5.1,9.2-7.7l1.3,1.5C340.6,359,337.4,361.6,334.3,364.1z M77.1,356.4c-3-2.7-6-5.5-8.8-8.3
		l1.4-1.4c2.8,2.8,5.8,5.6,8.8,8.2L77.1,356.4z M352.4,348l-1.4-1.4c2.8-2.8,5.6-5.8,8.2-8.8l1.5,1.3
		C358.1,342.2,355.3,345.1,352.4,348z M59.9,339.2c-2.7-3-5.3-6.2-7.8-9.3l1.6-1.2c2.5,3.1,5.1,6.2,7.7,9.2L59.9,339.2z
		 M368.5,329.8l-1.6-1.2c2.5-3.1,4.9-6.4,7.1-9.7l1.6,1.1C373.4,323.4,371,326.7,368.5,329.8z M44.9,320.1
		c-2.3-3.3-4.5-6.7-6.6-10.2l1.7-1c2.1,3.4,4.3,6.8,6.5,10.1L44.9,320.1z M382.3,309.9l-1.7-1c2.1-3.4,4.1-6.9,5.9-10.5l1.8,0.9
		C386.4,302.9,384.4,306.4,382.3,309.9z M32.4,299.4c-1.9-3.6-3.7-7.2-5.3-10.9l1.8-0.8c1.6,3.6,3.4,7.3,5.3,10.8L32.4,299.4z
		 M393.6,288.4l-1.8-0.8c1.6-3.6,3.2-7.4,4.6-11.1l1.9,0.7C396.9,280.9,395.3,284.7,393.6,288.4z M22.4,277.3
		c-1.4-3.8-2.8-7.6-4-11.5l1.9-0.6c1.2,3.8,2.5,7.6,3.9,11.4L22.4,277.3z M402.3,265.6l-1.9-0.6c1.2-3.8,2.3-7.7,3.2-11.6l1.9,0.5
		C404.6,257.8,403.5,261.8,402.3,265.6z M15.1,254.1c-1-3.9-1.8-7.9-2.5-11.9l2-0.4c0.7,3.9,1.6,7.9,2.5,11.7L15.1,254.1z
		 M408,242.1l-2-0.4c0.7-3.9,1.3-7.9,1.8-11.9l2,0.2C409.4,234.1,408.8,238.1,408,242.1z M10.8,230.3c-0.5-4-0.9-8.1-1.1-12.1l2-0.1
		c0.2,4,0.6,8,1.1,12L10.8,230.3z M410.8,218l-2.1-0.1c0.2-4,0.3-8,0.3-12V205h2v0.8C411,209.9,411,214,410.8,218z M11,206H9v-0.2
		c0-4,0.3-8,0.5-11.9l1.9,0.1c-0.2,3.9-0.4,7.9-0.4,11.8V206z M408.9,193.4c-0.2-4-0.6-8-1.1-12l2-0.2c0.5,4,0.9,8.1,1.1,12.1
		L408.9,193.4z M12.7,182.1l-2-0.2c0.5-4,1.1-8,1.8-12l2,0.4C13.8,174.1,13.2,178.1,12.7,182.1z M406,169.6
		c-0.7-3.9-1.6-7.9-2.5-11.7l1.9-0.5c1,3.9,1.8,7.9,2.6,11.9L406,169.6z M17,158.4L15,158c1-3.9,2-7.8,3.2-11.7l1.9,0.6
		C19,150.7,17.9,154.6,17,158.4z M400.2,146.3c-1.2-3.8-2.5-7.6-3.9-11.4l1.9-0.7c1.4,3.8,2.8,7.6,4,11.5L400.2,146.3z M24.1,135.5
		l-1.9-0.7c1.4-3.8,3-7.5,4.6-11.2l1.8,0.8C27.1,128,25.5,131.7,24.1,135.5z M391.7,123.8c-1.6-3.6-3.4-7.3-5.3-10.8l1.8-0.9
		c1.9,3.6,3.7,7.2,5.3,10.9L391.7,123.8z M34,113.5l-1.8-0.9c1.9-3.6,3.9-7.1,6-10.6l1.7,1C37.8,106.5,35.8,110,34,113.5z
		 M380.5,102.6c-2.1-3.4-4.3-6.8-6.5-10.1l1.6-1.1c2.3,3.3,4.5,6.7,6.6,10.2L380.5,102.6z M46.4,93l-1.6-1.1
		c2.3-3.3,4.7-6.6,7.2-9.8l1.6,1.2C51.1,86.4,48.7,89.7,46.4,93z M366.8,82.9c-2.5-3.1-5.1-6.2-7.7-9.2l1.5-1.3
		c2.7,3,5.3,6.1,7.8,9.3L366.8,82.9z M61.2,74l-1.5-1.3c2.7-3,5.5-6,8.3-8.8l1.4,1.4C66.6,68.1,63.9,71,61.2,74z M350.8,64.9
		c-2.8-2.8-5.8-5.6-8.8-8.2l1.3-1.5c3,2.7,6,5.5,8.9,8.3L350.8,64.9z M78.2,57l-1.3-1.5c3-2.7,6.1-5.3,9.3-7.8l1.2,1.6
		C84.3,51.8,81.2,54.4,78.2,57z M332.8,49c-3.1-2.5-6.4-4.9-9.7-7.1l1.1-1.6c3.3,2.3,6.6,4.7,9.8,7.2L332.8,49z M97.1,42.2l-1.1-1.6
		c3.3-2.3,6.7-4.5,10.2-6.6l1,1.7C103.7,37.7,100.4,39.9,97.1,42.2z M313,35.4c-3.4-2.1-6.9-4.1-10.5-5.9l0.9-1.8
		c3.6,1.9,7.1,3.9,10.6,6L313,35.4z M117.6,29.7l-0.9-1.8c3.6-1.9,7.2-3.7,10.9-5.3l0.8,1.8C124.7,26.1,121.1,27.9,117.6,29.7z
		 M291.7,24.2c-3.6-1.6-7.4-3.2-11.1-4.6l0.7-1.9c3.8,1.4,7.6,3,11.2,4.6L291.7,24.2z M139.5,19.8l-0.7-1.9c3.8-1.4,7.6-2.8,11.5-4
		l0.6,1.9C147,17.1,143.2,18.4,139.5,19.8z M269.2,15.7c-3.8-1.2-7.7-2.3-11.6-3.2l0.5-1.9c3.9,1,7.8,2,11.7,3.2L269.2,15.7z
		 M162.4,12.7l-0.5-1.9c3.9-1,7.9-1.8,11.9-2.6l0.4,2C170.2,10.9,166.2,11.7,162.4,12.7z M245.9,10c-3.9-0.7-7.9-1.3-11.9-1.8l0.2-2
		c4,0.5,8,1.1,12,1.8L245.9,10z M186,8.3l-0.2-2c4-0.5,8.1-0.9,12.1-1.1l0.1,2C194,7.5,190,7.8,186,8.3z M222,7.3
		C218.1,7,214.2,7,210.3,7H210V5h0.3c3.9,0,7.9,0.1,11.8,0.3L222,7.3z"/>
</g>
</svg>
