<svg version="1.1" id="database" xmlns="http://www.w3.org/2000/svg" xmlns:xlink="http://www.w3.org/1999/xlink" x="0px" y="0px"
	 viewBox="0 0 24 24" style="enable-background:new 0 0 24 24;" xml:space="preserve">
<g id="XMLID_1477_">
	<path d="M12,23c-5.5,0-9.8-2.2-9.8-4.9V5.9C2.2,3.2,6.5,1,12,1c5.5,0,9.8,2.2,9.8,4.9v12.1C21.8,20.8,17.5,23,12,23z M4,16.9v1.2
		c0,1.3,3.1,3.2,8,3.2c4.9,0,8-1.9,8-3.2v-1.2c-1.8,1.3-4.8,2.1-8,2.1S5.8,18.2,4,16.9z M4,12.8V14c0,1.3,3.1,3.2,8,3.2
		c4.9,0,8-1.9,8-3.2v-1.2c-1.8,1.3-4.8,2.1-8,2.1C8.8,14.9,5.8,14.1,4,12.8z M3.2,14.8L3.2,14.8C3.2,14.8,3.2,14.8,3.2,14.8
		L3.2,14.8z M20.8,14.8C20.8,14.8,20.8,14.8,20.8,14.8L20.8,14.8z M4,8.8V10c0,1.3,3.1,3.2,8,3.2c4.9,0,8-1.9,8-3.2V8.8
		c-1.8,1.3-4.8,2.1-8,2.1S5.8,10.1,4,8.8z M3.2,10.7L3.2,10.7C3.2,10.7,3.2,10.7,3.2,10.7L3.2,10.7z M20.8,10.7
		C20.8,10.7,20.8,10.7,20.8,10.7L20.8,10.7z M12,2.8c-4.9,0-8,1.9-8,3.2c0,1.3,3.1,3.2,8,3.2c4.9,0,8-1.9,8-3.2
		C20,4.6,16.9,2.8,12,2.8z M3.2,6.7L3.2,6.7C3.2,6.7,3.2,6.7,3.2,6.7L3.2,6.7z M20.8,6.7C20.8,6.7,20.8,6.7,20.8,6.7L20.8,6.7z"/>
</g>
</svg>
