<svg id="delivery-eta-icon" xmlns="http://www.w3.org/2000/svg" viewBox="0 0 58.35 58.35"><title>icon-delivery-eta</title><path class="cls-1" d="M29.18,58.35A29.17,29.17,0,1,1,58.35,29.17,29.21,29.21,0,0,1,29.18,58.35ZM29.18,6A23.17,23.17,0,1,0,52.35,29.17,23.2,23.2,0,0,0,29.18,6Z" transform="translate(0 0)"/><rect x="24.45" y="11.89" width="5.89" height="21.43" rx="2.95" ry="2.95"/><path class="cls-1" d="M27.39,33.57a3.2,3.2,0,0,1-3.2-3.2V14.83a3.2,3.2,0,0,1,6.39,0V30.37A3.2,3.2,0,0,1,27.39,33.57Zm0-21.43a2.7,2.7,0,0,0-2.7,2.7V30.37a2.7,2.7,0,0,0,5.39,0V14.83A2.7,2.7,0,0,0,27.39,12.14Z" transform="translate(0 0)"/><rect x="30.9" y="22.83" width="5.89" height="15" rx="2.95" ry="2.95" transform="translate(64.18 -3.52) rotate(90)"/><path class="cls-1" d="M38.4,33.52H29.3a3.2,3.2,0,1,1,0-6.39H38.4a3.2,3.2,0,0,1,0,6.39ZM29.3,27.63a2.7,2.7,0,1,0,0,5.39H38.4a2.7,2.7,0,0,0,0-5.39Z" transform="translate(0 0)"/></svg>