<svg version="1.1" id="dep-caution" xmlns="http://www.w3.org/2000/svg" xmlns:xlink="http://www.w3.org/1999/xlink" x="0px" y="0px"
	 viewBox="0 0 16 16" style="enable-background:new 0 0 16 16;" xml:space="preserve">

<path  stroke="none" id="XMLID_1_" fill="#EBAB00" d="M8.2,4.2c0.8-1.4,2.2-1.4,3.1,0l3.7,6.2c0.8,1.4,0.2,2.6-1.5,2.6H6c-1.6,0-2.3-1.2-1.5-2.6
	L8.2,4.2z"/>
<path  stroke="none" id="XMLID_4_" d="M7.4,10.8l2.6-2.2c0.4-0.3,0.4-0.9,0-1.3L7.4,5.2C6.9,4.8,6.4,5,6.4,5.6v1.5H2.7C2.2,7.1,1.7,7.5,1.7,8v0.2
	c0,0.4,0.6,0.7,0.9,0.7h3.8v1.5C6.4,11,6.9,11.2,7.4,10.8z"/>
</svg>
