<svg version="1.1" id="dependency-blocked-icon" xmlns="http://www.w3.org/2000/svg" xmlns:xlink="http://www.w3.org/1999/xlink" x="0px" y="0px"
	 viewBox="0 0 256 256" style="enable-background:new 0 0 256 256;" xml:space="preserve">
<g id="dependency-icon">
	<path d="M87.6,187.4h80.1c-6.9-1.5-13.4-3.8-19.7-6.9c-1.5-0.8-3-1.5-4.4-2.3h-42.7c-4.1,3-8.3,5.6-12.9,7.6
		C87.9,186.3,87.8,186.8,87.6,187.4z"/>
	<path d="M119.1,145.7c-9.1-7-19.1-13.3-32.1-16.5v-8.9c0-3.8-3.1-6.8-6.8-6.8H57.4c-3.8,0-6.8,3.1-6.8,6.8v22.8
		c0,3.8,3.1,6.8,6.8,6.8h22.8c3.8,0,6.8-3.1,6.8-6.8v-4.3c9.5,2.7,17.2,7.4,24.5,12.8C113.9,149.6,116.4,147.7,119.1,145.7z"/>
	<path d="M171.1,137.5c-0.1-0.4-0.2-0.9-0.3-1.3c-4.8-1.3-9.4-3.1-13.9-5.4c-24.6,6.1-39.2,18.5-51.7,29c-6.4,5.4-12,10.2-18.2,13.6
		v-2c0-3.8-3.1-6.8-6.8-6.8H57.4c-3.8,0-6.8,3.1-6.8,6.8v22.8c0,3.8,3.1,6.8,6.8,6.8h22.8c3.8,0,6.8-3.1,6.8-6.8v-10.6
		c9-3.9,16.5-10.2,24.2-16.8C125.4,154.8,141.1,141.5,171.1,137.5z"/>
	<path d="M202.4,113.5h-22.8c-3.8,0-6.8,3.1-6.8,6.8v4.4c-12.9-3.7-22.5-11.4-33.2-20c-13.5-10.9-28.5-23-52.6-27.2v-8.3
		c0-3.8-3.1-6.8-6.8-6.8H57.4c-3.8,0-6.8,3.1-6.8,6.8V92c0,3.8,3.1,6.8,6.8,6.8h22.8c3.8,0,6.8-3.1,6.8-6.8v-5.1
		c20.8,4,34,14.6,46.8,25c7.4,6,15.1,12.1,23.9,16.7c4.9,2.5,9.9,4.4,15.1,5.7v8.8c0,3.8,3.1,6.8,6.8,6.8h22.8
		c3.8,0,6.8-3.1,6.8-6.8v-22.8C209.2,116.6,206.2,113.5,202.4,113.5z"/>
	<path d="M202.4,164.5h-22.8c-3.8,0-6.8,3.1-6.8,6.8v5.3c-18.5-3.4-30.5-12.2-42.4-21.9c-2.7,1.8-5.3,3.7-7.8,5.6
		c7.9,6.4,16.1,13,26.4,18c7.4,3.7,15.3,6.2,23.8,7.6v8.1c0,3.8,3.1,6.8,6.8,6.8h22.8c3.8,0,6.8-3.1,6.8-6.8v-22.8
		C209.2,167.6,206.2,164.5,202.4,164.5z"/>
	<path d="M202.4,62.4h-22.8c-3.8,0-6.8,3.1-6.8,6.8V76H91.3c9.5,2.1,17.6,5.3,24.8,9.2h56.8V92c0,3.8,3.1,6.8,6.8,6.8h22.8
		c3.8,0,6.8-3.1,6.8-6.8V69.2C209.2,65.5,206.2,62.4,202.4,62.4z"/>
</g>
<g id="just-say-no">
	<path d="M220.2,39.2C196.5,14.6,164.6,0.7,130.4,0c-34.2-0.7-66.6,12-91.2,35.8C14.6,59.5,0.7,91.4,0,125.6s12,66.6,35.8,91.2
		c23.7,24.6,55.6,38.6,89.8,39.2c0.8,0,1.7,0,2.5,0c33.3,0,64.7-12.6,88.7-35.8c24.6-23.7,38.6-55.6,39.2-89.8
		C256.6,96.3,243.9,63.9,220.2,39.2z M9.1,125.7C10.4,60.9,63.5,9.1,128,9.1c0.8,0,1.5,0,2.3,0c31.8,0.6,61.4,13.5,83.4,36.4
		c1.4,1.5,2.8,3,4.1,4.5L34.3,201C18,180.3,8.6,154,9.1,125.7z M246.9,130.3c-1.2,64.8-54.3,116.6-118.8,116.6c-0.8,0-1.5,0-2.3,0
		c-34-0.6-64.4-15.6-85.6-38.9L223.5,57.1C239.2,78.1,247.4,103.6,246.9,130.3z"/>
</g>
</svg>
