<svg version="1.1" id="devops" xmlns="http://www.w3.org/2000/svg" xmlns:xlink="http://www.w3.org/1999/xlink" x="0px" y="0px"
	 viewBox="0 0 24 24" style="enable-background:new 0 0 24 24;" xml:space="preserve">
<path d="M18.5,6.5c-1.2,0-2.3,0.4-3.3,1.1L8,14.7c-0.7,0.7-1.6,1-2.6,1c-2.1,0-3.7-1.7-3.7-3.7s1.7-3.7,3.7-3.7
	c0.9,0,1.7,0.3,2.4,0.9l0.2,0.2H6.4v1.7H11V6.4H9.3v1.7L9,7.8l0,0C8,7,6.8,6.5,5.5,6.5C2.5,6.5,0,9,0,12c0,3,2.5,5.5,5.5,5.5
	c1.3,0,2.5-0.4,3.5-1.2l0,0l7.1-7l0,0c0.7-0.6,1.6-0.9,2.5-0.9c2.1,0,3.7,1.7,3.7,3.7s-1.7,3.7-3.7,3.7c-1,0-1.9-0.4-2.6-1l-2-2
	l-1.2,1.2l2.4,2.4l0,0c1,0.8,2.2,1.2,3.4,1.2c3,0,5.5-2.5,5.5-5.5C24,9,21.5,6.5,18.5,6.5z"/>
</svg>
