<?xml version="1.0" encoding="utf-8"?>
<!-- Generator: Adobe Illustrator 22.0.0, SVG Export Plug-In . SVG Version: 6.00 Build 0)  -->
<svg version="1.1" id="Layer_1" xmlns="http://www.w3.org/2000/svg" xmlns:xlink="http://www.w3.org/1999/xlink" x="0px" y="0px"
	 viewBox="0 0 24 24" style="enable-background:new 0 0 24 24;" xml:space="preserve">
<style type="text/css">
	.st0{fill:#BA9C5D;}
</style>
<g>
	<polygon class="st0" points="10.8,1 10.8,12.5 8.6,10.3 7.2,11.7 11.9,16.4 16.6,11.7 15.1,10.3 12.8,12.6 12.8,1 	"/>
	<path class="st0" d="M1.1,12.1C1.1,18.1,6,23,12,23c6,0,10.9-4.9,10.9-10.9c0-5.4-3.9-9.8-9-10.7v2c4,0.9,7,4.4,7,8.7
		c0,4.9-4,8.9-8.9,8.9c-4.9,0-8.9-4-8.9-8.9C3.1,8,6,4.5,9.8,3.5V1.5C4.9,2.5,1.1,6.9,1.1,12.1z"/>
</g>
</svg>
