<svg version="1.1" id="environment" xmlns="http://www.w3.org/2000/svg" xmlns:xlink="http://www.w3.org/1999/xlink" x="0px" y="0px"
	 viewBox="0 0 24 24" style="enable-background:new 0 0 24 24;" xml:space="preserve">
<path d="M21.2,2.4H6.5v1.8h14.7v8.3H2.8V4.2h3.6V2.4H2.8C1.8,2.4,1,3.2,1,4.2v11.9c0,1,0.8,1.8,1.8,1.8h6.4v1.8H8.3v1.8h7.3v-1.8
	h-0.9V18h6.4c1,0,1.8-0.8,1.8-1.8V4.2C23,3.2,22.2,2.4,21.2,2.4z M12.9,19.8h-1.8V18h1.8V19.8z M2.8,16.1v-1.8h4.6v0h7.3v0h6.4v1.8
	H2.8z"/>
<path d="M13.4,7.3l0.7-0.7L13.5,6l-0.7,0.7c-0.1-0.1-0.3-0.1-0.5-0.2v-1h-0.9v1c-0.2,0-0.3,0.1-0.5,0.2L10.3,6L9.7,6.7l0.7,0.7
	c-0.1,0.1-0.1,0.3-0.2,0.5h-1v0.9h1c0,0.2,0.1,0.3,0.2,0.5L9.7,9.8l0.6,0.6L11,9.8c0.1,0.1,0.3,0.1,0.5,0.2v1h0.9v-1
	c0.2,0,0.3-0.1,0.5-0.2l0.7,0.7l0.6-0.6l-0.7-0.7c0.1-0.1,0.1-0.3,0.2-0.5h1V7.8h-1C13.6,7.6,13.5,7.5,13.4,7.3z M11.9,9.1
	c-0.5,0-0.9-0.4-0.9-0.9c0-0.5,0.4-0.9,0.9-0.9c0.5,0,0.9,0.4,0.9,0.9C12.8,8.7,12.4,9.1,11.9,9.1z"/>
</svg>
