
<svg id="epic-icon" version="1.1" class="epic-icon" xmlns="http://www.w3.org/2000/svg" xmlns:xlink="http://www.w3.org/1999/xlink" x="0px" y="0px"
	 viewBox="0 0 16 16" enable-background="new 0 0 16 16" xml:space="preserve">
<polygon id="flag" fill="#00D8DD" stroke="none" points="6.4,5.5 8.7,7.6 8.7,0 4,0 4,7.6 "/>
<path id="pages" fill="#CDC4CA" stroke="none" d="M2,12.2v1.5c0.7,1.5,1.7,1,1.7,1H16v-4H3.7C3.7,10.7,2.2,10.1,2,12.2z"/>
<path id="cover" fill="currentColor" d="M9.4,0H8.7v7.6L6.4,5.5L4,7.6V0H3.8H2c0,0-2,0.1-2,1.7c0,1.4,0,9.9,0,11.3c0,0,0,0,0,0.1c0,0,0,0,0,0.1
	c0,0.1,0,0.1,0,0.1l0,0C0.1,15.7,2.1,16,2.1,16h0.3H16v-1.3h-0.1H3.7c0,0-1.3,0.4-1.6-1.1C2,13.3,2,13.1,2,12.9c0-0.3,0-0.6,0.1-0.9
	c0.3-1.5,1.6-1.3,1.6-1.3h12.3H16V10V0H9.4z"/>
</svg>
