<svg version="1.1" id="example" xmlns="http://www.w3.org/2000/svg" xmlns:xlink="http://www.w3.org/1999/xlink" x="0px" y="0px"
	 viewBox="0 0 24 24" style="enable-background:new 0 0 24 24;" xml:space="preserve">
<path d="M1,20c0,1.7,1.3,3,3,3h16c1.7,0,3-1.3,3-3V4c0-1.7-1.3-3-3-3H4C2.3,1,1,2.3,1,4V20z M3,4c0-0.6,0.4-1,1-1h16
	c0.6,0,1,0.4,1,1v16c0,0.6-0.4,1-1,1H4c-0.6,0-1-0.4-1-1V4z"/>
<rect x="4.3" y="7.3" width="15.3" height="2"/>
<rect x="4.3" y="15.1" width="15.3" height="2"/>
<rect x="8.2" y="11.2" transform="matrix(-1.836970e-16 1 -1 -1.836970e-16 28.041 -3.653)" width="15.3" height="2"/>
<rect x="0.4" y="11.2" transform="matrix(-1.836970e-16 1 -1 -1.836970e-16 20.1979 4.19)" width="15.3" height="2"/>
</svg>
