<svg version="1.1" id="expression-icon" xmlns="http://www.w3.org/2000/svg" xmlns:xlink="http://www.w3.org/1999/xlink" x="0px" y="0px"
	 viewBox="0 0 16 16" enable-background="new 0 0 16 16" xml:space="preserve">
<path stroke="none" id="XMLID_9_" d="M8,0C3.6,0,0,3.6,0,8s3.6,8,8,8s8-3.6,8-8S12.4,0,8,0z M8.1,13c-0.7,0-1.4-0.6-1.4-1.4c0-0.7,0.6-1.4,1.4-1.4
	c0.7,0,1.4,0.6,1.4,1.4C9.4,12.4,8.8,13,8.1,13z M9.8,7.6C9.3,7.9,8.9,8.2,8.9,8.6c0,0.2,0.1,0.5,0.2,0.6L7.2,9.7
	C6.9,9.4,6.7,8.9,6.7,8.4c0-1,0.7-1.5,1.2-1.9c0.4-0.2,0.7-0.5,0.7-0.8c0-0.3-0.2-0.6-0.9-0.6C7.2,5.2,6.7,5.5,6.2,6L4.9,4.4
	C5.6,3.5,6.9,3,8,3c1.9,0,3.1,0.9,3.1,2.3C11.1,6.5,10.4,7.1,9.8,7.6z"/>
</svg>
