<svg version="1.1" id="external-ref" xmlns="http://www.w3.org/2000/svg" xmlns:xlink="http://www.w3.org/1999/xlink" x="0px" y="0px"
	 viewBox="0 0 20 20" style="enable-background:new 0 0 20 20;" xml:space="preserve">
<path stroke="none" id="XMLID_4_" d="M19,11.2l-0.1-7.8C19,2.1,18,1.1,16.8,1.3L8.9,1C7.6,1.2,7.1,3.2,8.1,4.2l2.5,2.5l-4.1,4.1
	c-0.7,0.7-0.9,2.2-0.2,2.9l0.4,0.4c0.7,0.7,2.1,0.2,2.7-0.4l4.1-4.1l2.5,2.5C17,13.1,18.8,12.6,19,11.2z"/>
<path stroke="none" d="M17.1,16.1H3.5V2.6c0-0.7-0.6-1.3-1.3-1.3S0.9,1.8,0.9,2.6v14.9c0,0.7,0.6,1.3,1.3,1.3h14.9c0.7,0,1.3-0.6,1.3-1.3
	S17.8,16.1,17.1,16.1z"/>
</svg>
