<svg version="1.1" id="feature-icon" xmlns="http://www.w3.org/2000/svg" xmlns:xlink="http://www.w3.org/1999/xlink" x="0px" y="0px"
	 viewBox="0 0 16 16" style="enable-background:new 0 0 16 16;" xml:space="preserve">
<path d="M15.6,15H8.2H2.7c-0.9,0-1.7-0.8-1.7-1.7c0-0.9,0.8-1.7,1.7-1.7h12.9c0.2,0,0.3-0.2,0.3-0.4v-11c0-0.3-0.1-0.1-0.4-0.1H7.7
	v8L5.7,6.1L3.8,8V0H1.8c0,0-0.1,0-0.1,0H1.7C0.7,0,0,0.4,0,1.3v12.5h0c0,0,0,0.2,0,0.2c0,1,0.8,2,1.9,2h1.2h5.1h7.4
	c0.2,0,0.4-0.3,0.4-0.5C16,15.3,15.8,15,15.6,15z"/>
</svg>
