<svg version="1.1" id="filter" xmlns="http://www.w3.org/2000/svg" xmlns:xlink="http://www.w3.org/1999/xlink" x="0px" y="0px"
	 viewBox="0 0 24 24" style="enable-background:new 0 0 24 24;" xml:space="preserve">
<path d="M21.9,1H2.1C1.5,1,1.2,1.4,1.3,2l1.2,5C2.6,7.5,3,8.3,3.4,8.6L7.8,12c0.4,0.4,0.8,1.1,0.8,1.7L9.4,22c0.1,0.5,0.5,1,1.1,1h3
	c0.5,0,1-0.4,1.1-1l0.8-8.3c0.1-0.5,0.4-1.3,0.8-1.7l4.4-3.3C21,8.3,21.4,7.5,21.5,7l1.2-5C22.8,1.4,22.5,1,21.9,1z M4.4,2.8h15.2
	c0.5,0,0.9,0.4,0.8,1l-0.2,0.8H3.8L3.6,3.8C3.5,3.3,3.8,2.8,4.4,2.8z M14.4,11.1c-0.4,0.4-0.8,1.1-0.8,1.7l-0.7,7.4
	c0,0.5-0.4,0.9-0.9,1c-0.5-0.1-0.9-0.5-0.9-1l-0.7-7.4c-0.1-0.5-0.4-1.3-0.8-1.7L5.1,7.7C4.8,7.4,4.5,7,4.4,6.6h15.3
	c-0.2,0.4-0.5,0.9-0.7,1.1L14.4,11.1z"/>
</svg>
