<svg version="1.1" id="folder" xmlns="http://www.w3.org/2000/svg" xmlns:xlink="http://www.w3.org/1999/xlink" x="0px" y="0px"
	 viewBox="0 0 48 48" style="enable-background:new 0 0 48 48;" xml:space="preserve">
<path id="XMLID_935_" stroke="none" d="M44,9H18V7c0-2.2-1.8-4-4-4H4C1.8,3,0,4.8,0,7v6v7v21c0,2.2,1.8,4,4,4h40c2.2,0,4-1.8,4-4V13
	C48,10.8,46.2,9,44,9z M2,7c0-1.1,0.9-2,2-2h10c1.1,0,2,0.9,2,2v2v2h2h26c1.1,0,2,0.9,2,2v2H2v-2V7z M44,43H4c-1.1,0-2-0.9-2-2V20
	v-3h44v24C46,42.1,45.1,43,44,43z"/>
</svg>
