<svg version="1.1" id="gauge" xmlns="http://www.w3.org/2000/svg" xmlns:xlink="http://www.w3.org/1999/xlink" x="0px" y="0px"
	 viewBox="0 0 24 24" style="enable-background:new 0 0 24 24;" xml:space="preserve">
<g>
	<path d="M4.1,21.2l0.3,0.3h15.1l0.3-0.3c2-2.1,3.1-4.8,3.1-7.7c0-6.1-4.9-11-11-11c-6.1,0-11,4.9-11,11C1,16.4,2.1,19.1,4.1,21.2z
		 M12,4.5c5,0,9,4,9,9c0,2.2-0.8,4.3-2.3,6H5.3c-1.5-1.6-2.3-3.8-2.3-6C3,8.5,7,4.5,12,4.5z"/>
	<path d="M12,18.5c1.1,0,2-0.9,2-2c0-0.2,0-0.4-0.1-0.6l3.2-3.4l-1.5-1.4l-3.2,3.4c-0.1,0-0.3-0.1-0.4-0.1c-1.1,0-2,0.9-2,2
		C10,17.6,10.9,18.5,12,18.5z"/>
	<path d="M12,7.4c0.3,0,0.5-0.1,0.7-0.3c0.2-0.2,0.3-0.5,0.3-0.7c0-0.3-0.1-0.5-0.3-0.7c-0.4-0.4-1-0.4-1.4,0
		C11.2,5.9,11,6.2,11,6.4c0,0.3,0.1,0.5,0.3,0.7C11.5,7.3,11.8,7.4,12,7.4z"/>
	<path d="M8.5,8.4c0.3,0,0.5-0.1,0.7-0.3c0.2-0.2,0.3-0.5,0.3-0.7c0-0.3-0.1-0.5-0.3-0.7c-0.4-0.4-1.1-0.4-1.4,0
		C7.6,6.8,7.5,7.1,7.5,7.4c0,0.3,0.1,0.5,0.3,0.7C8,8.3,8.3,8.4,8.5,8.4z"/>
	<path d="M6,10.9c0.3,0,0.5-0.1,0.7-0.3C6.9,10.5,7,10.2,7,9.9c0-0.3-0.1-0.5-0.3-0.7c-0.4-0.4-1-0.4-1.4,0C5.1,9.4,5,9.7,5,9.9
		c0,0.3,0.1,0.5,0.3,0.7C5.4,10.8,5.7,10.9,6,10.9z"/>
	<path d="M4.3,14.2c0.2,0.2,0.5,0.3,0.7,0.3c0.3,0,0.5-0.1,0.7-0.3C5.9,14,6,13.7,6,13.5c0-0.3-0.1-0.5-0.3-0.7
		c-0.4-0.4-1-0.4-1.4,0C4.1,12.9,4,13.2,4,13.5C4,13.7,4.1,14,4.3,14.2z"/>
	<path d="M5.2,16.3C5.1,16.5,5,16.7,5,17c0,0.3,0.1,0.5,0.3,0.7C5.4,17.9,5.7,18,6,18c0.3,0,0.5-0.1,0.7-0.3C6.9,17.5,7,17.2,7,17
		c0-0.3-0.1-0.5-0.3-0.7C6.3,15.9,5.6,15.9,5.2,16.3z"/>
	<path d="M17.4,16.3c-0.2,0.2-0.3,0.4-0.3,0.7c0,0.3,0.1,0.5,0.3,0.7c0.2,0.2,0.5,0.3,0.7,0.3c0.3,0,0.5-0.1,0.7-0.3
		c0.2-0.2,0.3-0.4,0.3-0.7c0-0.3-0.1-0.5-0.3-0.7C18.5,15.9,17.8,15.9,17.4,16.3z"/>
	<path d="M18.4,12.7c-0.2,0.2-0.3,0.5-0.3,0.7c0,0.3,0.1,0.5,0.3,0.7c0.2,0.2,0.4,0.3,0.7,0.3c0.3,0,0.5-0.1,0.7-0.3
		c0.2-0.2,0.3-0.4,0.3-0.7c0-0.3-0.1-0.5-0.3-0.7C19.4,12.4,18.7,12.4,18.4,12.7z"/>
	<path d="M18.1,10.9c0.3,0,0.5-0.1,0.7-0.3c0.2-0.2,0.3-0.5,0.3-0.7c0-0.3-0.1-0.5-0.3-0.7c-0.4-0.4-1.1-0.4-1.4,0
		c-0.2,0.2-0.3,0.5-0.3,0.7c0,0.3,0.1,0.5,0.3,0.7C17.6,10.8,17.9,10.9,18.1,10.9z"/>
	<path d="M15.6,8.4c0.3,0,0.5-0.1,0.7-0.3c0.2-0.2,0.3-0.5,0.3-0.7c0-0.3-0.1-0.5-0.3-0.7c-0.4-0.4-1-0.4-1.4,0
		c-0.2,0.2-0.3,0.5-0.3,0.7c0,0.3,0.1,0.5,0.3,0.7C15,8.3,15.3,8.4,15.6,8.4z"/>
</g>
</svg>
