<?xml version="1.0" encoding="utf-8"?>
<!-- Generator: Adobe Illustrator 21.1.0, SVG Export Plug-In . SVG Version: 6.00 Build 0)  -->
<svg version="1.1" id="Layer_1" xmlns="http://www.w3.org/2000/svg" xmlns:xlink="http://www.w3.org/1999/xlink" x="0px" y="0px"
	 viewBox="0 0 24 24" style="enable-background:new 0 0 24 24;" xml:space="preserve">
<g>
	<path d="M12,8c-2.2,0-4,1.8-4,4c0,2.2,1.8,4,4,4c2.2,0,4-1.8,4-4C16,9.8,14.2,8,12,8z M12,14c-1.1,0-2-0.9-2-2c0-1.1,0.9-2,2-2
		c1.1,0,2,0.9,2,2C14,13.1,13.1,14,12,14z"/>
	<path d="M21.1,7.8l1.4-2.3l-3.9-3.9l-2.3,1.4c-0.3-0.1-0.5-0.2-0.8-0.3L14.8,0H9.2L8.6,2.6C8.3,2.7,8,2.8,7.8,2.9L5.5,1.5L1.5,5.5
		l1.4,2.3C2.8,8,2.7,8.3,2.6,8.6L0,9.2v5.6l2.6,0.7c0.1,0.3,0.2,0.5,0.3,0.8l-1.4,2.3l3.9,3.9l2.3-1.4c0.3,0.1,0.5,0.2,0.8,0.3
		L9.2,24h5.6l0.7-2.6c0.3-0.1,0.5-0.2,0.8-0.3l2.3,1.4l3.9-3.9l-1.4-2.3c0.1-0.3,0.2-0.5,0.3-0.8l2.6-0.7V9.2l-2.6-0.7
		C21.3,8.3,21.2,8,21.1,7.8z M22,13.2l-2.2,0.5l-0.2,0.5c-0.2,0.5-0.4,1-0.6,1.5l-0.3,0.5l1.2,1.9l-1.7,1.7l-1.9-1.2L15.8,19
		c-0.5,0.2-1,0.5-1.5,0.6l-0.5,0.2L13.2,22h-2.4l-0.5-2.2l-0.5-0.2c-0.5-0.2-1-0.4-1.5-0.6l-0.5-0.3l-1.9,1.2l-1.7-1.7l1.2-1.9
		L5,15.8c-0.3-0.5-0.5-1-0.6-1.5l-0.2-0.5L2,13.2v-2.4l2.2-0.5l0.2-0.5c0.2-0.5,0.4-1,0.6-1.5l0.3-0.5L4.1,5.8l1.7-1.7l1.9,1.2
		L8.2,5c0.5-0.3,1-0.5,1.5-0.6l0.5-0.2L10.8,2h2.4l0.5,2.2l0.5,0.2c0.5,0.2,1,0.4,1.5,0.6l0.5,0.3l1.9-1.2l1.7,1.7l-1.2,1.9l0.3,0.5
		c0.2,0.5,0.5,1,0.6,1.5l0.2,0.5l2.2,0.5V13.2z"/>
</g>
</svg>
