<svg version="1.1" id="global-registry" xmlns="http://www.w3.org/2000/svg" xmlns:xlink="http://www.w3.org/1999/xlink" x="0px" y="0px"
	 viewBox="0 0 24 24" style="enable-background:new 0 0 24 24;" xml:space="preserve">
<g>
	<path d="M7.4,19.3H2.8V7.4h4.6V2.8h6.4v3.7h1.8V1H5.2L1,5.2v16h6.4V19.3z M5.6,3.2v2.4H3.2L5.6,3.2z"/>
	<path d="M15.7,8.3c-4,0-7.3,3.3-7.3,7.3s3.3,7.3,7.3,7.3s7.3-3.3,7.3-7.3S19.7,8.3,15.7,8.3z M21.1,14.8h-1.3
		c-0.1-1.3-0.3-2.5-0.7-3.4C20.1,12.2,20.8,13.4,21.1,14.8z M14.8,14.8h-1.3c0.1-1.9,0.7-3.3,1.3-4V14.8z M14.8,16.6v4
		c-0.6-0.7-1.2-2.1-1.3-4H14.8z M16.6,16.6h1.3c-0.1,1.9-0.7,3.3-1.3,4V16.6z M16.6,14.8v-4c0.6,0.7,1.2,2.1,1.3,4H16.6z M12.3,11.3
		c-0.4,1-0.6,2.1-0.7,3.4h-1.3C10.5,13.4,11.2,12.2,12.3,11.3z M10.2,16.6h1.3c0.1,1.3,0.3,2.5,0.7,3.4C11.2,19.2,10.5,18,10.2,16.6
		z M19,20c0.4-1,0.6-2.1,0.7-3.4h1.3C20.8,18,20.1,19.2,19,20z"/>
</g>
</svg>
