<svg version="1.1" id="half-path" xmlns="http://www.w3.org/2000/svg" xmlns:xlink="http://www.w3.org/1999/xlink" x="0px" y="0px"
	 viewBox="0 0 470 470" style="enable-background:new 0 0 470 470;" xml:space="preserve">
<g>
	<g>
		<path stroke="none" d="M5.2,16.5c-2,0-4.2,0-6.2,0v-3c3,0,4.1,0,6.1,0L5.2,16.5z"/>
	</g>
	<g>
		<path stroke="none" d="M17.9,456.2l-0.1-3c4-0.1,8-0.3,12-0.4l0.1,3C25.9,456,21.9,456.1,17.9,456.2z M41.9,455.2l-0.2-3c4-0.3,8-0.5,12-0.9
			l0.2,3C50,454.6,45.9,454.9,41.9,455.2z M66,453.2l-0.3-3c3.9-0.4,8-0.8,11.9-1.3l0.4,3C74,452.3,69.9,452.8,66,453.2z
			 M89.9,450.3l-0.4-3c3.9-0.6,7.9-1.1,11.9-1.8l0.5,3C97.9,449.1,93.9,449.7,89.9,450.3z M113.7,446.5l-0.5-3
			c3.9-0.7,7.9-1.5,11.8-2.2l0.6,2.9C121.6,445,117.7,445.8,113.7,446.5z M137.3,441.7l-0.7-2.9c3.9-0.9,7.8-1.8,11.7-2.7l0.7,2.9
			C145.2,439.9,141.3,440.9,137.3,441.7z M160.8,436l-0.8-2.9c3.9-1,7.7-2.1,11.5-3.2l0.8,2.9C168.6,433.8,164.6,434.9,160.8,436z
			 M183.9,429.2l-0.9-2.9c3.8-1.2,7.6-2.5,11.4-3.8l1,2.8C191.6,426.7,187.7,428,183.9,429.2z M206.7,421.3l-1-2.8
			c3.8-1.4,7.5-2.9,11.2-4.3l1.1,2.8C214.3,418.5,210.5,419.9,206.7,421.3z M229.1,412.3l-1.2-2.8c3.7-1.6,7.4-3.3,10.9-4.9l1.3,2.7
			C236.5,409.1,232.8,410.7,229.1,412.3z M251,402.1l-1.3-2.7c3.6-1.8,7.2-3.7,10.6-5.6l1.4,2.6C258.2,398.4,254.6,400.3,251,402.1z
			 M272.2,390.6l-1.5-2.6c3.5-2,6.9-4.1,10.2-6.2l1.6,2.5C279.2,386.4,275.7,388.5,272.2,390.6z M292.6,377.7l-1.7-2.5
			c3.3-2.3,6.6-4.6,9.7-7l1.8,2.4C299.2,373,295.9,375.4,292.6,377.7z M312,363.2l-1.9-2.3c3.1-2.5,6.2-5.1,9.1-7.8l2,2.2
			C318.2,358,315.1,360.6,312,363.2z M330,347.1l-2.1-2.1c2.9-2.8,5.6-5.7,8.3-8.6l2.2,2C335.7,341.3,332.9,344.2,330,347.1z
			 M346.3,329.2l-2.3-1.9c2.5-3.1,5-6.3,7.2-9.5l2.4,1.7C351.3,322.8,348.9,326.1,346.3,329.2z M360.3,309.5l-2.6-1.6
			c2.1-3.4,4.1-6.9,5.9-10.3l2.7,1.4C364.5,302.5,362.5,306,360.3,309.5z M371.5,288l-2.8-1.2c1.6-3.7,3-7.4,4.2-11.1l2.8,0.9
			C374.5,280.4,373.1,284.2,371.5,288z M379,264.9l-2.9-0.7c0.9-3.8,1.6-7.8,2.2-11.6l3,0.4C380.7,257,380,261,379,264.9z
			 M382.4,240.9l-3-0.1c0.1-1.9,0.1-3.9,0.1-5.8c0-2,0-4.1-0.1-6.1l3-0.1c0.1,2.1,0.1,4.2,0.1,6.2C382.5,237,382.5,239,382.4,240.9z
			 M378.2,217.1c-0.5-3.9-1.3-7.8-2.2-11.7l2.9-0.7c0.9,3.9,1.7,7.9,2.2,11.9L378.2,217.1z M372.8,194c-1.2-3.7-2.6-7.5-4.2-11.1
			l2.8-1.2c1.6,3.7,3,7.6,4.3,11.3L372.8,194z M363.5,172.2c-1.8-3.5-3.8-6.9-5.9-10.3l2.6-1.6c2.1,3.5,4.2,7,6,10.5L363.5,172.2z
			 M351,151.9c-2.3-3.2-4.7-6.4-7.2-9.5l2.3-1.9c2.6,3.2,5.1,6.4,7.4,9.6L351,151.9z M336,133.4c-2.6-2.9-5.4-5.8-8.3-8.6l2.1-2.1
			c2.9,2.8,5.7,5.8,8.4,8.7L336,133.4z M318.9,116.7c-2.9-2.6-6-5.2-9.1-7.7l1.9-2.3c3.1,2.6,6.2,5.2,9.2,7.8L318.9,116.7z
			 M300.4,101.6c-3.1-2.3-6.4-4.7-9.7-7l1.7-2.5c3.3,2.3,6.7,4.7,9.8,7L300.4,101.6z M280.7,88.1c-3.3-2.1-6.8-4.2-10.2-6.2l1.5-2.6
			c3.5,2,7,4.2,10.3,6.3L280.7,88.1z M260,76c-3.5-1.9-7-3.7-10.6-5.5l1.3-2.7c3.6,1.8,7.2,3.7,10.7,5.6L260,76z M238.6,65.2
			c-3.6-1.7-7.2-3.3-10.9-4.9l1.2-2.8c3.7,1.6,7.4,3.3,11,4.9L238.6,65.2z M216.6,55.7c-3.7-1.5-7.4-2.9-11.2-4.3l1-2.8
			c3.8,1.4,7.6,2.9,11.3,4.3L216.6,55.7z M194.1,47.3c-3.7-1.3-7.6-2.6-11.4-3.8l0.9-2.9c3.8,1.2,7.7,2.5,11.5,3.8L194.1,47.3z
			 M171.3,40.1c-3.8-1.1-7.7-2.2-11.5-3.2l0.8-2.9c3.9,1,7.8,2.1,11.6,3.3L171.3,40.1z M148.1,33.9c-3.9-0.9-7.8-1.9-11.7-2.7
			l0.7-2.9c3.9,0.9,7.9,1.8,11.7,2.7L148.1,33.9z M124.7,28.6c-3.9-0.8-7.9-1.5-11.8-2.2l0.5-3c3.9,0.7,7.9,1.5,11.8,2.3L124.7,28.6
			z M101.1,24.4c-3.9-0.6-7.9-1.2-11.9-1.8l0.4-3c4,0.6,8,1.2,11.9,1.8L101.1,24.4z M77.3,21.1c-3.9-0.5-7.9-0.9-11.9-1.3l0.3-3
			c4,0.4,8,0.8,12,1.3L77.3,21.1z M53.4,18.7c-4-0.3-8-0.6-12-0.9l0.2-3c4,0.3,8,0.5,12,0.9L53.4,18.7z M29.5,17.2
			c-4-0.2-8-0.3-12-0.4l0.1-3c4,0.1,8,0.3,12,0.4L29.5,17.2z"/>
	</g>
	<g>
		<path stroke="none" d="M-1,456.5v-3c2,0,4.2,0,6.2,0l-0.1,3C3.1,456.5,2,456.5-1,456.5z"/>
	</g>
</g>
<polygon stroke="none" points="144.1,16.4 131.5,40.2 149.7,34.6 "/>
<polygon stroke="none" points="394.8,229.2 368,229.2 381.4,242.6 "/>
<polygon stroke="none" points="177.4,440.3 163.2,417.4 158.9,435.9 "/>
</svg>
