<svg version="1.1" id="help-link" xmlns="http://www.w3.org/2000/svg" xmlns:xlink="http://www.w3.org/1999/xlink" x="0px" y="0px" viewBox="0 0 20 16" enable-background="new 0 0 20 16" xml:space="preserve">
	<g>
		<g>
			<path stroke="none" d="M8.957,9.092V8.65c0-0.334,0.068-0.617,0.205-0.848S9.541,7.347,9.89,7.128c0.277-0.174,0.476-0.332,0.598-0.472
				c0.121-0.14,0.182-0.301,0.182-0.482c0-0.144-0.064-0.257-0.194-0.341s-0.3-0.126-0.508-0.126c-0.517,0-1.119,0.183-1.81,0.549
				L7.444,4.862c0.851-0.485,1.739-0.728,2.666-0.728c0.762,0,1.359,0.167,1.795,0.502c0.434,0.335,0.65,0.791,0.65,1.369
				c0,0.413-0.097,0.771-0.29,1.074c-0.193,0.302-0.501,0.588-0.925,0.858c-0.359,0.232-0.584,0.402-0.674,0.51
				S10.53,8.684,10.53,8.83v0.262H8.957z M8.736,10.887c0-0.314,0.091-0.557,0.274-0.729c0.183-0.17,0.452-0.256,0.808-0.256
				c0.342,0,0.604,0.087,0.787,0.259s0.274,0.415,0.274,0.726s-0.095,0.552-0.284,0.723s-0.448,0.256-0.776,0.256
				c-0.339,0-0.604-0.085-0.795-0.253C8.832,11.442,8.736,11.201,8.736,10.887z"/>
		</g>
		<circle fill="none" stroke-miterlimit="10" cx="10" cy="8" r="7"/>
	</g>
</svg>