<svg version="1.1" id="help" xmlns="http://www.w3.org/2000/svg" xmlns:xlink="http://www.w3.org/1999/xlink" x="0px" y="0px"
	 viewBox="0 0 24 24" style="enable-background:new 0 0 24 24;" xml:space="preserve">
<path d="M12,0C5.4,0,0,5.4,0,12s5.4,12,12,12c6.6,0,12-5.4,12-12S18.6,0,12,0z M11.3,20c-1,0-1.9-0.8-1.9-1.9c0-1,0.8-1.9,1.9-1.9
	s1.9,0.8,1.9,1.9C13.1,19.2,12.3,20,11.3,20z M12.6,13.3c0,1.4-0.7,1.6-1.6,1.6c-0.9,0-1.6-0.7-1.6-1.6c0-0.1,0-0.2,0-0.3
	c0-0.7,0.2-2.9,2.8-2.9c0.3,0,1-0.5,1-1.4c0-0.8-0.6-1.4-1.4-1.4c-0.5,0-1,0.3-1.2,0.7c-0.4,0.8-1.4,1-2.2,0.6
	C7.6,8,7.4,7.1,7.8,6.3c0.8-1.4,2.3-2.3,4-2.3c2.5,0,4.6,2.1,4.6,4.6S12.6,11.9,12.6,13.3z"/>
</svg>
