<svg version="1.1" id="help-line" xmlns="http://www.w3.org/2000/svg" xmlns:xlink="http://www.w3.org/1999/xlink" x="0px" y="0px"
	 viewBox="0 0 24 24" style="enable-background:new 0 0 24 24;" xml:space="preserve">
<g>
	<path d="M12,1C6,1,1,6,1,12s5,11,11,11s11-5,11-11S18,1,12,1z M12,20.8c-4.9,0-8.8-3.9-8.8-8.8S7.1,3.2,12,3.2s8.8,3.9,8.8,8.8
		S16.9,20.8,12,20.8z"/>
	<path d="M11.4,15.9c-1,0-1.7,0.8-1.7,1.7c0,1,0.8,1.7,1.7,1.7s1.6-0.7,1.7-1.7C13.1,16.6,12.4,15.9,11.4,15.9z"/>
	<path d="M11.8,4.7c-1.6,0-2.9,0.8-3.7,2.1C7.8,7.5,8,8.3,8.7,8.9c0.7,0.4,1.6,0.2,2-0.5c0.2-0.4,0.6-0.6,1.1-0.6
		c0.7,0,1.3,0.6,1.3,1.3c0,0.8-0.6,1.3-0.9,1.3c-2.4,0-2.6,2-2.6,2.7c0,0.1,0,0.2,0,0.3c0,0.8,0.6,1.5,1.5,1.5
		c0.8,0,1.5-0.2,1.5-1.5c0-1.3,3.5-2,3.5-4.3S14.1,4.7,11.8,4.7z"/>
</g>
</svg>
