<?xml version="1.0" encoding="utf-8"?>
<!-- Generator: Adobe Illustrator 23.0.1, SVG Export Plug-In . SVG Version: 6.00 Build 0)  -->
<svg version="1.1" id="Layer_1" xmlns="http://www.w3.org/2000/svg" xmlns:xlink="http://www.w3.org/1999/xlink" x="0px" y="0px"
	 viewBox="0 0 24 24" style="enable-background:new 0 0 24 24;" xml:space="preserve">
<g>
	<path d="M1.1,3l1.4-1.4L21.9,21l-1.4,1.4c-0.2-0.2-0.7-0.7-1.6-1.6c-0.9-0.9-1.6-1.6-2.1-2c-1.5,0.6-3.1,0.9-4.8,0.9
		c-2.7,0-5.1-0.8-7.3-2.3C2.5,15.9,1,13.9,0,11.5C0.9,9.3,2.2,7.5,4.1,6c-0.4-0.4-1-1-1.7-1.7C1.6,3.5,1.2,3.1,1.1,3z M7.2,9.1
		c-0.4,0.8-0.6,1.6-0.6,2.4c0,1.5,0.5,2.8,1.6,3.9s2.4,1.6,3.9,1.6c0.8,0,1.6-0.2,2.4-0.6l-1.7-1.7c-0.3,0.1-0.5,0.1-0.7,0.1
		c-0.9,0-1.7-0.3-2.3-1c-0.6-0.6-1-1.4-1-2.3c0-0.2,0-0.4,0.1-0.7L7.2,9.1z M12,6c-0.7,0-1.3,0.1-2,0.4L7.7,4C9,3.5,10.5,3.3,12,3.3
		c2.7,0,5.1,0.8,7.3,2.3C21.5,7,23,9,24,11.5c-0.8,2-2.1,3.7-3.7,5.2l-3.2-3.2c0.3-0.6,0.4-1.3,0.4-2c0-1.5-0.5-2.8-1.6-3.9
		S13.5,6,12,6z M11.9,8.2H12c0.9,0,1.7,0.3,2.3,1c0.6,0.6,1,1.4,1,2.3v0.2L11.9,8.2z"/>
</g>
</svg>
