<svg version="1.1" id="Layer_1" xmlns="http://www.w3.org/2000/svg" xmlns:xlink="http://www.w3.org/1999/xlink" x="0px" y="0px"
	 viewBox="0 0 16 16" enable-background="new 0 0 16 16" xml:space="preserve">
<path stroke="none" d="M6.6,15.3L0.7,9.4C0,8.6,0,7.4,0.7,6.6l5.9-5.9c0.8-0.8,2-0.8,2.8,0l5.9,5.9c0.8,0.8,0.8,2,0,2.8l-5.9,5.9
	C8.6,16,7.4,16,6.6,15.3z"/>
<path fill="#000000" stroke="none" opacity="0.6" d="M5.3,9V5.4h1.3V9c0,0.8,0.5,1.4,1.4,1.4S9.4,9.8,9.4,9V5.4h1.3V9c0,1.5-0.9,2.5-2.7,2.5S5.3,10.5,5.3,9z"/>
</svg>
