<svg version="1.1" id="integrations" xmlns="http://www.w3.org/2000/svg" xmlns:xlink="http://www.w3.org/1999/xlink" x="0px" y="0px"
	 viewBox="0 0 24 24" style="enable-background:new 0 0 24 24;" xml:space="preserve">
<path d="M23.1,21.7l-1.7-6.1c-0.2-0.6-0.7-0.9-1.3-0.7c-0.6,0.2-0.9,0.7-0.7,1.3l0.6,2.3l-4.2-4.2c0.4-0.7,0.7-1.5,0.7-2.3
	c0-0.8-0.2-1.6-0.6-2.2L20,5.7l-0.6,2.7c-0.1,0.6,0.2,1.1,0.8,1.3c0.1,0,0.2,0,0.2,0c0.5,0,0.9-0.3,1-0.8l1.5-6.3c0-0.1,0-0.1,0-0.2
	c0,0,0,0,0-0.1c0-0.1,0-0.2-0.1-0.3c0,0,0-0.1,0-0.1c0-0.1-0.1-0.2-0.2-0.3c0,0,0,0,0,0c0,0,0,0,0,0c0,0,0,0,0,0
	c-0.1-0.1-0.2-0.1-0.3-0.2c0,0-0.1,0-0.1,0c-0.1,0-0.2-0.1-0.3-0.1c0,0,0,0,0,0c-0.1,0-0.2,0-0.3,0L15.5,3c-0.6,0.2-0.9,0.7-0.7,1.3
	C14.9,4.8,15.5,5.1,16,5l2.3-0.6l-3.9,3.9c-0.7-0.5-1.6-0.7-2.5-0.7c-0.9,0-1.8,0.3-2.5,0.8L5.5,4.4L8.3,5c0.6,0.1,1.1-0.2,1.3-0.8
	C9.7,3.7,9.3,3.1,8.7,3L2.4,1.5c-0.1,0-0.1,0-0.2,0c0,0,0,0,0,0c-0.1,0-0.2,0-0.4,0.1c0,0-0.1,0-0.1,0c-0.1,0-0.2,0.1-0.3,0.2
	c0,0,0,0,0,0c0,0,0,0,0,0c0,0,0,0,0,0C1.3,1.8,1.3,1.9,1.2,2.1c0,0,0,0.1,0,0.1c0,0.1-0.1,0.2-0.1,0.3c0,0,0,0,0,0
	c0,0.1,0,0.2,0,0.3l1.7,6.1c0.1,0.5,0.6,0.8,1,0.8c0.1,0,0.2,0,0.3,0C4.7,9.5,5,8.9,4.9,8.4L4.2,6l3.8,3.8c-0.3,0.6-0.6,1.4-0.6,2.1
	c0,1,0.3,1.9,0.9,2.7l-4.2,4.2l0.6-2.7C5,15.5,4.7,15,4.1,14.8c-0.6-0.1-1.1,0.2-1.3,0.8L1.3,22c0,0.1,0,0.1,0,0.2c0,0,0,0,0,0.1
	c0,0.1,0,0.2,0.1,0.3c0,0,0,0.1,0,0.1c0,0.1,0.1,0.2,0.2,0.3c0,0,0,0,0,0c0,0,0,0,0,0c0,0,0,0,0,0c0.1,0.1,0.2,0.1,0.3,0.2
	c0,0,0,0,0.1,0.1c0.1,0.1,0.3,0.1,0.4,0.1c0.1,0,0.2,0,0.3,0l6.1-1.7c0.6-0.2,0.9-0.7,0.7-1.3c-0.2-0.6-0.7-0.9-1.3-0.7l-2.3,0.6
	L10,16c0.6,0.3,1.3,0.5,2,0.5c0.9,0,1.7-0.3,2.4-0.7l4.3,4.3L16,19.5c-0.6-0.1-1.1,0.2-1.3,0.8c-0.1,0.6,0.2,1.1,0.8,1.3l6.3,1.5
	c0.1,0,0.2,0,0.2,0c0.1,0,0.3,0,0.4-0.1c0,0,0.1-0.1,0.1-0.1c0.1,0,0.1-0.1,0.2-0.1c0,0,0,0,0,0c0,0,0,0,0,0
	c0.1-0.1,0.1-0.2,0.2-0.3c0,0,0-0.1,0-0.1c0-0.1,0.1-0.2,0.1-0.3c0,0,0,0,0,0C23.1,21.9,23.1,21.8,23.1,21.7z M12,14.5
	c-1.4,0-2.5-1.1-2.5-2.5c0-1.4,1.1-2.5,2.5-2.5c1.4,0,2.5,1.1,2.5,2.5C14.5,13.4,13.4,14.5,12,14.5z"/>
</svg>
