<svg version="1.1" id="key" xmlns="http://www.w3.org/2000/svg" xmlns:xlink="http://www.w3.org/1999/xlink" x="0px" y="0px"
	 viewBox="0 0 24 24" style="enable-background:new 0 0 24 24;" xml:space="preserve">
<g>
	<path d="M23,1h-4.4L10,9.6c-1.1-1-3-1-4.1,0.1l-4.2,4.2c-1.2,1.2-1.2,3.1,0,4.2l4.2,4.2c0.6,0.6,1.3,0.9,2.1,0.9s1.6-0.3,2.1-0.9
		l4.2-4.2c1.1-1.1,1.2-2.9,0.1-4.1l2.6-2.6V11h2V9h2V7h2V1z M12.9,16.7l-4.2,4.2c-0.4,0.4-1,0.4-1.4,0l-4.2-4.2
		c-0.4-0.4-0.4-1,0-1.4l4.2-4.2C7.5,11,7.7,10.9,8,10.9c0.3,0,0.5,0.1,0.7,0.3l4.2,4.2C13.3,15.7,13.3,16.3,12.9,16.7z M21,5h-2v2
		h-2v2h-2v1.6l-2,2L11.4,11l8-8H21V5z"/>
	<circle cx="7" cy="17" r="1"/>
</g>
</svg>
