<svg version="1.1" id="links-icon" xmlns="http://www.w3.org/2000/svg" xmlns:xlink="http://www.w3.org/1999/xlink" x="0px" y="0px"
	 viewBox="0 0 20 20" style="enable-background:new 0 0 20 20;" xml:space="preserve">
<g id="XMLID_7_">
	<g id="XMLID_5_">
		<path stroke="none" id="XMLID_4_" d="M1.3,18.6c-1.7-1.9-1.7-5,0-6.9l3.9-4.3c1.7-1.9,4.5-1.9,6.2,0c0.4,0.5,0.4,1.3,0,1.7
			c-0.4,0.5-1.1,0.5-1.6,0c-0.9-1-2.3-1-3.1,0l-3.9,4.3c-0.9,1-0.9,2.5,0,3.5s2.3,1,3.1,0l1.8-2c0.4-0.5,1.1-0.5,1.6,0
			s0.4,1.3,0,1.7l-1.8,2C5.8,20.5,3,20.5,1.3,18.6z"/>
	</g>
	<g id="XMLID_1_">
		<path stroke="none" id="XMLID_6_" d="M18.7,1.4c1.7,1.9,1.7,5,0,6.9l-3.9,4.3c-1.7,1.9-4.5,1.9-6.2,0c-0.4-0.5-0.4-1.3,0-1.7
			c0.4-0.5,1.1-0.5,1.6,0c0.9,1,2.3,1,3.1,0l3.9-4.3c0.9-1,0.9-2.5,0-3.5c-0.9-1-2.3-1-3.1,0l-1.8,2c-0.4,0.5-1.1,0.5-1.6,0
			s-0.4-1.3,0-1.7l1.8-2C14.2-0.5,17-0.5,18.7,1.4z"/>
	</g>
</g>
</svg>
