<svg version="1.1" id="location-icon" xmlns="http://www.w3.org/2000/svg" xmlns:xlink="http://www.w3.org/1999/xlink" x="0px" y="0px"
	 viewBox="0 0 24 24" style="enable-background:new 0 0 24 24;" xml:space="preserve">
<g>
	<path d="M13,2.2c-4.4,0-8,3.6-8,8c0,4.1,6.5,11.8,7.2,12.7l0.8,0.9l0.8-0.9C14.5,22,21,14.3,21,10.2C21,5.8,17.4,2.2,13,2.2z
		 M13,20.7c-2.2-2.7-6-7.9-6-10.4c0-3.3,2.7-6,6-6c3.3,0,6,2.7,6,6C19,12.8,15.2,18,13,20.7z"/>
	<path d="M13,6.2c-2.2,0-4,1.8-4,4c0,2.2,1.8,4,4,4c2.2,0,4-1.8,4-4C17,8,15.2,6.2,13,6.2z M13,12.2c-1.1,0-2-0.9-2-2
		c0-1.1,0.9-2,2-2c1.1,0,2,0.9,2,2C15,11.3,14.1,12.2,13,12.2z"/>
</g>
</svg>
