<svg version="1.1" id="locked" xmlns="http://www.w3.org/2000/svg" xmlns:xlink="http://www.w3.org/1999/xlink" x="0px" y="0px"
	 viewBox="0 0 10 15" style="enable-background:new 0 0 10 15;" xml:space="preserve">
	<path stroke="none" id="XMLID_42_" class="st0" d="M7.9,5V3.1c0-0.8-0.7-1.5-1.5-1.5H3.7c-0.8,0-1.5,0.7-1.5,1.5V5H7.9z"/>
	<path stroke="none" id="XMLID_48_" d="M9.5,5.6V3.1C9.5,1.4,8.1,0,6.4,0H3.7C1.9,0,0.5,1.4,0.5,3.1v2.4C0.2,5.8,0,6.2,0,6.7v6.5
		c0,1,0.8,1.8,1.8,1.8h6.5c1,0,1.8-0.8,1.8-1.8V6.7C10,6.3,9.8,5.9,9.5,5.6z M3.7,1.6h2.8c0.8,0,1.5,0.7,1.5,1.5V5H2.2V3.1
		C2.2,2.3,2.8,1.6,3.7,1.6z"/>
</svg>
