<svg version="1.1" id="mailbox" xmlns="http://www.w3.org/2000/svg" xmlns:xlink="http://www.w3.org/1999/xlink" x="0px" y="0px"
	 viewBox="0 0 24 24" style="enable-background:new 0 0 24 24;" xml:space="preserve">
<g>
	<path d="M3.4,17.3h5.7H11h11.5V9.6c0-3.2-2.6-5.7-5.7-5.7h-1.9v1.9h1.9c2.1,0,3.8,1.7,3.8,3.8v5.7H11V8.7c0-1.1-0.4-2.1-1-2.9H12
		v2.9h1.9V2.9h1.9V1H12v2.9H5.3V4C3.1,4.4,1.5,6.3,1.5,8.7v8.6h1H3.4z M6.3,5.8c1.6,0,2.9,1.3,2.9,2.9v6.7H3.4V8.7
		C3.4,7.1,4.7,5.8,6.3,5.8z"/>
	<rect x="9.1" y="18.2" width="1.9" height="4.8"/>
	<rect x="13" y="18.2" width="1.9" height="4.8"/>
</g>
</svg>
