<?xml version="1.0" encoding="utf-8"?>
<!-- Generator: Adobe Illustrator 21.1.0, SVG Export Plug-In . SVG Version: 6.00 Build 0)  -->
<svg version="1.1" id="Layer_1" xmlns="http://www.w3.org/2000/svg" xmlns:xlink="http://www.w3.org/1999/xlink" x="0px" y="0px"
	 viewBox="0 0 24 24" style="enable-background:new 0 0 24 24;" xml:space="preserve">
<path d="M19.3,3H4.7C2.6,3,1,4.7,1,6.7v10.6c0,2,1.6,3.7,3.7,3.7h14.7c2,0,3.7-1.6,3.7-3.7V6.7C23,4.7,21.3,3,19.3,3z M21.1,6.9
	l-4.8,4.6l4.8,4.6v2.2h-0.5c0,0,0,0,0,0L15,12.8l-1,1c-0.5,0.5-1.3,0.8-2,0.8c-0.7,0-1.4-0.3-2-0.8l-1.1-1l-5.6,5.6H2.9v-2l4.8-4.8
	L2.9,6.8V5.7h1.5l7,6.8c0.4,0.4,1,0.4,1.4,0l7-6.8h1.4V6.9z"/>
</svg>
