<svg version="1.1" id="member" xmlns="http://www.w3.org/2000/svg" xmlns:xlink="http://www.w3.org/1999/xlink" x="0px" y="0px"
	 viewBox="0 0 26 25.4" style="enable-background:new 0 0 26 25.4;" xml:space="preserve">
<g>
	<path d="M26,25.4H0v-4.1c0-1.2,0.7-2.5,6-4.4c3-1.1,3-1.7,3-2.6c0,0,0,0-0.1-0.1c-0.3-0.4-0.9-1-1.2-2.3C7,11.5,6.6,10.7,6.5,9.4
		c0-0.7,0.2-1.2,0.3-1.6C6.8,7.4,6.7,6.7,6.6,6.2C6.6,5.2,6.9,3.6,8,2.3C8.3,2,8.7,1.7,9.1,1.4l0.1-0.2c0.1-0.3,0.3-0.6,0.5-0.7
		c0.3-0.2,0.7-0.3,1-0.2c0.1-0.1,0.3-0.2,0.4-0.2c0.3-0.1,0.7-0.1,1,0.1C12.4,0.1,12.6,0,12.9,0c0.4,0,0.7,0.1,0.9,0.2l0.1,0
		c0.9,0.2,1.7,0.6,2.5,0.9c0.2,0.1,0.4,0.2,0.6,0.4C17.4,1.7,17.7,2,18,2.3c1.2,1.3,1.5,2.9,1.4,3.9c-0.1,0.5-0.1,1.1-0.2,1.6
		c0.2,0.3,0.3,0.8,0.3,1.5c-0.1,1.4-0.5,2.2-1.2,2.7c-0.3,1.3-0.8,1.9-1.2,2.3c0,0,0,0-0.1,0.1c0,0.9,0.1,1.5,3,2.6l0,0
		c5.3,1.9,6,3.2,6,4.4V25.4z M2,23.4h22v-2.1c0,0-0.3-0.9-4.7-2.5l0,0c-3.2-1.2-4.3-2.3-4.3-4.5c0-0.7,0.2-1,0.6-1.4
		c0.3-0.3,0.6-0.7,0.8-1.7c0-0.2,0.1-0.4,0.2-0.5l0.1-0.2c0.1-0.1,0.2-0.2,0.4-0.2c0.2-0.1,0.4-0.2,0.4-1.2c0-0.3-0.1-0.4-0.2-0.5
		L17,8.3l0.1-0.5c0.1-0.3,0.2-1.2,0.3-1.8c0-0.5-0.1-1.5-0.9-2.4c-0.2-0.2-0.4-0.4-0.7-0.6l-0.3-0.2c-0.7-0.3-1.4-0.5-2-0.7l-0.1,0
		C13.2,2.1,13.1,2,13,2c-0.3,0.2-0.6,0.3-1.1,0.2c0,0-0.1,0.1-0.1,0.1L11.1,3l-0.4-0.4l-0.2,0.3L10.3,3C10,3.2,9.7,3.4,9.5,3.7
		C8.7,4.5,8.6,5.5,8.6,6c0.1,0.7,0.2,1.4,0.3,1.8L9,8.3L8.7,8.7C8.6,8.8,8.5,9,8.5,9.3c0.1,0.9,0.3,1,0.4,1.1
		c0.1,0.1,0.2,0.1,0.4,0.2l0.1,0.2c0.1,0.1,0.2,0.3,0.2,0.5c0.2,1.1,0.5,1.4,0.8,1.7c0.3,0.4,0.6,0.7,0.6,1.4c0,2.2-1.1,3.3-4.3,4.5
		C2.3,20.4,2,21.3,2,21.3L2,23.4z M7.7,11.6C7.7,11.6,7.7,11.6,7.7,11.6C7.7,11.6,7.7,11.6,7.7,11.6z M18.3,11.6
		C18.3,11.6,18.3,11.6,18.3,11.6C18.3,11.6,18.3,11.6,18.3,11.6z"/>
</g>
</svg>
