<?xml version="1.0" encoding="utf-8"?>
<!-- Generator: Adobe Illustrator 19.0.0, SVG Export Plug-In . SVG Version: 6.00 Build 0)  -->
<!DOCTYPE svg PUBLIC "-//W3C//DTD SVG 1.1//EN" "http://www.w3.org/Graphics/SVG/1.1/DTD/svg11.dtd">
<svg version="1.1" id="project" xmlns="http://www.w3.org/2000/svg" xmlns:xlink="http://www.w3.org/1999/xlink" x="0px" y="0px"
	 viewBox="-467 269 24 24" style="enable-background:new -467 269 24 24;" xml:space="preserve">
<path d="M-454.1,285h-1.2c-0.3,0-0.6-0.3-0.6-0.6v-0.1c0.8-0.8,1.2-1.8,1.2-3c0-2.4-1.9-4.3-4.3-4.3s-4.3,1.9-4.3,4.3
	c0,1.2,0.5,2.2,1.2,3v0.1c0,0.3-0.3,0.6-0.6,0.6h-1.2c-1.7,0-3.1,1.4-3.1,3.1v4.3c0,0.3,0.3,0.6,0.6,0.6h14.8c0.3,0,0.6-0.3,0.6-0.6
	v-4.3C-451,286.4-452.4,285-454.1,285z M-462.1,281.3L-462.1,281.3c2,0,3.1-0.5,3.6-0.9c0.5,0.4,1.2,0.9,2.5,0.9l0,0
	c0,1.7-1.4,3.1-3.1,3.1S-462.1,283-462.1,281.3L-462.1,281.3z M-452.2,291.8h-13.5v-3.7c0-1,0.8-1.8,1.8-1.8h1.2
	c0.8,0,1.4-0.5,1.7-1.1c0.6,0.3,1.3,0.5,2,0.5c0.7,0,1.4-0.2,2-0.5c0.3,0.7,0.9,1.1,1.7,1.1h1.2c1,0,1.8,0.8,1.8,1.8V291.8z"/>
<path d="M-443.4,276c0-0.2-0.1-0.4-0.1-0.6c-0.3-0.5-0.8-0.8-1.4-0.8h-1.6v-1.3c0-1-0.9-1.9-1.9-1.9h-4.5v-0.3c0-1-0.9-1.9-1.9-1.9
	h-2.7c-1,0-1.9,0.9-1.9,1.9v4.6c0.2,0,0.4-0.1,0.7-0.1c0.1,0,0.3,0,0.4,0v-4.5c0-0.5,0.3-0.8,0.8-0.8h2.7c0.5,0,0.8,0.3,0.8,0.8v0.5
	c0,0.4,0.4,0.8,0.9,0.8h4.8c0.5,0,0.8,0.3,0.8,0.8v1.3h-6.5c-0.7,0-1.7,0.4-2.1,1l-0.4,0.5c0.3,0.1,0.6,0.3,0.9,0.5l0.3-0.4
	c0.3-0.3,0.9-0.6,1.3-0.6h9.2c0.2,0,0.5,0.1,0.5,0.3c0,0.1-0.1,0.3-0.1,0.3l-2.5,3.1c-0.3,0.3-0.9,0.6-1.3,0.6h-5.2
	c0,0.3,0.1,0.6,0.1,0.9c0,0.1,0,0.2,0,0.3h5.2c0.7,0,1.7-0.4,2.1-1l2.5-3.1C-443.5,276.6-443.3,276.3-443.4,276z"/>
</svg>
