<svg version="1.1" id="milestone" xmlns="http://www.w3.org/2000/svg" xmlns:xlink="http://www.w3.org/1999/xlink" x="0px" y="0px"
	 viewBox="0 0 24 24" style="enable-background:new 0 0 24 24;" xml:space="preserve">
<path d="M21.3,6.7h-7V4.1c0-0.8-0.7-1.5-1.5-1.5H4.3V2c0-0.8-0.7-1.5-1.5-1.5S1.3,1.2,1.3,2v2.1v9.8V22c0,0.8,0.7,1.5,1.5,1.5
	s1.5-0.7,1.5-1.5v-6.6h8.5c0.8,0,1.5-0.7,1.5-1.5V9.7h5.5v6.8h-8.7c-0.8,0-1.5,0.7-1.5,1.5s0.7,1.5,1.5,1.5h10.2
	c0.8,0,1.5-0.7,1.5-1.5V8.2C22.8,7.3,22.1,6.7,21.3,6.7z M11.2,12.4h-7V5.6h7V12.4z"/>
</svg>
