<svg version="1.1" id="more-menu" xmlns="http://www.w3.org/2000/svg" xmlns:xlink="http://www.w3.org/1999/xlink" x="0px" y="0px"
	 viewBox="0 0 24 24" style="enable-background:new 0 0 24 24;" xml:space="preserve">
<g>
	<path d="M14,5.4c-0.6,0.6-1.3,0.9-2,0.9c-0.8,0-1.4-0.3-2-0.9c-0.6-0.6-0.9-1.3-0.9-2c0-0.8,0.3-1.4,0.9-2c0.6-0.6,1.3-0.9,2-0.9
		c0.8,0,1.4,0.3,2,0.9c0.6,0.6,0.9,1.3,0.9,2C14.9,4.2,14.6,4.8,14,5.4z M10,10c0.6-0.6,1.3-0.9,2-0.9c0.8,0,1.4,0.3,2,0.9
		c0.6,0.6,0.9,1.3,0.9,2c0,0.8-0.3,1.4-0.9,2c-0.6,0.6-1.3,0.9-2,0.9c-0.8,0-1.4-0.3-2-0.9c-0.6-0.6-0.9-1.3-0.9-2
		C9.1,11.2,9.4,10.6,10,10z M10,18.6c0.6-0.6,1.3-0.9,2-0.9c0.8,0,1.4,0.3,2,0.9c0.6,0.6,0.9,1.3,0.9,2c0,0.8-0.3,1.4-0.9,2
		c-0.6,0.6-1.3,0.9-2,0.9c-0.8,0-1.4-0.3-2-0.9c-0.6-0.6-0.9-1.3-0.9-2C9.1,19.8,9.4,19.2,10,18.6z"/>
</g>
</svg>
