<svg version="1.1" id="notification" xmlns="http://www.w3.org/2000/svg" xmlns:xlink="http://www.w3.org/1999/xlink" x="0px" y="0px"
	 viewBox="-1 3 16 16" enable-background="new -1 3 16 16" xml:space="preserve">
<path stroke="none" d="M11,11c-0.5,0-0.9-0.1-1.3-0.2L7,12.6L2,9h5.5C7.2,8.4,7,7.7,7,7H1c-1.1,0-2,0.9-2,2v8c0,1.1,0.9,2,2,2h12c1.1,0,2-0.9,2-2
	V9c0-0.3-0.1-0.6-0.2-0.8C14.3,9.8,12.8,11,11,11z M13,16c0,0.5-0.5,1-1,1H2c-0.5,0-1-0.5-1-1v-5.3l6,4.3l6-4.2V16z"/>
<path stroke="none" d="M13.5,6.5h-1.3l0.9-0.9c0.2-0.2,0.2-0.5,0-0.7s-0.5-0.2-0.7,0l-0.9,0.9V4.5C11.5,4.2,11.2,4,11,4s-0.5,0.2-0.5,0.5v1.3
	L9.5,4.9C9.4,4.7,9,4.7,8.8,4.9c-0.2,0.2-0.2,0.5,0,0.7l0.9,0.9H8.5C8.2,6.5,8,6.7,8,7s0.2,0.5,0.5,0.5h1.3L8.8,8.4
	c-0.2,0.2-0.2,0.5,0,0.7c0.2,0.2,0.5,0.2,0.7,0l0.9-0.9v1.3c0,0.3,0.2,0.5,0.5,0.5s0.5-0.2,0.5-0.5V8.2l0.9,0.9
	c0.2,0.2,0.5,0.2,0.7,0c0.2-0.2,0.2-0.5,0-0.7l-0.9-0.9h1.3C13.7,7.5,14,7.3,14,7S13.7,6.5,13.5,6.5z"/>
</svg>
