<svg version="1.1" id="iconPause" xmlns="http://www.w3.org/2000/svg" xmlns:xlink="http://www.w3.org/1999/xlink" x="0px" y="0px"
	 viewBox="0 0 22.7 25.2" stroke="none" enable-background="new 0 0 22.7 25.2" xml:space="preserve">
<g id="iconPause" display="none">
	<polygon id="XMLID_6_" display="inline" points="3.3,21.9 3.3,12.6 3.4,3.3 11.4,8 19.5,12.7 11.3,17.3 	" fill="white"/>
	<path id="XMLID_3_" display="inline" d="M3.3,25.2c-0.6,0-1.1-0.1-1.6-0.4c-1-0.6-1.6-1.7-1.6-2.8l0.1-9.3l0-9.3
		c0-1.2,0.6-2.2,1.6-2.8c1-0.6,2.3-0.6,3.3,0l8,4.8l8.1,4.7c1,0.6,1.6,1.7,1.6,2.8c0,1.2-0.6,2.2-1.7,2.8l-8.1,4.6l-8.1,4.6
		C4.4,25,3.8,25.2,3.3,25.2z M6.6,9l0,7.3l3.1-1.8l3.2-1.8l-3.1-1.8L6.6,9z" fill="white"/>
</g>
<g id="XMLID_7_">
	<path id="XMLID_9_" d="M6.5,25.1L6.5,25.1c-1.9,0-3.5-1.6-3.5-3.5V3.5C3,1.6,4.6,0,6.5,0h0C8.4,0,10,1.6,10,3.5v18.1
		C10,23.6,8.4,25.1,6.5,25.1z" fill="white"/>
	<path id="XMLID_8_" d="M16.4,25.2L16.4,25.2c-1.9,0-3.5-1.6-3.5-3.5V3.6c0-1.9,1.6-3.5,3.5-3.5h0c1.9,0,3.5,1.6,3.5,3.5v18.1
		C19.9,23.6,18.3,25.2,16.4,25.2z" fill="white"/>
</g>
</svg>
