<svg version="1.1" id="persepctives" xmlns="http://www.w3.org/2000/svg" xmlns:xlink="http://www.w3.org/1999/xlink" x="0px" y="0px"
	 viewBox="0 0 24 24" style="enable-background:new 0 0 24 24;" xml:space="preserve">
<path d="M12,5.2c-3.8,0-7.5,2.2-10.6,6.2L1,12l0.4,0.6c3.1,4.1,6.7,6.2,10.6,6.2c3.8,0,7.5-2.2,10.6-6.2L23,12l-0.4-0.6
	C19.5,7.3,15.8,5.2,12,5.2z M9.1,12c0-1.6,1.3-2.9,2.9-2.9s2.9,1.3,2.9,2.9s-1.3,2.9-2.9,2.9S9.1,13.6,9.1,12z M3.5,12
	C6,8.8,8.9,7.2,11.9,7.1c-2.7,0-4.8,2.2-4.8,4.9c0,2.5,1.8,4.5,4.2,4.8C8.5,16.6,5.9,14.9,3.5,12z M12.7,16.8
	c2.4-0.3,4.2-2.4,4.2-4.8c0-2.7-2.1-4.8-4.8-4.9c3,0,5.9,1.7,8.5,4.9C18.1,14.9,15.5,16.6,12.7,16.8z"/>
</svg>
