<svg version="1.1" id="pie-chart" xmlns="http://www.w3.org/2000/svg" xmlns:xlink="http://www.w3.org/1999/xlink" x="0px" y="0px"
	 viewBox="0 0 20.2 20.9" style="enable-background:new 0 0 20.2 20.9;" xml:space="preserve">
<path stroke="none" id="XMLID_20_" d="M9.8,11.5c-0.5,0-0.8-0.4-0.8-0.8V2.7c0-0.2-0.1-0.5-0.3-0.6C8.6,2,8.3,1.9,8.1,1.9C3.5,2.4,0,6.2,0,10.9
	c0,5,4,9.3,9,9.3c4.6,0,8.4-4,8.9-7.7c0-0.2,0-0.5-0.2-0.7c-0.2-0.2-0.4-0.3-0.6-0.3H9.8z M9,18.2c-3.8,0-7-3.3-7-7.3
	c0-2.7,1.5-5.1,3.8-6.2c0.3-0.1,0.6-0.1,0.8,0S7,5.1,7,5.4v7.3c0,0.5,0.4,0.8,0.8,0.8h6.4c0.3,0,0.6,0.2,0.7,0.4
	c0.1,0.3,0.1,0.6,0,0.8C13.6,16.6,11.4,18.2,9,18.2z"/>
<path stroke="none" id="XMLID_19_" d="M12.6,0.1c-0.4-0.1-0.8,0.1-1.1,0.3c-0.3,0.3-0.5,0.6-0.5,1v6c0,1.1,0.9,2,2,2h6.5c0.2,0,0.4-0.1,0.6-0.3
	c0.2-0.2,0.2-0.4,0.2-0.6C19.9,3.7,16.6,0.7,12.6,0.1z"/>
</svg>
