<svg version="1.1" id="pipeline-group" xmlns="http://www.w3.org/2000/svg" xmlns:xlink="http://www.w3.org/1999/xlink" x="0px" y="0px"
	 viewBox="0 0 24 24" style="enable-background:new 0 0 24 24;" xml:space="preserve">
<path d="M1,11.1L1,11.1l0,1.8h0C1.5,18.6,6.2,23,12,23c6.1,0,11-4.9,11-11S18.1,1,12,1C6.2,1,1.5,5.4,1,11.1z M21.2,12
	c0,5.1-4.1,9.2-9.2,9.2c-3,0-5.6-1.4-7.3-3.7h4.6v1.8l2.8-2.8l-2.8-2.8v1.8H3.6c-0.4-0.9-0.6-1.8-0.7-2.8h12.8v1.8l2.7-2.8l-2.7-2.8
	v1.8H2.9c0.1-1,0.3-1.9,0.7-2.8h7.5v1.8l2.8-2.8l-2.8-2.8v1.8H4.7C6.4,4.3,9,2.8,12,2.8C17.1,2.8,21.2,6.9,21.2,12z"/>
</svg>
