<svg version="1.1" id="pipeline-pending" xmlns="http://www.w3.org/2000/svg" xmlns:xlink="http://www.w3.org/1999/xlink" x="0px" y="0px"
	 viewBox="0 0 24 24" style="enable-background:new 0 0 24 24;" xml:space="preserve">
<g>
	<path d="M9.2,15.2c3.9,0,7.1-3.2,7.1-7.1c0-3.9-3.2-7.1-7.1-7.1S2.2,4.2,2.2,8.1C2.2,12,5.3,15.2,9.2,15.2z M9.2,3
		c2.8,0,5.1,2.3,5.1,5.1c0,2.8-2.3,5.1-5.1,5.1s-5.1-2.3-5.1-5.1C4.2,5.3,6.5,3,9.2,3z"/>
	<polygon points="12,9.4 10.3,7.7 10.3,4 8.2,4 8.2,8.5 10.6,10.8 	"/>
	<polygon points="16.6,21.6 18.1,23 21.8,19.2 18.1,15.4 16.6,16.9 18,18.2 2.2,18.2 2.2,20.2 18,20.2 	"/>
</g>
</svg>
