<svg version="1.1" id="plugin" xmlns="http://www.w3.org/2000/svg" xmlns:xlink="http://www.w3.org/1999/xlink" x="0px" y="0px"
	 viewBox="0 0 24 24" style="enable-background:new 0 0 24 24;" xml:space="preserve">
<style type="text/css">
	.st0{fill:#231F20;}
</style>
<g>
	<path class="st0" d="M12,23c-1.3,0-2.4-1.1-2.4-2.4c0-1,0.6-1.9,1.6-2.3v-1c-0.9-0.1-1.7-0.4-2.4-0.9l-0.6,0.6
		c0.4,0.9,0.2,2-0.5,2.7c-0.9,0.9-2.5,0.9-3.4,0c-0.9-0.9-0.9-2.5,0-3.4c0.7-0.7,1.8-0.9,2.7-0.5l0.5-0.5c-0.8-1-1.3-2.2-1.3-3.5
		c0-1.2,0.4-2.3,1.1-3.3L6.9,8.2C6,8.6,4.9,8.4,4.2,7.7c-0.9-0.9-0.9-2.5,0-3.4c0.9-0.9,2.5-0.9,3.4,0C8.4,4.9,8.6,6,8.2,6.9
		l0.4,0.4c0.8-0.6,1.7-0.9,2.6-1V5.7c-0.9-0.4-1.6-1.3-1.6-2.3C9.6,2.1,10.7,1,12,1c1.3,0,2.4,1.1,2.4,2.4c0,1-0.6,1.9-1.6,2.3v0.7
		c0.9,0.2,1.7,0.6,2.4,1.1l0.6-0.6c-0.4-0.9-0.2-2,0.5-2.7c0.9-0.9,2.5-0.9,3.4,0c0.9,0.9,0.9,2.5,0,3.4c-0.7,0.7-1.8,0.9-2.7,0.5
		l-0.7,0.7c0.6,0.9,0.9,1.9,0.9,3c0,1.2-0.4,2.3-1.1,3.2l0.8,0.8c0.9-0.4,2-0.2,2.7,0.5c0.9,0.9,0.9,2.5,0,3.4
		c-0.9,0.9-2.5,0.9-3.4,0c-0.7-0.7-0.9-1.8-0.5-2.7L15,16.3c-0.6,0.5-1.4,0.8-2.2,1v1.1c0.9,0.4,1.6,1.3,1.6,2.3
		C14.4,21.9,13.3,23,12,23z M12,19.9c-0.4,0-0.7,0.3-0.7,0.7c0,0.4,0.3,0.7,0.7,0.7s0.7-0.3,0.7-0.7C12.7,20.2,12.4,19.9,12,19.9z
		 M18.1,17.4c-0.2,0-0.4,0.1-0.5,0.2c-0.3,0.3-0.3,0.7,0,1c0.3,0.3,0.7,0.3,1,0c0.3-0.3,0.3-0.7,0-1C18.4,17.4,18.2,17.4,18.1,17.4z
		 M5.9,17.4c-0.2,0-0.4,0.1-0.5,0.2c-0.3,0.3-0.3,0.7,0,1c0.3,0.3,0.7,0.3,1,0c0.3-0.3,0.3-0.7,0-1C6.3,17.4,6.1,17.4,5.9,17.4z
		 M11.7,7.9c-1,0-2,0.4-2.7,1.1C9,9.1,8.9,9.1,8.9,9.2c-0.7,0.7-1,1.7-1,2.6c0,2.2,1.8,3.9,3.9,3.9c2.2,0,3.9-1.8,3.9-3.9
		C15.7,9.7,13.9,7.9,11.7,7.9z M18.1,5.2c-0.2,0-0.4,0.1-0.5,0.2c-0.3,0.3-0.3,0.7,0,1c0.3,0.3,0.7,0.3,1,0c0.3-0.3,0.3-0.7,0-1
		C18.4,5.3,18.2,5.2,18.1,5.2z M5.9,5.2c-0.2,0-0.4,0.1-0.5,0.2c-0.3,0.3-0.3,0.7,0,1c0.3,0.3,0.7,0.3,1,0c0.3-0.3,0.3-0.7,0-1
		C6.3,5.3,6.1,5.2,5.9,5.2z M12,2.7c-0.4,0-0.7,0.3-0.7,0.7s0.3,0.7,0.7,0.7s0.7-0.3,0.7-0.7S12.4,2.7,12,2.7z"/>
</g>
</svg>
