<svg version="1.1" id="portfolio" xmlns="http://www.w3.org/2000/svg" xmlns:xlink="http://www.w3.org/1999/xlink" x="0px" y="0px"
	 viewBox="0 0 24 24" enable-background="new 0 0 24 24" xml:space="preserve">
<path d="M20.3,13.5H18l-3.4-2.9c1.1-0.2,2-1.1,2-2.3V3.8c-0.1-1.3-1.1-2.3-2.3-2.3H9.8c-1.2,0-2.3,1-2.3,2.3v4.5
	c0,1.1,0.8,2.1,1.9,2.3L6,13.5H3.8c-1.2,0-2.3,1-2.3,2.3v4.5c0,1.2,1,2.3,2.3,2.3h4.5c1.2,0,2.3-1,2.3-2.3v-4.5
	c-0.1-1.1-0.8-1.9-1.7-2.2l3.1-2.7l3.1,2.7c-0.9,0.3-1.6,1.1-1.6,2.2v4.5c0,1.2,1,2.3,2.3,2.3h4.5c1.2,0,2.3-1,2.3-2.3v-4.5
	C22.5,14.5,21.5,13.5,20.3,13.5z M9.8,8.3V3.8h4.5v4.5H9.8z M8.3,20.3H3.8v-4.5h4.5V20.3z M20.3,20.3h-4.5v-4.5h4.5V20.3z"/>
</svg>
