<svg version="1.1" id="preferences" xmlns="http://www.w3.org/2000/svg" xmlns:xlink="http://www.w3.org/1999/xlink" x="0px" y="0px"
	 viewBox="0 0 24 24" style="enable-background:new 0 0 24 24;" xml:space="preserve">
<g>
	<path d="M18.3,3.3c-1.7,0-3.2,1.2-3.6,2.8H2.4V8h12.3c0.4,1.6,1.9,2.8,3.6,2.8s3.2-1.2,3.6-2.8H23V6.1h-1.1
		C21.5,4.5,20.1,3.3,18.3,3.3z M18.3,8.9c-1,0-1.9-0.8-1.9-1.9c0-1,0.8-1.9,1.9-1.9s1.9,0.8,1.9,1.9C20.2,8.1,19.4,8.9,18.3,8.9z"/>
	<path d="M1,17.9h1.1c0.4,1.6,1.9,2.8,3.6,2.8s3.2-1.2,3.6-2.8h12.3V16H9.3c-0.4-1.6-1.9-2.8-3.6-2.8S2.5,14.4,2.1,16H1V17.9z
		 M5.7,15.1c1,0,1.9,0.8,1.9,1.9c0,1-0.8,1.9-1.9,1.9S3.8,18,3.8,16.9C3.8,15.9,4.6,15.1,5.7,15.1z"/>
</g>
</svg>
