<svg version="1.1" id="product" xmlns="http://www.w3.org/2000/svg" xmlns:xlink="http://www.w3.org/1999/xlink" x="0px" y="0px"
	 viewBox="0 0 24 24" enable-background="new 0 0 24 24" xml:space="preserve">
<path d="M17,8H7C5.9,8,5,7.1,5,6l0,0c0-1.1,0.9-2,2-2h10c1.1,0,2,0.9,2,2l0,0C19,7.1,18.1,8,17,8z"/>
<path d="M19,14H5c-1.1,0-2-0.9-2-2l0,0c0-1.1,0.9-2,2-2h14c1.1,0,2,0.9,2,2l0,0C21,13.1,20.1,14,19,14z"/>
<path d="M17,20H7c-1.1,0-2-0.9-2-2l0,0c0-1.1,0.9-2,2-2h10c1.1,0,2,0.9,2,2l0,0C19,19.1,18.1,20,17,20z"/>
</svg>
