<svg version="1.1" id="program-board-icon" xmlns="http://www.w3.org/2000/svg" xmlns:xlink="http://www.w3.org/1999/xlink" x="0px" y="0px"
	 viewBox="0 0 100 100" style="enable-background:new 0 0 100 100;" xml:space="preserve">
<path d="M89.8,79.8c-4.4,0-8,2.8-9.4,6.7c-6-1.7-14.3-4.7-23-10c-3.2-2-6.7-4.3-10.2-7.2l-1-16.8l-7.7,8.7
	c-9.3-9.8-18-23.5-23.4-42.3c3-1.7,5.1-5,5.1-8.7c0-5.5-4.5-10-10-10c-5.5,0-10,4.5-10,10c0,5.5,4.5,10,10,10c0.4,0,0.8,0,1.1-0.1
	C17,39.8,26.2,54,35.9,64.2L28,73.1l16.4-1c3.8,3.1,7.5,5.6,11,7.7c9.3,5.7,18.1,8.8,24.4,10.6c0.3,5.3,4.6,9.4,10,9.4
	c5.5,0,10-4.5,10-10C99.8,84.3,95.3,79.8,89.8,79.8z"/>
</svg>
