<?xml version="1.0" encoding="utf-8"?>
<!-- Generator: Adobe Illustrator 23.0.1, SVG Export Plug-In . SVG Version: 6.00 Build 0)  -->
<svg version="1.1" id="project-selector-icon" xmlns="http://www.w3.org/2000/svg" xmlns:xlink="http://www.w3.org/1999/xlink"
	 x="0px" y="0px" viewBox="0 0 24 24" style="enable-background:new 0 0 24 24;" xml:space="preserve">
<g>
	<path d="M21.5,18.6V15c0.1-1.3-0.8-1.9-2-1.9h-3.2L21.5,18.6z"/>
	<path d="M1.1,0.5l-1.6,1.5l3.3,3.5v3.3c0,1.3,0.9,1.9,2.1,1.9h0.2v4.5c0,2.4,1.4,3.8,3.8,3.8h4.5v0.2c0,1.2,0.6,2.1,1.8,2.1h2.6
		l3,3.2l1.7-1.6L1.1,0.5z M10.1,16.6c-1.4,0-2.6-1.2-2.6-2.6v-3.3h0.2l5.6,5.9H10.1z"/>
	<path d="M11,7.5v-3c0-1.2-0.6-2.1-1.8-2.1H6.2L11,7.5z"/>
</g>
</svg>
