<?xml version="1.0" encoding="utf-8"?>
<!-- Generator: Adobe Illustrator 23.0.1, SVG Export Plug-In . SVG Version: 6.00 Build 0)  -->
<svg version="1.1" id="project-selector-icon" xmlns="http://www.w3.org/2000/svg" xmlns:xlink="http://www.w3.org/1999/xlink"
	 x="0px" y="0px" viewBox="0 0 24 24" style="enable-background:new 0 0 24 24;" xml:space="preserve">
<path d="M19.4,13.2h-4.3c-1.3,0-1.9,0.6-1.9,1.8v1.8H9.9c-1.4,0-2.6-1.2-2.6-2.6v-3.3H9c1.2,0,1.8-0.6,1.8-1.8V4.6
	c0-1.2-0.6-2.1-1.8-2.1H4.6c-1.2,0-2.1,1-2.1,2.1v4.3c0,1.3,1,1.9,2.1,1.9h0.2v4.5c0,2.4,1.4,3.8,3.8,3.8h4.5v0.2
	c0,1.2,0.6,2.1,1.8,2.1h4.3c1.2,0,2.1-1,2.1-2.1v-4.3C21.5,13.8,20.6,13.2,19.4,13.2z M8.4,8c0,0.2-0.2,0.5-0.5,0.5H5.4
	C5.1,8.4,4.9,8.2,4.9,8V5.3c0-0.2,0.2-0.5,0.5-0.5h2.7c0.1,0,0.4,0.2,0.4,0.5V8z M19.1,18.6c0,0.2-0.2,0.5-0.5,0.5h-2.7
	c-0.2,0-0.5-0.2-0.5-0.5v-2.7c0-0.2,0.2-0.5,0.5-0.5h2.7c0.2,0,0.5,0.2,0.5,0.5V18.6z"/>
</svg>
