<?xml version="1.0" encoding="utf-8"?>
<!-- Generator: Adobe Illustrator 23.0.1, SVG Export Plug-In . SVG Version: 6.00 Build 0)  -->
<svg version="1.1" id="project-selector-icon" xmlns="http://www.w3.org/2000/svg" xmlns:xlink="http://www.w3.org/1999/xlink"
	 x="0px" y="0px" viewBox="0 0 24 24" style="enable-background:new 0 0 24 24;" xml:space="preserve">
<g>
	<path d="M9.4,9V7.1c0-0.2-0.2-0.3-0.3-0.3h-2C7,6.8,6.8,6.9,6.8,7.1V9c0,0.2,0.2,0.3,0.4,0.3h1.9C9.2,9.4,9.4,9.2,9.4,9z"/>
	<path d="M16.9,14.5h-2c-0.2,0-0.3,0.2-0.3,0.4v2c0,0.2,0.2,0.3,0.3,0.3h2c0.2,0,0.3-0.2,0.3-0.3v-2C17.3,14.7,17.1,14.5,16.9,14.5z
		"/>
	<path d="M12,0.5C5.6,0.5,0.5,5.6,0.5,12S5.6,23.5,12,23.5S23.5,18.4,23.5,12S18.4,0.5,12,0.5z M19,17.4c0,0.9-0.7,1.6-1.6,1.6h-3.2
		c-0.9,0-1.3-0.7-1.3-1.6v-0.2H9.6c-1.8,0-2.8-1-2.8-2.8v-3.3H6.6C5.7,11.1,5,10.7,5,9.7V6.6C5,5.7,5.7,5,6.6,5h3.2
		c0.9,0,1.3,0.7,1.3,1.6v3.2c0,0.9-0.4,1.3-1.3,1.3H8.5v2.5c0,1,0.9,1.9,1.9,1.9h2.5v-1.3c0-0.9,0.4-1.3,1.4-1.3h3.1
		c0.9,0,1.6,0.4,1.5,1.4V17.4z"/>
</g>
</svg>
