<svg version="1.1" id="recycle-icon" xmlns="http://www.w3.org/2000/svg" xmlns:xlink="http://www.w3.org/1999/xlink" x="0px" y="0px"
	 viewBox="0 0 24 24" enable-background="new 0 0 24 24" xml:space="preserve">
<g>
	<path d="M17.7,20.1c0,0.5-0.4,1-1,1H7.2c-0.5,0-1-0.4-1-1V6.7H4.3v13.4c0,1.6,1.3,2.9,2.9,2.9h9.6c1.6,0,2.9-1.3,2.9-2.9V6.7h-1.9
		V20.1z"/>
	<path d="M16.8,2.9c0-1.1-0.9-1.9-1.9-1.9H9.1C8.1,1,7.2,1.9,7.2,2.9v1H2.4v1.9h19.1V3.9h-4.8V2.9z M9.1,2.9h5.7v1H9.1V2.9z"/>
	<rect x="11" y="7.7" width="1.9" height="11.5"/>
	<rect x="8.2" y="7.7" width="1.9" height="11.5"/>
	<rect x="13.9" y="7.7" width="1.9" height="11.5"/>
</g>
</svg>
