<svg version="1.1" id="reports-icon" xmlns="http://www.w3.org/2000/svg" xmlns:xlink="http://www.w3.org/1999/xlink" x="0px" y="0px"
	 viewBox="0 0 20 20" enable-background="new 0 0 20 20" xml:space="preserve">
<path stroke="none" d="M16,17.6L16,17.6c-1.1,0-2-0.9-2-2v-12c0-1.1,0.9-2,2-2h0c1.1,0,2,0.9,2,2v12C18,16.7,17.1,17.6,16,17.6z"/>
<path stroke="none" d="M10,17.6L10,17.6c-1.1,0-2-0.9-2-2v-8c0-1.1,0.9-2,2-2h0c1.1,0,2,0.9,2,2v8C12,16.7,11.1,17.6,10,17.6z"/>
<path stroke="none" d="M4,17.6L4,17.6c-1.1,0-2-0.9-2-2v-4c0-1.1,0.9-2,2-2h0c1.1,0,2,0.9,2,2v4C6,16.7,5.1,17.6,4,17.6z"/>
</svg>
