<svg version="1.1" id="roadmap-create" xmlns="http://www.w3.org/2000/svg" xmlns:xlink="http://www.w3.org/1999/xlink" x="0px" y="0px"
	 viewBox="0 0 20 20" style="enable-background:new 0 0 20 20;" xml:space="preserve">
<path stroke="none" id="XMLID_17_" d="M18.9,7.6L12.3,1C11-0.3,8.9-0.3,7.6,1L0.9,7.6c-1.3,1.3-1.3,3.4,0,4.7L7.5,19l0,0c0.6,0.6,1.5,1,2.4,1
	s1.7-0.3,2.4-1l6.7-6.7c0.6-0.6,1-1.5,1-2.4S19.6,8.3,18.9,7.6z M9.9,14C9,14,9,14,8.3,14c0-1.2,0.2-2.1,0.5-3l1.3,0.5
	C10,12.2,9.9,13,9.9,14z M10.3,10.8l-1.2-0.4c0.5-1.2,1.3-2.1,2-2.7l0.7,0.6C11.2,8.8,10.6,9.6,10.3,10.8z M11.5,7.2
	c0.7-0.6,1.3-0.9,1.3-0.9l0.5,0.5c0,0-0.5,0.3-1.2,0.9L11.5,7.2z M12.9,13.7c-1.8-3.7,0.8-6.5,0.8-6.5l-1.4-1.4c0,0-6.9,2.5-6.9,6.4
	L3.2,10l6.7-6.7l6.7,6.7L12.9,13.7z"/>
<g id="XMLID_2_">
	<rect stroke="none" id="XMLID_6_" x="11" y="11" fill="#FFFFFF" width="6" height="6"/>
	<path stroke="none" id="XMLID_3_" fill="#66BF10" d="M14,8c-3.3,0-6,2.7-6,6c0,3.3,2.7,6,6,6c3.3,0,6-2.7,6-6C20,10.7,17.3,8,14,8z M16.4,14.5h-1.9
		v1.9c0,0.4-0.2,0.6-0.5,0.6c-0.4,0-0.5-0.3-0.5-0.6v-1.9h-1.9c-0.3,0-0.6-0.2-0.6-0.5c0-0.4,0.3-0.5,0.6-0.5h1.9v-1.9
		c0-0.3,0.1-0.6,0.5-0.6c0.3,0,0.5,0.3,0.5,0.6v1.9h1.9c0.4,0,0.6,0.1,0.6,0.5C17,14.3,16.8,14.5,16.4,14.5z"/>
</g>
</svg>
