<svg version="1.1" id="roadmap" xmlns="http://www.w3.org/2000/svg" xmlns:xlink="http://www.w3.org/1999/xlink" x="0px" y="0px"
	 viewBox="0 0 24 24" enable-background="new 0 0 24 24" xml:space="preserve">
<g>
	<path fill="#FFFFFF" d="M8,13c-0.6,0-1-0.4-1-1s0.4-1,1-1h8c0.6,0,1,0.4,1,1s-0.4,1-1,1H8z"/>
	<path d="M16,10H8c-1.1,0-2,0.9-2,2s0.9,2,2,2h8c1.1,0,2-0.9,2-2S17.1,10,16,10L16,10z"/>
</g>
<g>
	<path fill="#FFFFFF" d="M12.4,19c-0.6,0-1-0.4-1-1s0.4-1,1-1h8c0.6,0,1,0.4,1,1s-0.4,1-1,1H12.4z"/>
	<path d="M20.4,16h-8c-1.1,0-2,0.9-2,2s0.9,2,2,2h8c1.1,0,2-0.9,2-2S21.5,16,20.4,16L20.4,16z"/>
</g>
<g>
	<g>
		<path fill="#FFFFFF" d="M3.6,7c-0.6,0-1-0.4-1-1s0.4-1,1-1H13c0.6,0,1,0.4,1,1s-0.4,1-1,1H3.6z"/>
		<path d="M13,4H3.6c-1.1,0-2,0.9-2,2s0.9,2,2,2H13c1.1,0,2-0.9,2-2S14.1,4,13,4L13,4z"/>
	</g>
	<g>
		<path fill="#FFFFFF" d="M18.3,7c-0.6,0-1-0.4-1-1s0.4-1,1-1h2c0.6,0,1,0.4,1,1s-0.4,1-1,1H18.3z"/>
		<path d="M20.4,4h-2c-1.1,0-2,0.9-2,2s0.9,2,2,2h2c1.1,0,2-0.9,2-2S21.5,4,20.4,4L20.4,4z"/>
	</g>
</g>
</svg>
