<?xml version="1.0" encoding="utf-8"?>
<!-- Generator: Adobe Illustrator 23.0.1, SVG Export Plug-In . SVG Version: 6.00 Build 0)  -->
<svg version="1.1" id="Layer_1" xmlns="http://www.w3.org/2000/svg" xmlns:xlink="http://www.w3.org/1999/xlink" x="0px" y="0px"
	 viewBox="0 0 24 24" style="enable-background:new 0 0 24 24;" xml:space="preserve">
<g>
	<path d="M21.8,1.1c0.6,0,1.1,0.2,1.5,0.6C23.8,2.2,24,2.7,24,3.3v13.1c0,0.6-0.2,1.1-0.7,1.5c-0.4,0.4-1,0.7-1.5,0.7h-7.6v2.2h2.1
		v2.1H7.7v-2.1h2.1v-2.2H2.2c-0.6,0-1.1-0.2-1.5-0.7c-0.4-0.4-0.7-1-0.7-1.5V3.3c0-0.6,0.2-1.1,0.7-1.5c0.4-0.4,1-0.6,1.5-0.6H21.8z
		 M21.8,16.3V3.3H2.2v13.1H21.8z"/>
</g>
<g>
	<path d="M12,11.9l-3.1,1.9l0.8-3.5L7,7.9l3.6-0.3L12,4.3l1.4,3.3L17,7.9l-2.7,2.4l0.8,3.5L12,11.9z"/>
</g>
</svg>
