<svg version="1.1" id="scope-icon" xmlns="http://www.w3.org/2000/svg" xmlns:xlink="http://www.w3.org/1999/xlink" x="0px" y="0px"
	 viewBox="0 0 24 24" style="enable-background:new 0 0 24 24;" xml:space="preserve">
<g id="XMLID_3_">
	<path stroke="none" id="XMLID_4_" d="M23.4,14.8l-3.7,4.6c-0.7,0.9-2.1,1.5-3.2,1.5H2.8C1.3,20.9,0,19.6,0,18V6c0-1.5,1.3-2.8,2.8-2.8h4
		c1.5,0,2.8,1.3,2.8,2.8v0.4h6.8c1.5,0,2.8,1.3,2.8,2.8v2h2.4c0.9,0,1.7,0.4,2.1,1.2c0.1,0.3,0.2,0.6,0.2,0.9
		C24,13.8,23.8,14.3,23.4,14.8z M17.7,11.2v-2c0-0.7-0.5-1.2-1.2-1.2H9.3C8.6,8,8,7.4,8,6.8V6c0-0.7-0.5-1.2-1.2-1.2h-4
		C2.1,4.8,1.6,5.3,1.6,6v10.7l3.2-4c0.7-0.9,2.1-1.5,3.2-1.5H17.7z M21.7,12.8H8c-0.7,0-1.5,0.4-2,0.9l-3.7,4.6
		c-0.1,0.2-0.2,0.3-0.2,0.5c0,0.4,0.4,0.4,0.7,0.4h13.7c0.7,0,1.5-0.4,2-0.9l3.7-4.6c0.1-0.1,0.2-0.3,0.2-0.5
		C22.4,12.9,22,12.8,21.7,12.8z"/>
</g>
</svg>
