<svg version="1.1" id="scorecard" xmlns="http://www.w3.org/2000/svg" xmlns:xlink="http://www.w3.org/1999/xlink" x="0px" y="0px"
	 viewBox="0 0 16 16" style="enable-background:new 0 0 16 16;" xml:space="preserve">
<g>
	<path d="M9.8,1.5L9.8,1.5c-0.1,0-1.5-0.2-1.5-0.2c-0.1,0-0.2,0-0.2,0C6.8,1.3,5.7,1.5,4.7,2C4.6,2,3.5,2.7,3.4,2.7
		C3.1,3,2.8,3.2,2.5,3.5S1.9,4,1.7,4.3C1.5,4.5,1.4,4.7,1.3,5C1.2,5.1,1.1,5.2,1.1,5.3C1,5.4,0.9,5.5,0.9,5.6C0.8,5.7,0.8,5.9,0.7,6
		c0,0.1-0.1,0.2-0.1,0.3C0.5,6.6,0.4,6.8,0.3,7.1c0,0.1,0,0.1-0.1,0.2c0,0.2-0.1,0.5-0.1,0.8C0,8.5,0,8.9,0,9.3c0,0.5,0,1,0.1,1.4
		c0,0.1,0.1,0.3,0.1,0.4c0,0.1,0,0.1,0,0.2c0,0.1,0.1,0.3,0.1,0.4c0,0.1,0.1,0.2,0.1,0.4c0.1,0.1,0.1,0.3,0.2,0.4
		c0,0.1,0.1,0.2,0.1,0.3C0.9,13,1,13.2,1.2,13.4c0,0.1,0.1,0.1,0.1,0.2c0.1,0.1,0.1,0.2,0.2,0.3s0.1,0.2,0.2,0.2
		c0.1,0.1,0.1,0.1,0.2,0.2c0.1,0.1,0.2,0.2,0.3,0.4l0.1,0.1c0,0,0,0,0.1,0.1l0,0l0,0l3.2-3.2c-0.2-0.2-0.3-0.3-0.4-0.5
		C5,11.2,5,11.1,4.9,11s-0.1-0.2-0.1-0.3c-0.2-0.4-0.3-0.9-0.3-1.4c0-0.9,0.3-1.6,0.8-2.2L5.4,7c0.1-0.1,0.2-0.2,0.4-0.4l0.1-0.1
		C6,6.3,6.2,6.3,6.3,6.2C6.8,5.9,7.4,5.7,8,5.7c0.1,0,0.1,0,0.2,0c0,0,0,0,0.1,0s0.1,0,0.2,0l0,0c0.1,0,0.1,0,0.2,0l0,0
		c0.1,0,0.1,0,0.2,0l0,0c1.5,0.4,2.7,1.8,2.7,3.4c0,1-0.4,1.9-1,2.5l3.2,3.2c1.4-1.4,2.3-3.4,2.3-5.7C16,5.5,13.3,2.3,9.8,1.5z
		 M13.6,14.1l-2.4-2.4C11.7,11,12,10.1,12,9.2c0-1.9-1.3-3.5-3.1-4l0.9-3.3c3.2,0.8,5.6,3.8,5.6,7.2C15.5,11.1,14.8,12.8,13.6,14.1z
		"/>
	<g>
		<path d="M6.1,9.1c0-0.3,0-0.6,0.1-0.8s0.2-0.4,0.4-0.5C6.8,7.7,7,7.6,7.3,7.6c0.1,0,0.2,0,0.4,0v0.5c-0.1,0-0.2,0-0.4,0
			c-0.2,0-0.4,0-0.5,0.1c0,0.2-0.1,0.4-0.1,0.6l0,0C6.8,8.6,7,8.5,7.2,8.5s0.4,0.1,0.5,0.2C7.8,8.8,7.9,9,7.9,9.3S7.8,9.8,7.7,9.9
			c-0.2,0.2-0.4,0.2-0.6,0.2c-0.3,0-0.5-0.1-0.7-0.3C6.2,9.7,6.1,9.4,6.1,9.1z M7,9.7c0.1,0,0.1,0,0.2-0.1c0-0.1,0.1-0.1,0.1-0.3
			C7.3,9.1,7.2,9,7,9c0,0-0.1,0-0.1,0.1S6.8,9.2,6.8,9.3C6.8,9.4,6.8,9.5,7,9.7L7,9.7z"/>
		<path d="M9.9,8.9c0,0.4-0.1,0.8-0.2,1c-0.1,0.2-0.4,0.3-0.7,0.3s-0.5-0.1-0.7-0.3c-0.1-0.2-0.1-0.6-0.1-1c0-0.4,0.1-0.8,0.2-1
			C8.5,7.7,8.7,7.6,9,7.6s0.5,0.1,0.7,0.3C9.9,8.2,9.9,8.5,9.9,8.9z M8.8,8.9c0,0.3,0,0.5,0.1,0.6C8.9,9.6,9,9.6,9,9.6
			c0.1,0,0.1-0.1,0.2-0.2c0-0.1,0.1-0.3,0.1-0.6s0-0.5-0.1-0.6C9.2,8.1,9.1,8,9,8c0,0.2-0.1,0.2-0.1,0.3C8.8,8.4,8.8,8.6,8.8,8.9z"
			/>
	</g>
</g>
</svg>
