<svg version="1.1" id="search-icon" xmlns="http://www.w3.org/2000/svg" xmlns:xlink="http://www.w3.org/1999/xlink" x="0px" y="0px"
	 viewBox="0 0 16 16" style="enable-background:new 0 0 16 16;" xml:space="preserve">
<path stroke="none" id="XMLID_8_" d="M14.6,13.2L12,10.6c0.7-1,1.2-2.2,1.2-3.6c0-3.3-2.7-6-6-6s-6,2.7-6,6s2.7,6,6,6c1.3,0,2.4-0.4,3.4-1l2.6,2.6
	c0.4,0.4,1,0.4,1.4,0C14.9,14.3,14.9,13.6,14.6,13.2z M7.2,11.1c-2.2,0-4-1.8-4-4c0-2.2,1.8-4,4-4s4,1.8,4,4
	C11.2,9.3,9.4,11.1,7.2,11.1z"/>
</svg>
