<?xml version="1.0" encoding="utf-8"?>
<!-- Generator: Adobe Illustrator 23.0.1, SVG Export Plug-In . SVG Version: 6.00 Build 0)  -->
<svg version="1.1" id="Layer_1" xmlns="http://www.w3.org/2000/svg" xmlns:xlink="http://www.w3.org/1999/xlink" x="0px" y="0px"
	 viewBox="0 0 24 24" style="enable-background:new 0 0 24 24;" xml:space="preserve">
<g>
	<path d="M4.7,6.2C6.9,4.7,9.3,4,12,4s5.1,0.7,7.3,2.2C21.5,7.7,23,9.6,24,12c-1,2.4-2.5,4.3-4.7,5.8S14.7,20,12,20
		s-5.1-0.7-7.3-2.2S1,14.4,0,12C1,9.6,2.5,7.7,4.7,6.2z M8.1,15.8c1.1,1,2.4,1.6,3.9,1.6s2.8-0.5,3.9-1.6s1.6-2.3,1.6-3.8
		c0-1.5-0.5-2.7-1.6-3.8S13.5,6.6,12,6.6S9.2,7.2,8.1,8.2S6.5,10.5,6.5,12C6.5,13.5,7.1,14.7,8.1,15.8z M9.7,9.7
		c0.6-0.6,1.4-0.9,2.3-0.9s1.7,0.3,2.3,0.9c0.6,0.6,1,1.4,1,2.2c0,0.9-0.3,1.6-1,2.2c-0.6,0.6-1.4,1-2.3,1s-1.7-0.3-2.3-1
		c-0.6-0.6-1-1.4-1-2.2C8.7,11.1,9.1,10.4,9.7,9.7z"/>
</g>
</svg>
