<svg version="1.1" xmlns="http://www.w3.org/2000/svg" xmlns:xlink="http://www.w3.org/1999/xlink" x="0px" y="0px" viewBox="0 0 24 24" style="enable-background:new 0 0 24 24;" xml:space="preserve">
  <g>
    <rect x="12" y="3.5" width="10" height="3"/>
  </g>
  <g>
    <rect x="12" y="17.5" width="10" height="3"/>
  </g>
  <g>
    <path d="M22,13.5h-2v-3h2V13.5z M18,13.5h-2v-3h2V13.5z M14,13.5h-2v-3h2V13.5z"/>
  </g>
  <g>
    <path d="M6,19.8c-3.2-1.2-5.4-4.4-5.4-7.8c0-4.6,3.8-8.4,8.4-8.4v2.8c-3.1,0-5.6,2.5-5.6,5.6c0,2.3,1.4,4.4,3.6,5.2L6,19.8z"/>
  </g>
  <g>
    <path d="M9,20.4c-1,0-2.1-0.2-3-0.6l1-2.6c0.6,0.2,1.3,0.4,2,0.4V20.4z"/>
  </g>
  <g>
    <polygon points="7.6,14.7 4.7,23.3 10.4,20.4 	"/>
  </g>
</svg>
