<?xml version="1.0" encoding="utf-8"?>
<!-- Generator: Adobe Illustrator 23.0.1, SVG Export Plug-In . SVG Version: 6.00 Build 0)  -->
<svg version="1.1" id="Layer_1" xmlns="http://www.w3.org/2000/svg" xmlns:xlink="http://www.w3.org/1999/xlink" x="0px" y="0px"
	 viewBox="0 0 24 24" style="enable-background:new 0 0 24 24;" xml:space="preserve">
<g>
	<path d="M21.8,2.2c0.6,0,1.1,0.2,1.5,0.7c0.4,0.4,0.7,1,0.7,1.5l-0.1,13.1c0,0.6-0.2,1.1-0.6,1.5c-0.4,0.4-0.9,0.6-1.5,0.6h-5.5
		v2.2H7.7v-2.2H2.2c-0.6,0-1.1-0.2-1.5-0.6C0.2,18.5,0,18,0,17.5V4.4c0-0.6,0.2-1.1,0.7-1.5c0.4-0.4,1-0.7,1.5-0.7H21.8z M21.8,17.5
		V4.4H2.2v13.1H21.8z M6.5,7.7v2.1H4.4V7.7H6.5z M6.5,12v2.2H4.4V12H6.5z M19.6,7.7v2.1H7.7V7.7H19.6z M19.6,12v2.2H7.7V12H19.6z"/>
</g>
</svg>
