<svg version="1.1" id="strategic-theme" xmlns="http://www.w3.org/2000/svg" xmlns:xlink="http://www.w3.org/1999/xlink" x="0px"
	 y="0px" viewBox="0 0 24 24" style="enable-background:new 0 0 24 24;" xml:space="preserve">
<path d="M20.6,21.1v-1c0-1.2-0.8-2.3-1.9-2.7v-5v-1.9V7.7C18.7,4,15.7,1,12,1h-1.4L9.2,2.4l-2-1.3v3.3L5.3,6.3v1l-2.9,2.9v3.1
	l5.1,1.3l1.1-1.1h0.9l-1.9,3.9c-1.3,0.3-2.2,1.4-2.2,2.8v1h-1V23h17.2v-1.9H20.6z M11.4,2.9H12c1.8,0,3.3,1,4.1,2.4
	C15,4.4,13.5,3.9,12,3.9h-0.7l-0.5-0.3L11.4,2.9z M7.8,11.5l-0.9,0.9l-2.6-0.6V11l2.9-2.9v-1l1.9-1.9V4.7l1.6,1.1H12
	c2.6,0,4.8,2.1,4.8,4.8v1.9v4.8H9.7l2.2-4.5c0.6-0.5,1-1.3,1-2.2V8.7H11v1.9c0,0.5-0.4,1-1,1L7.8,11.5L7.8,11.5z M7.2,21.1v-1
	c0-0.5,0.4-1,1-1h9.6c0.5,0,1,0.4,1,1v1H7.2z"/>
</svg>
