<?xml version="1.0" encoding="utf-8"?>
<svg version="1.1"
    xmlns="http://www.w3.org/2000/svg" 
    xmlns:xlink="http://www.w3.org/1999/xlink"
    x="0px"
    y="0px"
    viewBox="0 0 96 96"
    style="enable-background:new 0 0 96 96;" 
    xml:space="preserve"
>
    <path stroke="none" d="M20.4,19.7c-0.1,1.4-0.7,2.6-1.6,3.6c-0.2,0.2-0.4,0.1-0.5,0c-1.1-1.1-2.2-2.2-3.4-3.4c-1.3-1.3-2.7-2.7-4-4
        c-0.7-0.7-1.4-1.4-2.1-2.1c-0.2-0.2-0.2-0.3,0-0.5c1-0.9,2.2-1.5,3.5-1.6c0.7,0,1.3,0.1,1.8,0.7c1.4,1.4,2.8,2.8,4.2,4.2
        c0.5,0.5,0.9,0.9,1.4,1.4C20.1,18.3,20.4,19,20.4,19.7z"/>
    <path stroke="none" d="M20,17.6c-0.1-0.1-0.1-0.1-0.2-0.2c-1.7-1.7-3.5-3.5-5.2-5.2c-0.2-0.1-0.2-0.2,0-0.4c2.2-1.8,4.5-3.5,6.7-5.3
        c0.2-0.1,0.3-0.1,0.4,0c1.2,1.2,2.5,2.5,3.7,3.7c0.1,0.1,0.1,0.2,0,0.4c-1.8,2.2-3.5,4.5-5.3,6.7C20.1,17.4,20.1,17.5,20,17.6z"/>
    <path stroke="none" d="M4,27.9c0.6-1,1-2.1,1.8-2.9c2.2-2.1,4.3-4.3,6.5-6.4c0.2-0.2,0.3-0.3,0.5,0c0.2,0.3,0.5,0.5,0.7,0.7
        c0.1,0.1,0.2,0.2,0,0.3c-2.2,2.2-4.5,4.5-6.7,6.7c-0.6,0.6-1.5,0.9-2.3,1.4C4.4,27.8,4.2,27.9,4,27.9C4,28,4,27.9,4,27.9z"/>
    <path stroke="none" d="M21.7,4c0.2,0,0.3,0.1,0.4,0.2c1.9,1.9,3.9,3.8,5.8,5.8c0.3,0.3,0.3,0.4,0,0.7c-0.1,0.1-0.2,0.2-0.3,0.3
        c-0.3,0.3-0.5,0.3-0.7,0C24.9,9,22.9,7.1,21,5.2c-0.2-0.2-0.3-0.5,0-0.7C21.2,4.3,21.3,4,21.7,4z"/>
</svg>