<svg version="1.1" id="target" xmlns="http://www.w3.org/2000/svg" xmlns:xlink="http://www.w3.org/1999/xlink" x="0px" y="0px"
	 viewBox="0 0 24 24" enable-background="new 0 0 24 24" xml:space="preserve">
<g>
	<path d="M12,1C5.9,1,1,5.9,1,12s4.9,11,11,11s11-4.9,11-11S18.1,1,12,1z M12,21.2c-5.1,0-9.2-4.1-9.2-9.2c0-5.1,4.1-9.2,9.2-9.2
		s9.2,4.1,9.2,9.2C21.2,17.1,17.1,21.2,12,21.2z"/>
	<path d="M12,4.7C8,4.7,4.7,8,4.7,12S8,19.3,12,19.3s7.3-3.3,7.3-7.3S16,4.7,12,4.7z M12,17.5c-3,0-5.5-2.5-5.5-5.5
		C6.5,9,9,6.5,12,6.5S17.5,9,17.5,12C17.5,15,15,17.5,12,17.5z"/>
	<path d="M12,8.3c-2,0-3.7,1.6-3.7,3.7s1.6,3.7,3.7,3.7s3.7-1.6,3.7-3.7S14,8.3,12,8.3z M12,13.8c-1,0-1.8-0.8-1.8-1.8
		c0-1,0.8-1.8,1.8-1.8s1.8,0.8,1.8,1.8C13.8,13,13,13.8,12,13.8z"/>
</g>
</svg>
