<svg version="1.1" id="tasks" xmlns="http://www.w3.org/2000/svg" xmlns:xlink="http://www.w3.org/1999/xlink" x="0px" y="0px"
	 viewBox="0 0 24 24" style="enable-background:new 0 0 24 24;" xml:space="preserve">
<g>
	<path d="M3.6,19.1l-1.4,1.4l1.3,1.3l1.4-1.4c0.5,0.3,1,0.6,1.6,0.7V23h1.8v-1.9c0.6-0.1,1.1-0.4,1.6-0.7l1.4,1.4l1.3-1.3l-1.4-1.4
		c0.3-0.5,0.6-1,0.7-1.6h1.9v-1.8h-1.9c-0.1-0.6-0.4-1.1-0.7-1.6l1.4-1.4l-1.3-1.3l-1.4,1.4c-0.5-0.3-1-0.6-1.6-0.7v-1.9H6.5v1.9
		c-0.6,0.1-1.1,0.4-1.6,0.7l-1.4-1.4l-1.3,1.3l1.4,1.4c-0.3,0.5-0.6,1-0.7,1.6H1v1.8h1.9C3,18.1,3.3,18.6,3.6,19.1z M7.4,13.8
		c1.5,0,2.8,1.2,2.8,2.8c0,1.5-1.2,2.8-2.8,2.8c-1.5,0-2.8-1.2-2.8-2.8C4.7,15.1,5.9,13.8,7.4,13.8z"/>
	<path d="M20.6,4.7L22,3.3L20.7,2l-1.4,1.4c-0.3-0.2-0.6-0.3-0.9-0.4V1h-1.8v2c-0.3,0.1-0.6,0.2-0.9,0.4L14.3,2L13,3.3l1.4,1.4
		C14.2,4.9,14,5.3,14,5.6h-2v1.8h2c0.1,0.3,0.2,0.6,0.4,0.9L13,9.7l1.3,1.3l1.4-1.4c0.3,0.2,0.6,0.3,0.9,0.4v2h1.8v-2
		c0.3-0.1,0.6-0.2,0.9-0.4l1.4,1.4L22,9.7l-1.4-1.4C20.8,8.1,21,7.7,21,7.4h2V5.6h-2C21,5.3,20.8,4.9,20.6,4.7z M17.5,8.3
		c-1,0-1.8-0.8-1.8-1.8c0-1,0.8-1.8,1.8-1.8s1.8,0.8,1.8,1.8C19.3,7.5,18.5,8.3,17.5,8.3z"/>
</g>
</svg>
