<svg version="1.1" id="team" xmlns="http://www.w3.org/2000/svg" xmlns:xlink="http://www.w3.org/1999/xlink" x="0px" y="0px"
	 viewBox="0 0 24 24" style="enable-background:new 0 0 24 24;" xml:space="preserve">
<g>
	<path d="M15.9,8.5c-1.5-0.5-1.8-1-1.8-1.7c0-0.2,0-0.2,0.2-0.3c0.2-0.2,0.4-0.4,0.5-1.1c0,0,0-0.1,0-0.1c0,0,0,0,0.1,0
		c0.3-0.1,0.4-0.3,0.5-1c0-0.3-0.1-0.5-0.2-0.6c0-0.2,0.1-0.6,0.1-0.9c0-0.4-0.1-1-0.5-1.5c-0.1-0.1-0.3-0.2-0.4-0.4
		c0,0,0-0.1-0.1-0.1c-0.4-0.2-0.8-0.3-1.2-0.4c-0.1,0-0.3-0.1-0.4-0.1c-0.2,0-0.2,0.2-0.6,0c-0.1,0-0.2,0-0.2,0.1
		c0,0.1-0.1,0.2-0.1,0.2c0,0-0.1-0.1-0.1-0.1c0,0,0,0-0.1-0.1c-0.1-0.1-0.2,0-0.2,0.2c0,0,0,0,0,0c-0.1,0.1-0.1,0.2-0.2,0.3
		c-0.2,0.1-0.4,0.3-0.5,0.4c-0.5,0.5-0.6,1.1-0.5,1.5c0,0.3,0.1,0.7,0.1,0.9C10.1,3.9,10,4,10,4.4c0,0.6,0.2,0.8,0.5,0.9
		c0,0,0,0,0.1,0c0,0,0,0,0,0.1c0.1,0.6,0.3,0.9,0.5,1.1c0.1,0.1,0.2,0.2,0.2,0.3c0,0.7-0.3,1.2-1.8,1.7C6.9,9.4,6.9,10,6.9,10.2v1.5
		h11.6v-1.5C18.5,10,18.5,9.4,15.9,8.5z"/>
</g>
<g>
	<path d="M9.2,21c-1.5-0.5-1.8-1-1.8-1.7c0-0.2,0-0.2,0.2-0.3c0.2-0.2,0.4-0.4,0.5-1.1c0,0,0-0.1,0-0.1c0,0,0,0,0.1,0
		c0.3-0.1,0.4-0.3,0.5-1c0-0.3-0.1-0.5-0.2-0.6c0-0.2,0.1-0.6,0.1-0.9c0-0.4-0.1-1-0.5-1.5c-0.1-0.1-0.3-0.2-0.4-0.4
		c0,0,0-0.1-0.1-0.1c-0.4-0.2-0.8-0.3-1.2-0.4c-0.1,0-0.3-0.1-0.4-0.1c-0.2,0-0.2,0.2-0.6,0c-0.1,0-0.2,0-0.2,0.1
		c0,0.1-0.1,0.2-0.1,0.2C5,13.1,5,13.1,5,13c0,0,0,0-0.1-0.1c-0.1-0.1-0.2,0-0.2,0.2c0,0,0,0,0,0c-0.1,0.1-0.1,0.2-0.2,0.3
		c-0.2,0.1-0.4,0.3-0.5,0.4c-0.5,0.5-0.6,1.1-0.5,1.5c0,0.3,0.1,0.7,0.1,0.9c-0.1,0.1-0.2,0.3-0.2,0.6c0,0.6,0.2,0.8,0.5,0.9
		c0,0,0,0,0.1,0c0,0,0,0,0,0.1c0.1,0.6,0.3,0.9,0.5,1.1c0.1,0.1,0.2,0.2,0.2,0.3c0,0.7-0.3,1.2-1.8,1.7c-2.6,0.9-2.6,1.5-2.6,1.7
		v1.5h11.6v-1.5C11.8,22.5,11.8,21.9,9.2,21z"/>
</g>
<g>
	<path d="M21.4,21c-1.5-0.5-1.8-1-1.8-1.7c0-0.2,0-0.2,0.2-0.3c0.2-0.2,0.4-0.4,0.5-1.1c0,0,0-0.1,0-0.1c0,0,0,0,0.1,0
		c0.3-0.1,0.4-0.3,0.5-1c0-0.3-0.1-0.5-0.2-0.6c0-0.2,0.1-0.6,0.1-0.9c0-0.4-0.1-1-0.5-1.5c-0.1-0.1-0.3-0.2-0.4-0.4
		c0,0,0-0.1-0.1-0.1c-0.4-0.2-0.8-0.3-1.2-0.4c-0.1,0-0.3-0.1-0.4-0.1c-0.2,0-0.2,0.2-0.6,0c-0.1,0-0.2,0-0.2,0.1
		c0,0.1-0.1,0.2-0.1,0.2c0,0-0.1-0.1-0.1-0.1c0,0,0,0-0.1-0.1c-0.1-0.1-0.2,0-0.2,0.2c0,0,0,0,0,0c-0.1,0.1-0.1,0.2-0.2,0.3
		c-0.2,0.1-0.4,0.3-0.5,0.4c-0.5,0.5-0.6,1.1-0.5,1.5c0,0.3,0.1,0.7,0.1,0.9c-0.1,0.1-0.2,0.3-0.2,0.6c0,0.6,0.2,0.8,0.5,0.9
		c0,0,0,0,0.1,0c0,0,0,0,0,0.1c0.1,0.6,0.3,0.9,0.5,1.1c0.1,0.1,0.2,0.2,0.2,0.3c0,0.7-0.3,1.2-1.8,1.7c-2.6,0.9-2.6,1.5-2.6,1.7
		v1.5H24v-1.5C24,22.5,24,21.9,21.4,21z"/>
</g>
</svg>
