<svg version="1.1" id="timeline-view-icon" xmlns="http://www.w3.org/2000/svg" xmlns:xlink="http://www.w3.org/1999/xlink" x="0px" y="0px"
	 viewBox="0 0 16 16" style="enable-background:new 0 0 16 16;" xml:space="preserve">
<g>
	<g>
		<path d="M12.6,3.3H1.1C0.5,3.3,0,3.8,0,4.4v0C0,5,0.5,5.5,1.1,5.5h11.5c0.6,0,1.1-0.5,1.1-1.1v0C13.8,3.8,13.3,3.3,12.6,3.3z"/>
		<path d="M14.9,6.9H3.4c-0.6,0-1.1,0.5-1.1,1.1v0c0,0.6,0.5,1.1,1.1,1.1h11.5c0.6,0,1.1-0.5,1.1-1.1v0C16,7.4,15.5,6.9,14.9,6.9z"
			/>
	</g>
	<path d="M8.5,10.5H2.1C1.5,10.5,1,11,1,11.6v0c0,0.6,0.5,1.1,1.1,1.1h6.4c0.6,0,1.1-0.5,1.1-1.1v0C9.6,11,9.1,10.5,8.5,10.5z"/>
</g>
</svg>
