<svg version="1.1" id="timer" xmlns="http://www.w3.org/2000/svg" xmlns:xlink="http://www.w3.org/1999/xlink" x="0px" y="0px"
	 viewBox="0 0 24 24" enable-background="new 0 0 24 24" xml:space="preserve">
<g>
	<path d="M12,23c5.1,0,9.2-4.1,9.2-9.2c0-2.7-1.1-5.1-3-6.7L20,5.3L18.7,4l-2,2c-1.1-0.7-2.4-1.1-3.8-1.3V2.8h1.9V1H9.3v1.8h1.8v1.9
		c-4.6,0.5-8.3,4.4-8.3,9.1C2.8,18.9,6.9,23,12,23z M12,6.5c4,0,7.3,3.3,7.3,7.3c0,4-3.3,7.3-7.3,7.3c-4,0-7.3-3.3-7.3-7.3
		C4.7,9.8,8,6.5,12,6.5z"/>
	<path d="M12,15.7c0.8,0,1.4-0.6,1.4-1.4c0-0.4-0.2-0.8-0.5-1V8.4h-1.8v4.8c-0.3,0.3-0.5,0.6-0.5,1C10.6,15,11.2,15.7,12,15.7z"/>
</g>
</svg>
