<svg version="1.1" id="time" xmlns="http://www.w3.org/2000/svg" xmlns:xlink="http://www.w3.org/1999/xlink" x="0px" y="0px"
	 viewBox="0 0 12 12" style="enable-background:new 0 0 12 12;" xml:space="preserve">
<g>
	<path stroke="none" d="M8,8.9c-0.1,0-0.3-0.1-0.4-0.2L5.5,6.3C5.5,6.2,5.4,6.1,5.4,6V3.2c0-0.3,0.2-0.5,0.5-0.5s0.5,0.2,0.5,0.5v2.6l2,2.2
		c0.2,0.2,0.2,0.5,0,0.7C8.2,8.8,8.1,8.9,8,8.9z"/>
</g>
<g>
	<path stroke="none" d="M6,12c-3.3,0-6-2.7-6-6c0-3.3,2.7-6,6-6c3.3,0,6,2.7,6,6C12,9.3,9.3,12,6,12z M6,1.7C3.6,1.7,1.7,3.6,1.7,6
		s1.9,4.3,4.3,4.3s4.3-1.9,4.3-4.3S8.4,1.7,6,1.7z"/>
</g>
</svg>
