<svg version="1.1" id="topic-icon" xmlns="http://www.w3.org/2000/svg" xmlns:xlink="http://www.w3.org/1999/xlink" x="0px" y="0px"
	 viewBox="0 0 20 20" enable-background="new 0 0 20 20" xml:space="preserve">
<g>
	<path fill="#00a9e0" stroke="none" d="M13,6H7C6.4,6,6,5.6,6,5s0.4-1,1-1h6c0.6,0,1,0.4,1,1S13.6,6,13,6z"/>
</g>
<g>
	<path fill="#00a9e0" stroke="none" d="M13,9H7C6.4,9,6,8.6,6,8s0.4-1,1-1h6c0.6,0,1,0.4,1,1S13.6,9,13,9z"/>
</g>
<g>
	<path fill="#00a9e0" stroke="none" d="M13,12H7c-0.6,0-1-0.4-1-1c0-0.6,0.4-1,1-1h6c0.6,0,1,0.4,1,1C14,11.6,13.6,12,13,12z"/>
</g>
<path fill="#00a9e0" stroke="none" d="M14.6,0H5.4C3.5,0,2,1.5,2,3.4v9.1C2,14.5,3.5,16,5.4,16h0H6c0.6,0,1-0.4,1-1c0-0.6-0.4-1-1-1c-1.1,0-2-0.9-2-2V4
	c0-1.1,0.9-2,2-2h8c1.1,0,2,0.9,2,2v8c0,1.1-0.9,2-2,2l-1.9,0c0,0-0.3,0-0.7,0.3C11,14.7,7,18,7,18c-0.4,0.3-0.5,1-0.2,1.4
	c0.3,0.4,1,0.5,1.4,0.2l4.7-3.6h1.6c1.9,0,3.4-1.5,3.4-3.4V3.4C18,1.5,16.5,0,14.6,0z"/>
</svg>
