<?xml version="1.0" encoding="utf-8"?>
<!-- Generator: Adobe Illustrator 18.1.1, SVG Export Plug-In . SVG Version: 6.00 Build 0)  -->
<svg version="1.1" id="Layer_1" xmlns="http://www.w3.org/2000/svg" xmlns:xlink="http://www.w3.org/1999/xlink" x="0px" y="0px"
	 viewBox="0 0 24 24" enable-background="new 0 0 24 24" xml:space="preserve">
<g>
	<path fill="#FFFFFF" d="M16,18.3c-0.3,0.3-0.7,0.6-1.1,0.9c-0.4,0.3-0.9,0.6-1.5,0.9c-0.5,0.3-1.1,0.5-1.6,0.7
		c-0.5,0.2-1.1,0.3-1.5,0.3c-0.4,0-0.8-0.1-1.1-0.2c-0.3-0.1-0.5-0.3-0.7-0.5c-0.2-0.2-0.3-0.5-0.4-0.8C8,19.2,8,18.9,8,18.5
		C8,18,8,17.3,8.1,16.6c0.2-1.5,0.4-2.3,0.5-2.5C8.7,13.8,9,13,9.3,11.8c0.3-1,0.5-1.7,0.6-2c0-0.2,0.2-0.4,0.3-0.6
		c0.2-0.2,0.4-0.3,0.6-0.4c0.2-0.1,0.4-0.2,0.7-0.2c0.2,0,0.4-0.1,0.6-0.1c0.3,0,0.6,0.1,0.7,0.2C13,8.9,13,9.1,13,9.3
		c0,0.2,0,0.4-0.1,0.8c-0.1,0.3-0.2,0.7-0.3,1.2c-0.1,0.4-0.3,1-0.5,1.7c-0.2,0.7-0.4,1.3-0.4,1.7c-0.1,0.5-0.2,1-0.3,1.4
		c-0.1,0.5-0.2,0.9-0.2,1.3c0,0.4,0,0.7,0.1,0.9c0.1,0.2,0.3,0.3,0.5,0.3c0.3,0,0.6-0.1,1-0.3s0.7-0.5,1.1-0.8
		c0.4-0.3,0.7-0.6,1.1-0.9c0.4-0.3,0.7-0.6,1-0.8V18.3z M10.4,5.1c0-0.2,0-0.4,0.1-0.7s0.2-0.5,0.4-0.7c0.2-0.2,0.4-0.4,0.8-0.5
		C12,3.1,12.4,3,12.9,3c0.3,0,0.6,0,0.8,0.1s0.5,0.2,0.7,0.3s0.3,0.3,0.5,0.6C15,4.2,15,4.5,15,4.8c0,0.3,0,0.6-0.1,0.8
		c-0.1,0.3-0.2,0.5-0.4,0.7c-0.2,0.2-0.5,0.4-0.8,0.5C13.4,7,13,7.1,12.6,7.1c-0.7,0-1.3-0.2-1.6-0.5C10.6,6.2,10.4,5.7,10.4,5.1z"
		/>
</g>
</svg>
