<svg version="1.1" id="unbundle" xmlns="http://www.w3.org/2000/svg" xmlns:xlink="http://www.w3.org/1999/xlink" x="0px" y="0px"
	 viewBox="0 0 16 16" style="enable-background:new 0 0 16 16;" xml:space="preserve">
<polygon points="13,6.1 15,4.8 8,0.5 6,1.8 "/>
<polygon points="15,6.9 15,5.8 13,7.1 13,8.2 "/>
<polygon points="15,11.2 15,10.1 13,11.4 13,12.5 "/>
<polygon points="15,9.1 15,8 13,9.3 13,10.4 "/>
<polygon points="6.6,8.3 4.6,10.4 2.5,8.3 1.6,9.3 3.6,11.3 1.6,13.4 2.5,14.3 4.6,12.3 6.6,14.3 7.6,13.4 5.5,11.3 7.6,9.3 "/>
<g>
	<polygon points="7.8,14.4 7.8,14.4 7.1,15.1 7.8,15.5 10,14 10,13 	"/>
	<polygon points="1,11.2 1.7,11.6 2.1,11.2 1.2,10.2 1,10.1 	"/>
</g>
<g>
	<polygon points="1.2,8.1 1,8 1,8.2 	"/>
	<polygon points="7.9,12.2 8.5,12.9 10,11.9 10,10.8 	"/>
</g>
<g>
	<polygon points="2.5,6.8 4.5,8.8 5,8.4 1,5.8 1,6.9 1.8,7.4 	"/>
	<polygon points="8.2,9.9 7.2,10.8 7.8,11.2 10,9.8 10,8.7 	"/>
</g>
<polygon points="6.5,6.8 8.4,8.6 10,7.6 3.4,3.3 1,4.8 5.7,7.6 "/>
</svg>
