<svg version="1.1" id="unlocked" xmlns="http://www.w3.org/2000/svg" xmlns:xlink="http://www.w3.org/1999/xlink" x="0px" y="0px"
	 viewBox="-300 389 10 15" style="enable-background:new -300 389 10 15;" xml:space="preserve">
	<path stroke="none" d="M-295.3,392.9c0.3,0.5-0.4,0.9-1.9,1.1h5.2v-1.9c0-0.8-0.7-1.5-1.5-1.5h-2.8c-0.8,0-1.3,0.5-1.5,1.2h1.4
		C-295.8,391.8-295.3,392.3-295.3,392.9z"/>
	<path stroke="none" d="M-290.5,394.6v-2.5c0-1.7-1.4-3.1-3.1-3.1h-2.7c-1.7,0-3,1.2-3.2,2.8h1.7c0.1-0.7,0.7-1.2,1.5-1.2h2.8
		c0.8,0,1.5,0.7,1.5,1.5v1.9h-5.2c-0.5,0.1-1,0.1-1.7,0.1l-0.6,0.4v0c-0.3,0.3-0.5,0.7-0.5,1.2v6.5c0,1,0.8,1.8,1.8,1.8h6.5
		c1,0,1.8-0.8,1.8-1.8v-6.5C-290,395.3-290.2,394.9-290.5,394.6z"/>
</svg>
