<svg version="1.1" id="user" xmlns="http://www.w3.org/2000/svg" xmlns:xlink="http://www.w3.org/1999/xlink" x="0px" y="0px"
	 viewBox="0 0 48 48" style="enable-background:new 0 0 48 48;" xml:space="preserve">
<path id="XMLID_614_" stroke="none" d="M37.4,35.3c-6.3-2.3-7.3-4-7.3-7.1c0-0.7,0.2-0.9,0.6-1.4c0.6-0.7,1.5-1.7,2-4.4
	c0-0.2,0.1-0.2,0.1-0.2c0,0,0.1-0.1,0.2-0.1c1.1-0.5,1.8-1.4,2-4c0-1.2-0.4-2-0.8-2.4c0.1-0.8,0.4-2.5,0.5-3.8
	c0.1-1.6-0.4-4.2-2.3-6.3c-0.5-0.5-1.1-1-1.8-1.5c-0.1-0.2-0.2-0.3-0.4-0.4c-1.6-0.6-3.2-1.3-4.8-1.7c-0.5-0.2-1.1-0.3-1.6-0.4
	c-1,0-0.9,1-2.3,0.1c-0.3-0.2-0.7-0.1-0.8,0.2c-0.1,0.4-0.3,0.7-0.5,0.9c-0.1-0.1-0.3-0.3-0.4-0.4c-0.1-0.1-0.2-0.2-0.3-0.3
	c-0.5-0.3-1,0.2-0.9,0.6c0,0,0,0,0,0c-0.3,0.4-0.5,0.7-0.8,1.1C16.7,4.4,16,5,15.5,5.6c-1.9,2.1-2.4,4.7-2.3,6.3
	c0.1,1.4,0.4,3,0.5,3.8c-0.4,0.4-0.8,1.2-0.8,2.5c0.2,2.6,0.9,3.4,2,3.9c0.1,0,0.2,0.1,0.2,0.1c0,0,0,0.1,0.1,0.2
	c0.5,2.7,1.4,3.6,2,4.4c0.5,0.5,0.6,0.7,0.6,1.4c0,3.1-1.1,4.8-7.3,7.1C0,39.2,0,41.5,0,42.3v6.1h48v-6.1C48,41.5,48,39.2,37.4,35.3
	z M46,46.4H2l0-4.2c0.1-0.5,1.9-2.3,9.3-5.1c5.7-2.1,8.6-4,8.6-9c0-1.5-0.6-2.1-1.1-2.7c-0.5-0.6-1.2-1.3-1.6-3.4
	c-0.2-1.2-0.9-1.6-1.4-1.8c-0.4-0.2-0.7-0.4-0.9-2.2c0-0.9,0.3-1.2,0.3-1.2l0.7-0.3l-0.1-0.8c0,0-0.4-2.4-0.6-4.2
	c-0.1-0.9,0.2-3,1.8-4.7c1.5-1.7,3.9-2.6,7-2.6c3.1,0,5.4,0.9,7,2.6c1.6,1.7,1.8,3.9,1.8,4.7c-0.2,1.8-0.6,4.2-0.6,4.2l-0.2,0.7
	l0.7,0.3c0,0,0.4,0.3,0.4,1.1c-0.1,1.9-0.5,2.1-0.9,2.3c-0.4,0.2-1.2,0.6-1.4,1.8c-0.4,2.1-1,2.8-1.6,3.4c-0.5,0.6-1.1,1.3-1.1,2.7
	c0,4.9,2.9,6.9,8.6,9c7.5,2.7,9.3,4.6,9.3,5.1V46.4z"/>
<path id="XMLID_613_" stroke="none" d="M17.3,33.8c2.1,0.5,4.1,1.3,6,2.4c0.7,0.4,1.3-0.6,0.6-1.1c-1.9-1.2-4-2.1-6.2-2.6
	C16.9,32.4,16.6,33.6,17.3,33.8L17.3,33.8z"/>
<path id="XMLID_612_" stroke="none" d="M29.7,32.9c-1,1.2-2.8,1.3-3.9,2.4c-0.5,0.6,0.3,1.5,0.9,0.9c1.1-1.1,2.9-1.1,3.9-2.4
	C31,33.1,30.1,32.2,29.7,32.9L29.7,32.9z"/>
<path id="XMLID_602_" stroke="none" d="M23.5,37.1c0.6-0.4,1.3-0.5,2-0.4c0.8,0.2,1.1-1,0.3-1.2c-1-0.2-2.1,0-3,0.5
	C22.2,36.4,22.8,37.5,23.5,37.1L23.5,37.1z"/>
<path id="XMLID_601_" stroke="none" d="M24.1,23.1c1.4-0.4,2.3-0.9,2.3-2.4c0-0.9,0-1.9,0-2.8c0-0.6,0-0.9,0.6-1.2
	c0.5-0.2,1.2-0.1,1.6-0.2c0.8-0.1,0.8-1.3,0-1.2c-1.2,0.1-3,0-3.4,1.4c-0.2,0.7-0.1,1.6-0.1,2.3c0,0.5,0.1,0.9,0,1.4
	c-0.1,1-0.4,1.2-1.4,1.5C23,22.1,23.4,23.3,24.1,23.1L24.1,23.1z"/>
<path id="XMLID_600_" stroke="none" d="M21.6,15.4c-0.8-0.2-1.6-0.1-2.4,0.1c-0.8,0.2-0.4,1.4,0.3,1.2c0.6-0.2,1.2-0.3,1.8-0.1
	C22.1,16.7,22.4,15.5,21.6,15.4L21.6,15.4z"/>
<path id="XMLID_599_" stroke="none" d="M30.3,23.4c-0.3,1.3-1.7,2.1-2.4,3.1c-1,1.4-3,3.2-4.8,2.1c-0.7-0.4-1.3,0.6-0.6,1.1
	c1.7,1.1,3.7,0.3,5.1-0.9c1-0.8,1.7-2,2.6-2.9c0.7-0.7,1.1-1.2,1.3-2.2C31.7,23,30.5,22.7,30.3,23.4L30.3,23.4z"/>
<path id="XMLID_598_" stroke="none" d="M14.5,10.9c2.9-0.3,3.3-3,4.6-5.2c-0.4,0-0.7,0-1.1,0c0.7,1.1,0.3,2.1,1,3
	c0.8,1.1,4.5,2.3,6,2.7c3.4,1,7.4,1,8.9-2.6c0.3-0.7-0.9-1.1-1.2-0.3c-1.8,4.4-8.8,1.6-11.4-0.1c-1.5-1-1.4-1.9-2.3-3.3
	c-0.2-0.4-0.8-0.4-1.1,0c-0.9,1.5-1.3,4.3-3.5,4.6C13.8,9.8,13.8,11,14.5,10.9L14.5,10.9z"/>
</svg>
