<svg version="1.1" id="v1-word-version" xmlns="http://www.w3.org/2000/svg" xmlns:xlink="http://www.w3.org/1999/xlink" x="0px" y="0px"
	 viewBox="0 0 88 20.7" enable-background="new 0 0 88 20.7" xml:space="preserve">
<path stroke="none" d="M8.8,19.1L2,2.6h2.1l4.7,12.1l4.7-12.1h2.1L8.8,19.1z"/>
<path stroke="none" d="M16.3,18.4V2.6h8.4v1.7h-6.5v4.6h6.5v1.8h-6.5v6.1h6.5v1.8H16.3z"/>
<path stroke="none" d="M27.1,18.4V2.6h3.8c1.1,0,1.9,0.1,2.4,0.2c0.5,0.1,0.9,0.3,1.3,0.6c0.5,0.4,0.8,0.9,1.1,1.5C35.9,5.5,36,6.1,36,6.9
	c0,1.3-0.4,2.3-1.1,3c-0.7,0.7-1.8,1-3.2,1h-0.3l6.1,7.6H35l-5.8-7.6h-0.3v7.6H27.1z M28.9,4.2v5.3h1.4c1.5,0,2.5-0.2,3-0.6
	c0.5-0.4,0.8-1,0.8-2c0-1-0.3-1.7-0.8-2.1c-0.5-0.4-1.5-0.6-3-0.6H28.9z"/>
<path stroke="none" d="M44,9.6c1,0.4,1.8,1,2.4,1.8c0.5,0.7,0.8,1.6,0.8,2.6c0,1.5-0.5,2.6-1.4,3.5c-0.9,0.9-2.2,1.3-3.7,1.3c-1.3,0-2.3-0.3-3.2-1
	c-0.8-0.6-1.4-1.5-1.7-2.7l1.7-0.8c0.2,1,0.6,1.7,1.1,2.2c0.5,0.5,1.2,0.7,2,0.7c1,0,1.7-0.3,2.3-0.8c0.6-0.5,0.9-1.3,0.9-2.1
	c0-0.7-0.2-1.3-0.6-1.8c-0.4-0.5-1-1-1.8-1.3l-1.9-0.8c-1.1-0.4-1.9-1-2.4-1.7c-0.5-0.7-0.8-1.5-0.8-2.5C37.6,5,38,4,38.9,3.3
	c0.8-0.7,1.9-1.1,3.2-1.1c1,0,1.8,0.2,2.5,0.6c0.7,0.4,1.2,1,1.6,1.8l-1.6,1c-0.4-0.6-0.8-1.1-1.2-1.4C43,3.9,42.5,3.8,42,3.8
	c-0.7,0-1.3,0.2-1.7,0.7c-0.5,0.4-0.7,1-0.7,1.7c0,0.6,0.2,1,0.5,1.5c0.3,0.4,0.9,0.8,1.6,1.1L44,9.6z"/>
<path stroke="none" d="M48.8,18.4V2.6h1.9v15.9H48.8z"/>
<path stroke="none" d="M70,10.5c0,1.1-0.2,2.2-0.6,3.2c-0.4,1-1,1.9-1.8,2.7c-0.8,0.8-1.7,1.4-2.8,1.8c-1.1,0.4-2.1,0.6-3.3,0.6
	c-1.1,0-2.2-0.2-3.3-0.6c-1-0.4-2-1-2.8-1.8c-0.8-0.8-1.4-1.7-1.9-2.7c-0.4-1-0.6-2.1-0.6-3.2c0-1.1,0.2-2.2,0.6-3.2
	c0.4-1,1-1.9,1.9-2.7c0.8-0.8,1.7-1.4,2.8-1.8c1.1-0.4,2.1-0.6,3.3-0.6c1.1,0,2.2,0.2,3.3,0.6c1.1,0.4,2,1,2.8,1.8
	c0.8,0.8,1.4,1.7,1.8,2.7C69.8,8.3,70,9.4,70,10.5z M61.5,17.1c0.9,0,1.7-0.2,2.5-0.5c0.8-0.3,1.5-0.8,2.1-1.4
	c0.6-0.6,1.1-1.3,1.4-2.1c0.3-0.8,0.5-1.6,0.5-2.5c0-0.9-0.2-1.7-0.5-2.5c-0.3-0.8-0.8-1.5-1.4-2.1c-0.6-0.6-1.3-1.1-2.1-1.4
	C63.2,4.1,62.3,4,61.5,4c-0.9,0-1.7,0.2-2.5,0.5c-0.8,0.3-1.5,0.8-2.1,1.4c-0.6,0.6-1.1,1.3-1.4,2.1c-0.3,0.8-0.5,1.6-0.5,2.5
	c0,0.9,0.2,1.7,0.5,2.5c0.3,0.8,0.8,1.5,1.4,2.1c0.6,0.6,1.4,1.1,2.1,1.4C59.8,16.9,60.6,17.1,61.5,17.1z"/>
<path stroke="none" d="M72.2,18.4V1.9l11.7,12.7V2.6h1.8v16.5L74,6.5v11.9H72.2z"/>
</svg>
