<svg version="1.1" id="v1-word-one" xmlns="http://www.w3.org/2000/svg" xmlns:xlink="http://www.w3.org/1999/xlink" x="0px" y="0px"
	 viewBox="0 0 49.3 20.7" enable-background="new 0 0 49.3 20.7" xml:space="preserve">
<path stroke="none" d="M19.1,10.4c0,1.1-0.2,2.2-0.6,3.2c-0.4,1-1,1.9-1.8,2.7c-0.8,0.8-1.7,1.4-2.8,1.8c-1.1,0.4-2.1,0.6-3.3,0.6
	c-1.1,0-2.2-0.2-3.3-0.6c-1-0.4-2-1-2.8-1.8c-0.8-0.8-1.4-1.7-1.9-2.7c-0.4-1-0.6-2.1-0.6-3.2c0-1.1,0.2-2.2,0.6-3.2
	s1.1-1.9,1.9-2.7c0.8-0.8,1.7-1.4,2.8-1.8C8.4,2.2,9.5,2,10.6,2c1.1,0,2.2,0.2,3.3,0.6c1.1,0.4,2,1,2.8,1.8c0.8,0.8,1.4,1.7,1.8,2.7
	C18.9,8.1,19.1,9.2,19.1,10.4z M10.6,16.9c0.9,0,1.7-0.2,2.5-0.5c0.8-0.3,1.5-0.8,2.1-1.4c0.6-0.6,1.1-1.3,1.4-2.1
	c0.3-0.8,0.5-1.6,0.5-2.5c0-0.9-0.2-1.7-0.5-2.5c-0.3-0.8-0.8-1.5-1.4-2.1c-0.6-0.6-1.3-1.1-2.1-1.4c-0.8-0.3-1.6-0.5-2.5-0.5
	C9.7,3.8,8.9,4,8.1,4.3C7.3,4.6,6.6,5.1,6,5.7C5.3,6.3,4.9,7,4.5,7.8C4.2,8.6,4,9.5,4,10.4c0,0.9,0.2,1.7,0.5,2.5
	C4.8,13.6,5.3,14.3,6,15c0.6,0.6,1.4,1.1,2.1,1.4C8.9,16.8,9.7,16.9,10.6,16.9z"/>
<path stroke="none" d="M21.3,18.3V1.8L33,14.5V2.4h1.8v16.5L23.1,6.3v11.9H21.3z"/>
<path stroke="none" d="M37.8,18.3V2.4h8.4v1.7h-6.5v4.6h6.5v1.8h-6.5v6.1h6.5v1.8H37.8z"/>
</svg>
