<?xml version="1.0" encoding="utf-8"?>
<!-- Generator: Adobe Illustrator 21.1.0, SVG Export Plug-In . SVG Version: 6.00 Build 0)  -->
<svg version="1.1" id="Layer_1" xmlns="http://www.w3.org/2000/svg" xmlns:xlink="http://www.w3.org/1999/xlink" x="0px" y="0px"
	 viewBox="0 0 24 24" enable-background="new 0 0 24 24" xml:space="preserve">
<path d="M22.7,4.9l-5.6,2.7c-0.4-1.6-1.9-2.9-3.7-2.9H4.6c-2.1,0-3.8,1.7-3.8,3.8v6.4c0,2.1,1.7,3.8,3.8,3.8h9
	c1.7,0,3.2-1.2,3.6-2.8l5.6,2.8V4.9z M14.8,16.1c-0.3,0.3-0.7,0.5-1.2,0.5h-9c-1,0-1.7-0.8-1.7-1.7V8.5c0-1,0.8-1.7,1.7-1.7h8.9
	c1,0,1.7,0.8,1.7,1.7v6.4v0l0,0C15.2,15.4,15.1,15.8,14.8,16.1z M20.7,15.3l-3.3-1.7V9.8l3.3-1.6V15.3z"/>
</svg>
