<svg version="1.1" id="visualization" xmlns="http://www.w3.org/2000/svg" xmlns:xlink="http://www.w3.org/1999/xlink" x="0px" y="0px"
	 viewBox="0 0 16 16" style="enable-background:new 0 0 16 16;" xml:space="preserve">
<path stroke="none" id="XMLID_14_" d="M6.7,5.5H2.6c-1.1,0-2,0.9-2,2v0.9c0,1.1,0.9,2,2,2h4.1c1.1,0,2-0.9,2-2V7.5C8.7,6.4,7.8,5.5,6.7,5.5z"/>
<path id="XMLID_15_" d="M13.6,10.5H9.5c-1.1,0-2,0.9-2,2v0.9c0,1.1,0.9,2,2,2h4.1c1.1,0,2-0.9,2-2v-0.9
	C15.6,11.4,14.7,10.5,13.6,10.5z"/>
<path stroke="none" id="XMLID_16_" d="M13.6,0.6H9.5c-1.1,0-2,0.9-2,2v0.9c0,1.1,0.9,2,2,2h4.1c1.1,0,2-0.9,2-2V2.6C15.6,1.5,14.7,0.6,13.6,0.6z"
	/>
<g id="XMLID_17_">
	<path stroke="none" id="XMLID_21_" d="M6.1,7.7l-0.2-1C6.6,6.6,7.3,6.6,8,6.6c0.3,0,0.7,0,1,0c0.8,0,1.8-0.1,2.3-0.8c0.6-0.7,0.4-1.9,0.2-3l1-0.2
		c0.2,1.3,0.4,2.7-0.4,3.8C11.5,7.2,10.4,7.7,9,7.7c-0.3,0-0.7,0-1,0C7.3,7.6,6.7,7.6,6.1,7.7z"/>
</g>
<g id="XMLID_18_">
	<path stroke="none" id="XMLID_20_" d="M12.5,13.3l-1-0.2c0.2-1.1,0.3-2.2-0.2-3C10.8,9.4,9.8,9.3,9,9.3c-0.3,0-0.6,0-0.9,0
		c-0.7,0-1.4,0.1-2.1-0.1l0.2-1c0.6,0.1,1.2,0.1,1.9,0c0.3,0,0.7,0,1,0c1,0,2.3,0.2,3.1,1.2C12.9,10.6,12.8,12,12.5,13.3z"/>
</g>
</svg>
