<?xml version="1.0" encoding="utf-8"?>
<!-- Generator: Adobe Illustrator 22.1.0, SVG Export Plug-In . SVG Version: 6.00 Build 0)  -->
<svg version="1.1" id="Layer_1" xmlns="http://www.w3.org/2000/svg" xmlns:xlink="http://www.w3.org/1999/xlink" x="0px" y="0px"
	 viewBox="0 0 16 16" style="enable-background:new 0 0 16 16;" xml:space="preserve">
<g>
	<path d="M10.4,12c-0.8,0-1.6,0-2.4,0c-0.2,1.2-0.8,2.1-1.7,2.7c-0.8,0.5-1.7,0.8-2.7,0.6c-2.1-0.2-3.5-2-3.5-3.9
		c0-2.1,1.5-3.7,3.3-4c0.1,0.4,0.1,0.7,0.2,1.1c-0.1,0-0.1,0-0.2,0c-1.1,0.3-1.9,1-2.1,2.2c-0.3,1.5,0.6,3,2.1,3.4
		c1.1,0.3,2.1-0.1,2.8-0.9c0.4-0.4,0.6-0.9,0.7-1.4c0-0.3,0-0.5,0-0.8c0-0.1,0-0.1,0-0.2c0,0,0.1,0,0.1,0c1.1,0,2.2,0,3.4,0
		c0,0,0.1,0,0.1-0.1c0.2-0.5,0.6-0.9,1.2-1c0.6-0.1,1.1,0,1.5,0.4c0.4,0.4,0.6,0.9,0.6,1.5c-0.1,0.5-0.3,1-0.8,1.3
		c-0.5,0.3-1,0.4-1.6,0.1C10.9,12.8,10.6,12.5,10.4,12C10.4,12,10.4,12,10.4,12z M12.6,11.4c0-0.3-0.3-0.6-0.6-0.6
		c-0.3,0-0.6,0.3-0.6,0.6c0,0.3,0.3,0.6,0.6,0.6C12.3,12,12.6,11.7,12.6,11.4z"/>
	<path d="M9,14.1c0.3-0.3,0.6-0.5,0.8-0.8c0.1,0.1,0.2,0.2,0.3,0.3c0.5,0.4,1,0.6,1.7,0.7c1.4,0.1,2.6-0.8,3-2.1
		c0.4-1.5-0.5-3.1-2.1-3.5c-0.7-0.2-1.4-0.1-2.1,0.3c-0.2,0.1-0.4,0.2-0.6,0.3c0,0,0,0,0-0.1C9.5,8.2,8.9,7.3,8.3,6.3
		c0,0,0-0.1-0.1,0c-0.5,0-0.9-0.1-1.3-0.4C6.6,5.6,6.4,5.3,6.3,4.8c-0.1-0.5,0-0.9,0.3-1.3c0.3-0.4,0.6-0.6,1.1-0.6
		c0.4-0.1,0.8,0,1.2,0.3c0.4,0.2,0.6,0.6,0.7,1c0.1,0.6,0,1.1-0.4,1.5c0,0,0,0,0,0c0.4,0.7,0.8,1.3,1.2,2c1.2-0.4,2.3-0.4,3.4,0.2
		c0.8,0.4,1.4,1.1,1.8,2c0.8,1.8,0.1,3.9-1.6,5C12.4,15.9,10.3,15.5,9,14.1z M8.6,4.6C8.6,4.3,8.3,4,8,4C7.7,4,7.4,4.3,7.4,4.6
		c0,0.3,0.3,0.6,0.6,0.6C8.3,5.1,8.6,4.9,8.6,4.6z"/>
	<path d="M11.8,5.9c-0.4-0.1-0.7-0.2-1.1-0.4c0-0.1,0-0.1,0.1-0.2c0.4-1.5-0.5-3.2-2-3.5C7.2,1.4,5.6,2.3,5.2,3.9
		C4.9,5,5.4,6.2,6.4,6.9C6.5,7,6.7,7.1,6.8,7.3c0,0.1-0.1,0.2-0.1,0.2c-0.5,0.9-1,1.8-1.4,2.7c0,0,0,0.1,0,0.1
		c0.3,0.4,0.5,0.9,0.4,1.4c-0.1,0.6-0.4,1-0.9,1.3c-0.5,0.3-1,0.3-1.5,0.1c-0.5-0.2-0.8-0.6-0.9-1c-0.2-0.5-0.1-1.1,0.2-1.5
		c0.3-0.4,0.6-0.6,1.1-0.7c0.2,0,0.3,0,0.5,0c0,0,0.1,0,0.1,0C4.6,9,5,8.3,5.4,7.6c0,0,0,0,0,0C4.5,6.8,4,5.7,4,4.5
		c0-1,0.4-1.9,1-2.6c1.3-1.5,3.4-1.7,5.1-0.7C11.8,2.2,12.4,4.3,11.8,5.9z M4.6,11.4c0-0.3-0.3-0.6-0.6-0.6c-0.3,0-0.6,0.3-0.6,0.6
		C3.4,11.7,3.7,12,4,12C4.3,12,4.6,11.7,4.6,11.4z"/>
	<path class="st0" d="M12.6,11.4c0,0.3-0.3,0.6-0.6,0.6c-0.3,0-0.6-0.3-0.6-0.6c0-0.3,0.3-0.6,0.6-0.6
		C12.3,10.9,12.6,11.1,12.6,11.4z"/>
	<path class="st0" d="M8.6,4.6c0,0.3-0.3,0.6-0.6,0.6c-0.3,0-0.6-0.3-0.6-0.6C7.4,4.3,7.7,4,8,4C8.3,4,8.6,4.3,8.6,4.6z"/>
	<path class="st0" d="M4.6,11.4C4.6,11.7,4.3,12,4,12c-0.3,0-0.6-0.3-0.6-0.6c0-0.3,0.3-0.6,0.6-0.6C4.3,10.9,4.6,11.1,4.6,11.4z"/>
</g>
</svg>
