<?xml version="1.0" encoding="utf-8"?>
<!-- Generator: Adobe Illustrator 19.0.0, SVG Export Plug-In . SVG Version: 6.00 Build 0)  -->
<!DOCTYPE svg PUBLIC "-//W3C//DTD SVG 1.1//EN" "http://www.w3.org/Graphics/SVG/1.1/DTD/svg11.dtd">
<svg version="1.1" id="wrench" xmlns="http://www.w3.org/2000/svg" xmlns:xlink="http://www.w3.org/1999/xlink" x="0px" y="0px"
	 viewBox="0 0 16 16" style="enable-background:new 0 0 16 16;" xml:space="preserve">
<path id="XMLID_2_" class="st0" d="M13.1,12.5c-0.3,0-0.6,0.3-0.6,0.6c0,0.3,0.3,0.6,0.6,0.6c0.3,0,0.6-0.3,0.6-0.6
	C13.7,12.7,13.4,12.5,13.1,12.5z"/>
<path id="XMLID_10_" d="M15.6,12.8L8.5,5.7c0.1-0.4,0.2-0.9,0.2-1.3C8.7,2,6.8,0,4.4,0C3.6,0,2.7,0.2,2.1,0.6C2,0.7,2,0.8,2,0.9
	C2,1,2,1.1,2.1,1.2L5,2.8V5L3.1,6C2.8,5.8,0.5,4.4,0.3,4.4C0.1,4.4,0,4.6,0,4.8c0,0.3,0.1,0.7,0.2,1c0.6,1.7,2.3,2.9,4.1,2.9
	c0.5,0,0.9-0.1,1.3-0.2l7.2,7.1c0.2,0.2,0.5,0.4,0.9,0.4c0.3,0,1.3,0,1.8-0.4c0.4-0.4,0.5-1.6,0.5-1.9S15.9,13.1,15.6,12.8z
	 M14.3,15.1c-0.5,0-0.8-0.4-0.8-0.8c0-0.5,0.4-0.8,0.8-0.8s0.8,0.4,0.8,0.8C15.2,14.7,14.8,15.1,14.3,15.1z"/>
</svg>
