<svg version="1.1" xmlns="http://www.w3.org/2000/svg" xmlns:xlink="http://www.w3.org/1999/xlink" x="0px" y="0px"
	 viewBox="0 0 24 24" style="enable-background:new 0 0 24 24;" xml:space="preserve">
<g>
	<g>
		<path d="M0,2.7C0,2,0.3,1.4,0.8,0.8C1.4,0.3,2,0,2.7,0H8v2.7H2.7V8H0V2.7z M2.7,16v5.3H8V24H2.7c-0.7,0-1.3-0.3-1.9-0.8
			C0.3,22.6,0,22,0,21.3V16H2.7z M21.3,0c0.7,0,1.3,0.3,1.9,0.8C23.7,1.4,24,2,24,2.7V8h-2.7V2.7H16V0H21.3z M21.3,21.3V16H24v5.3
			c0,0.7-0.3,1.3-0.8,1.9C22.6,23.7,22,24,21.3,24H16v-2.7H21.3z"/>
	</g>
	<g>
		<path d="M20,13.1h-6.9V20h-2.3v-6.9H4v-2.3h6.9V4h2.3v6.9H20V13.1z"/>
	</g>
</g>
</svg>
